<?xml version="1.0" encoding="utf-8"?>
<!-- Generator: Adobe Illustrator 19.2.1, SVG Export Plug-In . SVG Version: 6.00 Build 0)  -->
<svg version="1.1" id="Ebene_1" xmlns="http://www.w3.org/2000/svg" xmlns:xlink="http://www.w3.org/1999/xlink" x="0px" y="0px"
	 viewBox="0 0 1170 360" fill-opacity=".1" style="enable-background:new 0 0 1170 360;" xml:space="preserve">
<style type="text/css">
	.st0{fill:#FFFFFF;}
</style>
<g>
	<path class="st0" d="M136.6,99.7c6.5-1.2,12.9-3.1,19.5-3.2c30.6-0.2,59.8,12.9,84.4,30.2c3.8,2.6,7.6,5.3,10.2,9.2
		c1.9,2.8,3.2,5.9,4.9,8.8c3.1,5.3,7.3,9.8,12.2,13.5c5.6,4.3,11.9,7.6,18.5,10.1c-0.5,3.3,0.1,6,1.5,6.4l4.8,1.4
		c1,9,7.5,16.8,16.9,19.2l8,2l2.3-9.1l15.2,3.9c1.6,0.4,3.6-0.6,4.1-2.4c0.5-1.8-0.8-3.7-2.4-4.1l-15.2-3.9l3-11.8l15.5,4l1.5-6
		l-15.5-4l2.4-9.6l-8-2c-9.6-2.4-19.2,1.5-24.3,9.2l-4.2-1.2c-1-0.3-2.4,0.7-3.5,2.4c-6.3-2.4-12.3-5.5-17.5-9.6
		c-9.8-7.8-12.8-20.4-22.6-28.1c-20.4-15.9-45.6-28.2-71.1-32.6c-11.6-2-22.7-2.4-34.1-0.1c-10.9,2.2-21.9,4.2-33,5.8
		c-30.8,4.5-64,8.1-94.8,1.9c-10.4-2.1-26-6.3-31.7-16.5c-0.7-1.3-1.1-3.8-1.5-5.7c-1-4.5-2.2-9-3.6-13.4
		C-31.1,33.6-51.9,1.4-88,1.9c-3.9,0.1-3.9,6.1,0,6c32.6-0.5,51.3,28.9,60.3,56.7c1.5,4.6,2.8,9.2,3.8,13.9c0.4,2,0.5,4.3,1.2,6.2
		c1.6,4.5,6.8,8.5,10.6,11.1c5.2,3.6,11.2,6,17.2,7.8c29.4,8.8,62.6,5.8,92.6,2.1C110.7,104.2,123.7,102.2,136.6,99.7z"/>
	<path class="st0" d="M608.6,79c-0.8,1.5-0.3,3.7,1.4,4.6c1.6,0.9,3.8,0.1,4.6-1.4l7.4-13.9l10.7,5.7l-7.6,14.1l0,0
		c-0.6,1.1-0.3,3.7,1.4,4.6c1.6,0.9,4-0.3,4.6-1.4l-4.7-2.5l4.2,2.3l7.6-14.1l8.7,4.6l3.9-7.3c4.6-8.7,3.2-19-3.1-25.8l2.2-3.8
		c0.6-1.1-0.4-3.1-2.4-4.9c6.7-13,19.2-22.9,33.7-26c11.3-2.4,23-0.6,34.3,1.2c10,1.6,19.9,3,30,4.1c10.2,1,20.9,2.4,31,0.6
		c9-1.6,17-6.3,24.3-11.4c15.4-10.9,30.5-22.8,43.2-36.8c13.6-14.9,24.3-32.7,28.4-52.6c0.8-3.8-5-5.4-5.8-1.6
		c-7.9,38.2-40,66.4-70.9,87.3c-9,6.1-18.2,9.9-29.2,10c-10.6,0-21.3-1.3-31.8-2.6c-19.6-2.5-40.5-8.8-60-2.5
		c-14,4.6-25.5,14.6-32.3,27.5c-2.6-0.9-4.9-0.7-5.5,0.3l-2.5,4.4c-9-1.2-18.1,3.3-22.7,11.8l-3.9,7.3l8.3,4.5L608.6,79z"/>
	<path class="st0" d="M344.1,171.5c0.5-1.8-1.2-3.8-2.4-4.1L340,174C341.2,174.3,343.7,173.3,344.1,171.5z"/>
	<path class="st0" d="M428.4,267.7c0.7-1.5,0-3.7-1.7-4.5c-1.7-0.8-3.8,0.2-4.5,1.7l-6.4,14.4l-11.1-5l6.6-14.6l0,0
		c0.5-1.1,0-3.7-1.7-4.5c-1.7-0.8-4,0.6-4.5,1.7l3.4,1.5l-2.9-1.3l-6.6,14.6l-9-4l-3.4,7.5c-4,9-1.8,19.2,4.9,25.5l-1.9,3.9
		c-0.5,1,0.3,2.5,1.9,4c-3.4,6.9-7.3,13.6-11.7,20c-6.5,9.5-14.2,18.1-26.4,18.9c-19.9,1.3-41.4-10.2-55.7-23.2
		c-14.7-13.2-22-33-38.6-44.2c-15.9-10.7-36.4-12.8-54.1-5.6c-7.2,2.9-13.3,7.7-19.7,12.1c-6.8,4.6-13.4,9.4-19.9,14.4
		c-20,15.4-39.2,32.4-55,52.2c-16.9,21.1-32.2,48.2-25.6,76.2c0.9,3.8,6.7,2.2,5.8-1.6c-5.9-24.9,7.8-49.6,22.6-68.6
		c15.7-20.1,35-37.4,55.2-53c6.4-4.9,12.9-9.6,19.5-14.1c5.8-3.9,11.4-8.5,17.8-11.3c19.9-8.9,43.8-4,58.7,11.8
		c7,7.5,11.8,16.7,18.2,24.7c5.7,7.1,12.4,13.4,19.9,18.7c15.7,11.3,40.3,22.5,59.9,15.9c9.8-3.3,16.4-11.3,22.1-19.5
		c4.6-6.6,8.6-13.5,12.2-20.7c3.1,1.1,5.9,0.8,6.5-0.4l2.2-4.5c9,0.6,17.8-4.5,21.8-13.3l3.4-7.5L422,282L428.4,267.7z"/>
	<path class="st0" d="M770.3,130.5c13.8-0.8,27.9-0.8,41.6-2.9c11.1-1.7,22.3-5.8,29.8-14.6c3.7-4.4,5.9-9.8,9.8-14.2
		c8.2-9.1,19.2-15.3,30.8-18.8c9.4-2.9,19.2-4.1,29-4.3c7.1-0.1,14.6-0.2,21.6,1.4c13.7,3,27.4,5.9,41.3,8
		c30.2,4.6,62.9,8.4,92.9,0.8c33.4-8.5,66.8-27.5,80.1-61c1.4-3.6-4.4-5.1-5.8-1.6c-12.1,30.5-42.9,47.8-73.1,56.1
		c-29,8-60.4,4.7-89.8,0.4c-14.4-2.1-28.7-4.8-42.9-8.1C921,68,904.2,69,889.5,72c-19.9,4-39.4,14.6-49.5,32.7
		c-11.8,21.2-43.4,18.4-64.1,19.5c-28.6,1.5-57.4,3.5-85,11.5c-1.2-1.4-2.4-2.1-3.3-1.8l-5.6,2c-5.9-6.3-15.1-8.8-23.7-5.8l-6.2,2.2
		c-0.1-0.1-0.2-0.3-0.4-0.4c-0.1-0.1-0.2-0.3-0.3-0.4c-0.2-0.3-0.5-0.6-0.7-0.8c-15.4-17.7-41.5-24.9-75.6-20.8
		c-18.8,2.9-37,8-52,14.8v0l-1.6,0.6c-3.5,1.6-6.9,3.3-10,5l-4.5-4.8c-6.7-7.2-17-8.9-25.5-5.1l-4.2-4.5c-0.9-0.9-3.1-0.5-5.4,0.9
		c-7.4-7.7-16.2-14.8-26.3-17.5c-7.2-1.9-14.7-1-22-0.1c-7.2,0.9-14.3,1.6-21.6,1.9c-14.8,0.6-29.8-0.5-44.2-4.4
		c-15.2-4.2-28.6-11.9-41-21.7c-5.8-4.6-11.5-9.3-16.9-14.3c-5-4.6-11.2-11-9.2-18.4c1.7-6.4,8.5-10.2,14.1-12.8
		c7-3.3,14.3-5.8,21.7-8c14.6-4.4,29.6-7.4,44.4-11.2c10.6-2.8,25.8-4.5,27.8-17.6c3.9-25.8-15.3-51.7-39.9-58.1
		c-3.7-1-5.3,4.8-1.6,5.8c12,3.1,22.1,10.9,28.6,21.4c3,4.9,5.2,10.3,6.4,16c1.2,5.8,2.6,15.9-2.7,20c-4.9,3.8-13.5,4.9-19.4,6.4
		c-7.5,2-15.1,3.7-22.7,5.5c-14.2,3.4-28.3,7.1-41.7,12.8c-9.5,4.1-21.3,10.6-21.3,22.4c-0.1,12.8,13.2,21.8,21.9,29.1
		c11.1,9.4,22.9,18.1,36.4,23.7c12.6,5.3,26,8,39.5,9c16.5,1.2,32.4-1.1,48.8-2.4c9.3-0.7,17.1,1.2,24.8,6.6c4.2,2.9,8,6.4,11.6,10
		c-1.5,2.2-2,4.3-1.2,5.2l4.4,4.8c-3.9,8-2.8,17.9,3.7,24.9l3.8,4.1c-7.8,13-10.3,28.3-7.7,47.2c3.2,19.9,11.9,38.6,25.3,54.1
		l0.1,0.1l-2,2.4c-6.4,7.8-6.5,18.7-1,26.7l-3.1,3.9c-0.6,0.8-0.3,2.3,0.7,4c-15.4,10.6-33.2,18.1-44.3,33.8
		c-5.2,7.3-8.8,16.4-8.1,25.5c0.3,3.8,1,7.9,3.3,11.1c2.7,3.6,6.5,4.3,10.7,4.8c12.1,1.6,24.3,1.9,36.5,1.2
		c11.1-0.6,22.1-1.7,33.2-1.3c11,0.4,22.1,2.7,31.3,9c9,6.1,16.1,15.3,21.9,24.4c3.9,6.2,5.6,12.1,3.7,19.4
		c-1.6,6.2-4.2,12.2-6.5,18.2c-5.3,13.2-11.2,26.2-17.1,39.1c-1.6,3.5,3.6,6.5,5.2,3c4.8-10.6,9.6-21.1,14.1-31.8
		c4.2-9.9,9.6-20.7,11.1-31.5c1.3-10.1-4.3-18.4-10-26.2c-5.8-7.9-12.3-15.4-20.7-20.6c-17.4-11-38.9-9.4-58.6-8.1
		c-11.8,0.8-23.6,1.1-35.4,0.2c-5.8-0.5-14,0.2-16.1-6.5c-1.6-5.2-0.9-11,0.8-16c7.4-22.1,31.2-30.9,49.1-43.3
		c2.8,1.9,5.7,2.3,6.6,1.2l3.7-4.6c8.3,2.3,17.5-0.3,23.3-7.3l2.3-2.8c0.4,0.2,0.9,0.5,1.3,0.7l0.3,0.2l0.2,0.1
		c12.8,6.8,26.9,11.6,41.9,14.4c5,0.7,9.8,1.1,14.3,1.1c19.4,0,34-6.8,46.2-21.1c14.9-16.7,26.1-44.6,31.4-78.3
		c1.5-11.9,1.9-22.6,1.2-32l5.9-2.1c9.5-3.4,15.3-12.7,14.7-22.3l4.7-1.7c1.4-0.5,1.9-3.5,1-6.9C718.6,134,744.4,131.9,770.3,130.5z
		 M555.1,167.3c5.2-27.5,19.5-45,35-45c13.5,0,18.1,11.8,18.1,22.9c0,27.5-17.2,59.1-39.3,59.1c-8,0-14.3-2.6-18.9-6.9L555.1,167.3z
		 M472.4,206.8c-3.6-26.2,2.8-45.5,20.1-60.8c7.5-6.8,17.1-12.9,28.6-18.3l0.3-0.1c-1.1,6.7-2.1,13.2-3.2,18.8l-21.3,113
		C483.7,244.1,475.5,226.4,472.4,206.8z M664.1,205.8c-5.3,33.4-16.2,60.8-30.9,77.3c-14.6,17.1-32.7,23-58.7,19.3
		c-14.7-2.7-28.6-7.5-41.2-14.1l-0.8-0.6l11.2-57.7h0.6c4.9,3,14.6,5.6,26.1,5.6c48.8,0,81.2-44.8,81.2-93.5c0-2.6-0.1-5.3-0.4-7.8
		l0.6,0.7C664.2,150.5,668.2,173.1,664.1,205.8z"/>
	<path class="st0" d="M905.8,426.1c-5.8-6.7-12.1-14.1-14.2-23c-2.2-9.2,1-17,8.8-22.2c5.3-3.5,11.2-6.2,15.3-11.3
		c8.1-10,5.3-24.5-2-34.1c-7.8-10.2-20.1-14.8-32.2-18.1c0.8-2.5,0.8-4.6-0.3-5.2l-4.3-2.7c1.5-8.9-2.7-18.2-11-23.1l-7.2-4.1
		l-4.7,8.2l-13.6-7.9c-1.5-0.8-3.7-0.4-4.6,1.2c-0.9,1.6-0.2,3.8,1.2,4.6l13.6,7.9l-6.1,10.5l-13.9-8l-2.9,5l2.9-5.1
		c-1.1-0.6-3.7-0.4-4.6,1.2c-0.9,1.6,0.2,4,1.2,4.6l0.3-0.5l13.9,8l-4.9,8.5l7.2,4.1c8.5,4.9,18.9,3.8,25.9-2.3l3.7,2.3
		c1,0.7,3.1-0.3,4.9-2.2c13.2,3.5,27.4,8.4,33.7,21.2c3,6.2,4.1,14.1,0.4,20.2c-3.7,6.2-11,8.8-16.6,12.8
		c-29.8,21.4,8.3,57.9,25.5,72.9c2.9,2.5,7.2-1.7,4.2-4.2C918.4,439.6,911.9,433.1,905.8,426.1z"/>
	<path class="st0" d="M1244.5,322.3c-7.4-9.1-18.7-14.3-29.8-17.3c-8-2.1-16.3-3.3-24.5-3.5c-9.9-0.3-19.5-2.9-29-5.7
		c-30.6-9.1-60.2-21.8-89.3-34.8c-10.4-4.6-20.4-9.8-31.6-12.1c-27.4-5.7-55.1,0.3-82.3,4.1c-32.6,4.7-67,4.1-98.3-7.1
		c-14.7-5.3-27.5-14.7-42.4-19.6c-12.7-4.1-26.1-5.4-39.4-5.3c-0.3-2.8-1.4-4.9-2.7-5l-5-0.4c-2.7-8.7-10.7-15-20.3-15.5l-8.3-0.4
		l-0.5,9.4l-15.7-0.8c-1.7-0.1-3.4,1.3-3.5,3.2c-0.1,1.9,1.5,3.5,3.2,3.5l15.7,0.8l-0.6,12.1l-16-0.8l0,0c-1.2-0.1-3.4,1.3-3.5,3.2
		c-0.1,1.9,2,3.5,3.2,3.5l0.3-4.9l-0.2,4.3l16,0.8l-0.5,9.8l8.3,0.4c9.8,0.5,18.5-5.2,22-13.8l4.4,0.4c1.2,0.1,2.5-1.5,3.3-4
		c12.4-0.1,24.8,1,36.7,4.6c13,3.9,24.1,11.8,36.5,17.1c24.6,10.6,52.6,13.9,79.2,13c28.2-0.9,55.6-8.9,83.8-9.2
		c13.5-0.2,27.3,1.4,39.9,6.6c3.2,1.3,6.3,2.9,9.4,4.4c25.7,11.7,51.8,22.8,78.4,32.2c13.6,4.8,27.6,9.6,41.9,11.4
		c5.7,0.7,11.4,0.5,17,1.3c11.6,1.5,23.8,4.8,33.4,11.9c13.3,10,15.3,25.8,11.3,41.1c-1,3.7,4.8,5.3,5.8,1.6
		C1254.4,348.9,1254,333.9,1244.5,322.3z"/>
</g>
</svg>
