<?xml version="1.0" encoding="utf-8"?>
<!-- Generator: Adobe Illustrator 19.2.1, SVG Export Plug-In . SVG Version: 6.00 Build 0)  -->
<svg version="1.1" xmlns="http://www.w3.org/2000/svg" xmlns:xlink="http://www.w3.org/1999/xlink" x="0px" y="0px"
	 viewBox="0 0 7000 4400" style="enable-background:new 0 0 7000 4400;" xml:space="preserve">
<style type="text/css">
	.st0{fill:#444444;}
	.st1{display:none;fill:#888888;}
	.st2{fill:#888888;}
	.st3{opacity:0.1;}
	.st4{fill:#A5A5A5;}
	.st5{fill:#FFFFFF;}
	.st6{fill:#D4021D;}
	.st7{clip-path:url(#SVGID_2_);}
	.st8{fill:url(#SVGID_3_);}
	.st9{fill:url(#SVGID_4_);}
	.st10{fill:url(#SVGID_5_);}
	.st11{opacity:0.7;}
	.st12{fill:url(#SVGID_6_);}
	.st13{opacity:0.6;fill:#606060;}
	.st14{fill:#6AA2E5;}
	.st15{fill:#397EE2;}
	.st16{fill:#E2E2B5;}
	.st17{fill:#D0D389;}
	.st18{fill:#A4AFDD;}
	.st19{fill:#7684CE;}
	.st20{fill:#D2E298;}
	.st21{fill:#B7D36A;}
	.st22{fill:#CAF29C;}
	.st23{fill:#B8EA7D;}
	.st24{fill:#8BD5F2;}
	.st25{fill:#59BDEF;}
	.st26{fill:#3860A0;}
	.st27{fill:#303235;}
	.st28{fill:#154E6B;}
	.st29{fill:#726F62;}
	.st30{fill:#33322E;}
	.st31{fill:#1D2D44;}
	.st32{fill:#333333;}
	.st33{opacity:0.6;fill:#FFFFFF;}
	.st34{opacity:0.3;}
	.st35{opacity:0.7;fill:#FFFFFF;}
	.st36{opacity:0.3;fill:#FFFFFF;}
	.st37{fill:#666666;}
	.st38{clip-path:url(#SVGID_8_);}
	.st39{fill:url(#SVGID_9_);}
	.st40{fill:url(#SVGID_10_);}
	.st41{fill:url(#SVGID_11_);}
	.st42{fill:url(#SVGID_12_);}
	.st43{opacity:0.15;fill:#FFFFFF;}
	.st44{fill:#EAE0B7;}
	.st45{fill:#AC29CC;}
	.st46{fill:#E23969;}
	.st47{fill:#E88110;}
	.st48{fill:#F2F227;}
	.st49{fill:#53C41E;}
	.st50{fill:#5ACEED;}
	.st51{fill:#0027C9;}
	.st52{display:none;}
	.st53{display:inline;}
	.st54{fill:#D1D1D1;}
	.st55{opacity:0.8;}
</style>
<g id="macbook">
	<g>
		<path class="st0" d="M3999,78H1321c-54.5,0-99,44.9-99,99.4v1790.1c0,38.6,31.6,69.5,70.2,69.5h2735.6c38.6,0,70.2-30.9,70.2-69.5
			V177.4C4098,122.9,4053.5,78,3999,78z"/>
		<rect x="890" y="2005.7" class="st1" width="3540" height="66"/>
		<path class="st2" d="M890,2006v65.7c0,0,20.3,16.8,77.8,33.7c47.9,13.9,129.9,12.6,129.9,12.6h3124.5c0,0,82.1,1.3,129.9-12.6
			c57.5-16.8,77.8-33.7,77.8-33.7V2006H890z"/>
		<path class="st3" d="M890,2071.7c0,0,20.3,16.9,77.8,33.8c47.9,13.9,129.9,12.7,129.9,12.7h3124.5c0,0,82.1,1.2,129.9-12.7
			c57.5-16.8,77.8-33.8,77.8-33.8H890z"/>
		<path class="st4" d="M2872.8,2047.7h-212.7h-215c0,0-13.7-2.2-23.4-16.3c-9.3-13.7-8-25.7-8-25.7h246.4h246.4
			c0,0-1.8,17.4-11.3,28.2C2884.6,2045.6,2872.8,2047.7,2872.8,2047.7z"/>
	</g>
	<rect x="1310" y="198" class="st5" width="2700" height="1688"/>
	<g>
		<path class="st6" d="M2546.6,870.5c-28.8,13.1-53.4,28.7-72.3,45.8c-44.8,39.7-58,88-49.6,149.6c7.9,49.5,29.3,93.5,60.6,129.9
			c0,0,0.7,0.4,0.6,0.3l52.3-276.9C2540.9,904.7,2546.6,870.5,2546.6,870.5 M2756.4,916.3c0-27.1-11.1-55.6-43.8-55.6
			c-37.5,0-72.3,42.4-84.8,109.1l-12.5,72.9c11.1,10.4,26.4,16.7,45.8,16.7C2714.7,1059.5,2756.4,983,2756.4,916.3 M2860.8,886.8
			c-1.2-1.4-0.8-0.8-0.8-0.8c0.9,7.4,1.4,15,1.4,22.7c0,118.2-78.5,226.6-196.7,226.6c-27.8,0-51.4-6.9-63.3-13.9l-1.2-0.7
			l-27.8,143.6l1,0.8c30.6,16.1,64.6,27.9,100.8,34.6c64,9.1,108.3-5.3,144.4-47.7c36.4-40.8,62.7-107.8,75.4-188.5
			C2903.6,985.4,2895.1,926.9,2860.8,886.8"/>
	</g>
</g>
<g id="webshop_macbook">
	<g id="bg">
		<g>
			<defs>
				<rect id="SVGID_1_" x="1310" y="341" width="2700" height="1545"/>
			</defs>
			<clipPath id="SVGID_2_">
				<use xlink:href="#SVGID_1_"  style="overflow:visible;"/>
			</clipPath>
			<g class="st7">
				<linearGradient id="SVGID_3_" gradientUnits="userSpaceOnUse" x1="2651.5" y1="195" x2="2651.5" y2="1890">
					<stop  offset="0" style="stop-color:#B0DFEC"/>
					<stop  offset="0.5665" style="stop-color:#FFFFFF"/>
				</linearGradient>
				<rect x="1178" y="195" class="st8" width="2947" height="1695"/>
				<linearGradient id="SVGID_4_" gradientUnits="userSpaceOnUse" x1="2651.5" y1="614.5332" x2="2651.5" y2="1829.8594">
					<stop  offset="0" style="stop-color:#A6D6EB"/>
					<stop  offset="0.5665" style="stop-color:#FFFFFF"/>
				</linearGradient>
				<path class="st9" d="M1178,1811.2l2947,18.7V729.3c-18-9.2-37.6-18.3-57.3-23.9c-20.2-8.1-46.3-4-66.5-14.1
					c-32.3-18.2-40.3-60.6-76.7-76.7c-12.1,48.5-98.9,107-149.4,94.9c-36.3-10.1-90.8-14.1-102.9-2c-15.1,10.7-46.4,84.8-84.8,100.9
					c-34.3,16.2-78.7-8.1-113.1,0c-24.2,4-48.5,16.2-72.7,22.2c-30.3,8.1-48.5,16.2-74.7-2c-18.2-10.1-48.5-48.5-72.7-50.5
					c-10.1-2-27.8,12.1-37.9,16.2c-32.3,10.1-71.5,14.1-102.5,10.1v-4c-42,0-75.2-6.1-107.5-28.3c-40.4-24.2-54.7-22.2-95.1,2
					c-24.2,12.1-46.6,18.2-68.8,30.3c-20.2,10.1-24.3,22.2-46.5,26.2c-18.2,2-42.4,0-58.6-4c-36.3-10.1-48.5-44.4-86.8-28.3
					c-54.5,26.2-88.8,88.8-145.4,109c-36.3,14.1-62.6-10.1-98.9-6.1c-14.1,2-26.2,16.2-40.4,14.1c-10.1-2-26.2-18.2-36.3-24.2
					c-38.4-22.2-75.2-33.3-103-66.6c-23.1-27.7-26.2-32.3-64.6-10.1c-48.5,28.3-48.5,0-94.9-6.1c-34.3-4-50.5,34.3-76.7,56.5
					c-20.2,20.2-74.7,74.7-100.9,80.8c-44.4,10.1-66.6-58.5-94.9-78.7c-16.2-12.1-50.5-20.2-70.7-20.2c-28.3,0-52.5,22.2-78.7,16.2
					c-34.3-6.1-46.4-26.2-84.8-18.2c-34.3,6.1-76.7,14.1-115.1-2c4-30.3-66.6-80.8-94.9-80.8c-20.2,0-48.5,12.1-70.7,14.1
					c-33.2,2.3-67.7-0.6-102-1.7V1811.2z"/>
				<linearGradient id="SVGID_5_" gradientUnits="userSpaceOnUse" x1="2651.5" y1="812.2738" x2="2651.5" y2="1890">
					<stop  offset="0" style="stop-color:#7DCAE4"/>
					<stop  offset="0.7718" style="stop-color:#FFFFFF"/>
				</linearGradient>
				<path class="st10" d="M4125,812.3c-2-0.1-4.4-0.1-6.8,0c-30.3,0-80.6,8.1-108.9,18.2c-32.3,12.1-64.5,44.4-92.8,66.6
					c-34.3,26.2-46.4,26.2-82.7,10.1c-48.5-24.2-86.8-34.3-141.3-20.2c-38.4,12.1-60.6,48.5-105,52.5c-54.5,4-105-38.4-155.4-28.3
					c-18.2,2-30.3,16.2-52.5,16.2c-46.4,2-84.8-34.3-125.2-50.5c-44.4-18.2-54.5-42.4-94.9-10.1c-32.3,26.2-62.6,48.5-98.9,66.6
					c-24.2,10.1-46.4,18.2-68.6,30.3c-26.2,16.2-22.2,36.3-44.4,54.5c-34.3,26.2-52.5,66.6-86.8,92.9
					c-36.3,28.3-50.5-10.1-76.7-32.3c-30.3-24.2-52.5-46.4-88.8-54.5c-12.1-2-26.2,0-38.4-4c-26.2-10.1-50.5-49.5-62.6-52.5
					c-7.1-5-42.4,11.1-66.6,24.2c-53.5-34.3-111,56.5-177.7,46.4l-2-2c-38.4-16.2-88.8,2-127.2,12.1c-38.4,10.1-34.3,46.4-72.7,42.4
					c-38.4-4-16.2-28.3-46.4-46.4c-14.1-10.1-64.6-14.1-80.8-10.1c-14.1,2-10.1,14.1-24.2,12.1c-10.1-2-50.5-27.6-50.5-27.6
					s-16.1,11.4-42.4,25.6c-56.5,36.3-161.5,107-226.1,48.5c-32.3-30.3-26.2-54.5-76.7-62.6c-36.3-6.1-56.5-14.1-86.8-34.3
					c-14.1-10.1-38.4-32.3-52.5-32.3c-16.2,0-32.3,18.2-48.5,20.2c-50.5,8.1-52.5-24.2-82.8-40.4c-14.1-8.1-36.3-8.1-52.5-18.2
					c-22.2-12.1-10.1-20.2-42.4-16.2c-19.9,3.2-39,10.7-57.5,20.2V1890h2947V812.3z"/>
				<g class="st11">
					<linearGradient id="SVGID_6_" gradientUnits="userSpaceOnUse" x1="2651.5" y1="1228.2139" x2="2651.5" y2="1890">
						<stop  offset="0" style="stop-color:#06A8CF"/>
						<stop  offset="0.4904" style="stop-color:#06A6CF"/>
						<stop  offset="0.667" style="stop-color:#059FCD"/>
						<stop  offset="0.793" style="stop-color:#0494CA"/>
						<stop  offset="0.8947" style="stop-color:#0383C6"/>
						<stop  offset="0.9809" style="stop-color:#016DC0"/>
						<stop  offset="1" style="stop-color:#0067BF"/>
					</linearGradient>
					<path class="st12" d="M4125,1228.2c-30,0.8-60.8,0-91.6,0c-64.6,0-108.9,12.1-169.5,32.3c-86.8,28.3-175.6,46.4-260.4,74.7
						c-56.5,20.2-117.1,20.2-169.6,38.4c-44.4,14.1-58.5-8.1-98.9-20.2c-80.8-26.2-171.6,12.1-254.4,12.1c-107,0-220-44.4-325-74.7
						c-72.7-22.2-135.3-34.3-214-32.3c-66.6,2-105,40.4-163.5,58.5c-44.4,14.1-98.9,24.2-143.3,12.1c-26.2-8.1-46.4-10.1-74.7-10.1
						c-32.3,0-50.5,12.1-80.8,20.2c-40.4,8.1-117.1,12.1-155.5-2s-50.5-22.2-94.9-28.3c-20.2-4-48.5-28.3-68.6-26.2
						c-2.1,0.4-50.5,28.8-78.7,36.3c-48.5,14.1-119.1,4-169.6,4c-74.7,2-98.9,2-169.6,24.2c-42.5,14.2-104-21.2-164.5-41.4v584h2947
						V1228.2z"/>
				</g>
			</g>
		</g>
	</g>
	<rect id="container" x="1542" y="341" class="st13" width="2235" height="1545"/>
	<g id="items">
		<rect x="3335" y="461" class="st5" width="412" height="399"/>
		<rect x="2892" y="461" class="st5" width="413" height="399"/>
		<rect x="2450" y="461" class="st5" width="412" height="399"/>
		<rect x="2007" y="461" class="st5" width="413" height="399"/>
		<rect x="3335" y="860" width="412" height="96"/>
		<rect x="2892" y="860" width="413" height="96"/>
		<rect x="2450" y="860" width="412" height="96"/>
		<rect x="2007" y="860" width="413" height="96"/>
		<g>
			<g>
				<path class="st14" d="M2164,494.5c11.9-3.6,14.4,4.3,21.2,11.9c7.5,9,13.7,18.3,25.1,23c9.3,4,21.2,4,30.9,0.7
					c18-6.5,29.1-19.8,44.5-30.5c5.4-3.9,8.3-6.1,11.9,0.4c4.3,8.3,4.7,18,4.7,26.9c0.4,25.9-4.7,52.8-18.3,75.4
					c-8.6,14-28.7,21.2-43.8,24.8c-15.1,3.9-34.5,6.5-47-4.7c-33-27.7-30.9-72.5-30.9-111.7L2164,494.5z"/>
			</g>
			<g>
				<path class="st15" d="M2321.3,803.3c16.5-54.6,12.9-113.5,26.6-168.8l4.3-5.7c17.2,0.7,43.8,0.7,49.6-19.4l1.1-9.7
					c-3.6-23-6.5-46-15.1-66.8l-4.3-12.9c-6.8-4.7-17.2-9-25.9-11.9c-19.4-5-46.3-16.5-67.2-17.2l-2.9,4.3
					c-6.5,20.1-8.6,40.2-24.4,56.7c-9.3,10.1-26.6,24.4-40.9,22.3c-30.9-5-42.4-51.7-48.1-76.9l-6.1-7.5
					c-33.4,5.4-73.3,14-99.5,27.7l-10.1,12.2c-6.5,20.8-12.2,45.2-13.6,67.5l4.2,16.5c10.8,10.8,28,17.2,43,18v15.8
					c0,41.7,0.8,84.8,5.8,125.7c1.4,12.2,2.9,26.6,6.5,38.8l22.6,6.5c32.3,7.2,107.4,10.1,140.4,8.6c13.6-0.7,34.1,1.8,47-5.4
					L2321.3,803.3z"/>
			</g>
		</g>
		<g>
			<path class="st16" d="M3612.5,595l-1.4-99c0,0-14.2,37.8-58.2,37.8c-44,0-59.2-37.6-59.2-37.6l0.6,98.8H3612.5z"/>
			<path class="st17" d="M3645.6,607.7c-8.3-17.3-11.7-44.9-13.1-58.7c-1.4-13.8,1.4-48.4,1.4-48.4l-22.8-4.8c0,0-4.8,42.8-9.7,54.6
				c-4.8,11.7-13.1,29.7-24.2,33.2c-11.1,3.5-24.9,2.8-24.9,2.8s-13.8,0.7-24.9-2.8c-11.1-3.5-19.3-21.4-24.2-33.2
				c-4.8-11.7-9.7-54.6-9.7-54.6l-22.8,4.8c0,0,2.8,34.5,1.4,48.4c-1.4,13.8-4.8,41.4-13.1,58.7c-8.3,17.3-20,29-20,29l12.4,184.4
				c0,0,34.5,9.7,49.7,11.7c15.2,2.1,51.1,2.1,51.1,2.1s35.9,0,51.1-2.1c15.2-2.1,49.7-11.7,49.7-11.7l12.4-184.4
				C3665.7,636.7,3653.9,624.9,3645.6,607.7z"/>
		</g>
		<rect x="3335" y="978" class="st5" width="412" height="399"/>
		<rect x="2892" y="978" class="st5" width="413" height="399"/>
		<rect x="2450" y="978" class="st5" width="412" height="399"/>
		<rect x="2007" y="978" class="st5" width="413" height="399"/>
		<rect x="3335" y="1377" width="412" height="96"/>
		<rect x="2892" y="1377" width="413" height="96"/>
		<rect x="2450" y="1377" width="412" height="96"/>
		<rect x="2007" y="1377" width="413" height="96"/>
		<g>
			<g>
				<path class="st18" d="M2598.2,498.2c11.9-3.6,14.4,4.3,21.2,11.9c7.5,9,13.7,18.3,25.1,23c9.3,4,21.2,4,30.9,0.7
					c18-6.5,29.1-19.8,44.5-30.5c5.4-3.9,8.3-6.1,11.9,0.4c4.3,8.3,4.7,18,4.7,26.9c0.4,25.9-4.7,52.8-18.3,75.4
					c-8.6,14-28.7,21.2-43.8,24.8c-15.1,3.9-34.5,6.5-47-4.7c-33-27.7-30.9-72.5-30.9-111.7L2598.2,498.2z"/>
			</g>
			<g>
				<path class="st19" d="M2755.5,807.1c16.5-54.6,12.9-113.5,26.6-168.8l4.3-5.7c17.2,0.7,43.8,0.7,49.6-19.4l1.1-9.7
					c-3.6-23-6.5-46-15.1-66.8l-4.3-12.9c-6.8-4.7-17.2-9-25.9-11.9c-19.4-5-46.3-16.5-67.2-17.2l-2.9,4.3
					c-6.5,20.1-8.6,40.2-24.4,56.7c-9.3,10.1-26.6,24.4-40.9,22.3c-30.9-5-42.4-51.7-48.1-76.9l-6.1-7.5
					c-33.4,5.4-73.3,14-99.5,27.7l-10.1,12.2c-6.5,20.8-12.2,45.2-13.6,67.5l4.1,16.5c10.8,10.8,27.9,17.2,42.9,18v15.8
					c0,41.7,0.9,84.8,5.9,125.7c1.4,12.2,3,26.6,6.6,38.8l22.7,6.5c32.3,7.2,107.4,10.1,140.4,8.6c13.6-0.7,34.1,1.8,47.1-5.4
					L2755.5,807.1z"/>
			</g>
		</g>
		<g>
			<g>
				<path class="st20" d="M3038.5,498.2c11.9-3.6,14.4,4.3,21.2,11.9c7.5,9,13.7,18.3,25.1,23c9.3,4,21.2,4,30.9,0.7
					c18-6.5,29.1-19.8,44.5-30.5c5.4-3.9,8.3-6.1,11.9,0.4c4.3,8.3,4.7,18,4.7,26.9c0.4,25.9-4.7,52.8-18.3,75.4
					c-8.6,14-28.7,21.2-43.8,24.8c-15.1,3.9-34.5,6.5-47-4.7c-33-27.7-30.9-72.5-30.9-111.7L3038.5,498.2z"/>
			</g>
			<g>
				<path class="st21" d="M3195.8,807.1c16.5-54.6,12.9-113.5,26.6-168.8l4.3-5.7c17.2,0.7,43.8,0.7,49.6-19.4l1.1-9.7
					c-3.6-23-6.5-46-15.1-66.8l-4.3-12.9c-6.8-4.7-17.2-9-25.9-11.9c-19.4-5-46.3-16.5-67.2-17.2l-2.9,4.3
					c-6.5,20.1-8.6,40.2-24.4,56.7c-9.3,10.1-26.6,24.4-40.9,22.3c-30.9-5-42.4-51.7-48.1-76.9l-6.1-7.5
					c-33.4,5.4-73.3,14-99.5,27.7l-10.1,12.2c-6.5,20.8-12.2,45.2-13.6,67.5l4.5,16.5c10.8,10.8,28.3,17.2,43.3,18v15.8
					c0,41.7,0.5,84.8,5.6,125.7c1.4,12.2,2.8,26.6,6.4,38.8l22.6,6.5c32.3,7.2,107.4,10.1,140.4,8.6c13.6-0.7,34.1,1.8,47-5.4
					L3195.8,807.1z"/>
			</g>
		</g>
		<g>
			<path class="st22" d="M2723.7,1109l-1.4-99.1c0,0-14.2,37.8-58.2,37.8c-44,0-59.2-37.6-59.2-37.6l0.6,98.9H2723.7z"/>
			<path class="st23" d="M2756.9,1121.4c-8.3-17.3-11.7-44.9-13.1-58.7c-1.4-13.8,1.4-48.4,1.4-48.4l-22.8-4.8
				c0,0-4.8,42.8-9.7,54.6c-4.8,11.7-13.1,29.7-24.2,33.2c-11.1,3.5-24.9,2.8-24.9,2.8s-13.8,0.7-24.9-2.8
				c-11.1-3.5-19.3-21.4-24.2-33.2c-4.8-11.7-9.7-54.6-9.7-54.6l-22.8,4.8c0,0,2.8,34.5,1.4,48.4c-1.4,13.8-4.8,41.4-13.1,58.7
				c-8.3,17.3-20,29-20,29l12.4,184.4c0,0,34.5,9.7,49.7,11.7c15.2,2.1,51.1,2.1,51.1,2.1s35.9,0,51.1-2.1s49.7-11.7,49.7-11.7
				l12.4-184.4C2776.9,1150.4,2765.2,1138.7,2756.9,1121.4z"/>
		</g>
		<g>
			<path class="st24" d="M2279,1109l-1.4-99.1c0,0-14.2,37.8-58.2,37.8c-44,0-59.2-37.6-59.2-37.6l0.6,98.9H2279z"/>
			<path class="st25" d="M2312.1,1121.4c-8.3-17.3-11.7-44.9-13.1-58.7c-1.4-13.8,1.4-48.4,1.4-48.4l-22.8-4.8
				c0,0-4.8,42.8-9.7,54.6c-4.8,11.7-13.1,29.7-24.2,33.2c-11.1,3.5-24.9,2.8-24.9,2.8s-13.8,0.7-24.9-2.8
				c-11.1-3.5-19.3-21.4-24.2-33.2c-4.8-11.7-9.7-54.6-9.7-54.6l-22.8,4.8c0,0,2.8,34.5,1.4,48.4c-1.4,13.8-4.8,41.4-13.1,58.7
				c-8.3,17.3-20,29-20,29l12.4,184.4c0,0,34.5,9.7,49.7,11.7c15.2,2.1,51.1,2.1,51.1,2.1s35.9,0,51.1-2.1s49.7-11.7,49.7-11.7
				l12.4-184.4C2332.2,1150.4,2320.4,1138.7,2312.1,1121.4z"/>
		</g>
		<path class="st26" d="M3627.3,1008.4c0,0-18.5,2.3-36.8,3.8c-31.8,2.7-46.1,1.1-46.1,1.1s-14.3,1.6-46.1-1.1
			c-18.2-1.6-36.8-3.8-36.8-3.8l-43.3,345.1l60.9,3.3l65.3-253l65.3,253l60.9-3.3L3627.3,1008.4z"/>
		<path class="st27" d="M3186.3,1008.4c0,0-18.5,2.3-36.8,3.8c-31.8,2.7-46.1,1.1-46.1,1.1s-14.3,1.6-46.1-1.1
			c-18.2-1.6-36.8-3.8-36.8-3.8l-43.3,345.1l60.9,3.3l65.3-253l65.3,253l60.9-3.3L3186.3,1008.4z"/>
		<rect x="3335" y="1496" class="st5" width="412" height="391"/>
		<rect x="2892" y="1496" class="st5" width="413" height="391"/>
		<rect x="2450" y="1496" class="st5" width="412" height="391"/>
		<rect x="2007" y="1496" class="st5" width="413" height="391"/>
		<path class="st28" d="M3166,1729v15h88v-18.8l-3.3-0.2c0,0,3.2-20.9,3.2-40.5c0-19.6-12.1-42-12.1-42s-23.3,10.1-47.3,10.1
			c-24,0-56.4-16-56.4-16s-11,4-24.9,12.2c-13.9,8.2-36.4,23.1-50.9,33c-12,8.3-36.4,18.9-63.9,23.9c-16.8,3-56.6,3.7-56.3,23.9
			c0,1.4,0,6.3,0,6.3h-4.2v8c0,0,82.8,0,117.1,0c34.3,0,79.2-11.3,87.5-12.2C3150.9,1730.8,3166,1729,3166,1729z"/>
		<path class="st29" d="M3606,1729v15h88v-18.8l-3.1-0.2c0,0,3.3-20.9,3.3-40.5c0-19.6-12-42-12-42s-23.3,10.1-47.3,10.1
			c-24,0-56.4-16-56.4-16s-11,4-24.9,12.2c-13.9,8.2-36.4,23.1-50.9,33c-12,8.3-36.4,18.9-63.9,23.9c-16.8,3-56.6,3.7-56.3,23.9
			c0,1.4,0,6.3,0,6.3h-4.4v8c0,0,83,0,117.3,0c34.3,0,79.1-11.3,87.4-12.2C3591,1730.8,3606,1729,3606,1729z"/>
		<path class="st30" d="M2725,1729v15h88v-18.8l-3.3-0.2c0,0,3.2-20.9,3.2-40.5c0-19.6-12.1-42-12.1-42s-23.3,10.1-47.3,10.1
			c-24,0-56.4-16-56.4-16s-11,4-24.9,12.2c-13.9,8.2-36.4,23.1-50.9,33c-12,8.3-36.4,18.9-63.9,23.9c-16.8,3-56.6,3.7-56.3,23.9
			c0,1.4,0,6.3,0,6.3h-4.2v8c0,0,82.8,0,117.1,0c34.3,0,79.2-11.3,87.5-12.2C2709.9,1730.8,2725,1729,2725,1729z"/>
		<path class="st31" d="M2299.1,1524.4c0,0-18.5,2.3-36.8,3.8c-31.8,2.7-46.1,1.1-46.1,1.1s-14.3,1.6-46.1-1.1
			c-18.2-1.6-36.8-3.8-36.8-3.8l-43.3,345.1l60.9,3.3l65.3-253l65.3,253l60.9-3.3L2299.1,1524.4z"/>
	</g>
	<g id="sidebar">
		<rect x="1572" y="520" class="st5" width="405" height="766"/>
		<rect x="1572" y="461" class="st32" width="405" height="60"/>
		<rect x="1595" y="479" class="st33" width="180" height="23"/>
		<rect x="1595" y="551" class="st34" width="247" height="22"/>
		<rect x="1595" y="656" class="st34" width="225" height="22"/>
		<rect x="1595" y="708" class="st34" width="300" height="23"/>
		<rect x="1595" y="761" class="st34" width="247" height="22"/>
		<rect x="1595" y="603" class="st34" width="180" height="23"/>
		<rect x="1595" y="813" class="st34" width="247" height="23"/>
		<rect x="1595" y="918" class="st34" width="225" height="23"/>
		<rect x="1595" y="971" class="st34" width="300" height="22"/>
		<rect x="1595" y="1023" class="st34" width="247" height="23"/>
		<rect x="1595" y="866" class="st34" width="180" height="22"/>
		<rect x="1595" y="1076" class="st34" width="247" height="23"/>
		<rect x="1595" y="1181" class="st34" width="225" height="23"/>
		<rect x="1595" y="1234" class="st34" width="300" height="22"/>
		<rect x="1595" y="1129" class="st34" width="180" height="22"/>
		<rect x="1572" y="1367" class="st5" width="405" height="519"/>
		<rect x="1572" y="1308" class="st32" width="405" height="60"/>
		<rect x="1595" y="1327" class="st33" width="180" height="22"/>
		<rect x="1595" y="1398" class="st34" width="22" height="23"/>
		<rect x="1640" y="1398" class="st34" width="228" height="23"/>
		<rect x="1595" y="1451" class="st34" width="22" height="22"/>
		<rect x="1640" y="1451" class="st34" width="228" height="22"/>
		<rect x="1595" y="1503" class="st34" width="22" height="23"/>
		<rect x="1640" y="1503" class="st34" width="228" height="23"/>
		<rect x="1595" y="1556" class="st34" width="22" height="22"/>
		<rect x="1640" y="1556" class="st34" width="228" height="22"/>
		<rect x="1595" y="1616" class="st34" width="22" height="22"/>
		<rect x="1640" y="1616" class="st34" width="228" height="22"/>
		<rect x="1595" y="1668" class="st34" width="22" height="23"/>
		<rect x="1640" y="1668" class="st34" width="228" height="23"/>
		<rect x="1595" y="1721" class="st34" width="22" height="22"/>
		<rect x="1640" y="1721" class="st34" width="228" height="22"/>
		<rect x="1595" y="1773" class="st34" width="22" height="23"/>
		<rect x="1640" y="1773" class="st34" width="228" height="23"/>
		<rect x="1595" y="1833" class="st34" width="22" height="23"/>
		<rect x="1640" y="1833" class="st34" width="228" height="23"/>
	</g>
	<g id="horizontal_bar">
		<rect x="1572" y="363" class="st32" width="2175" height="75"/>
		<rect x="1595" y="386" class="st33" width="210" height="30"/>
		<rect x="3698" y="386" class="st33" width="30" height="30"/>
		<rect x="3649" y="386" class="st33" width="30" height="30"/>
		<rect x="3600" y="386" class="st33" width="30" height="30"/>
	</g>
	<g id="header_1_">
		<rect x="1310" y="198" width="2700" height="143"/>
		<rect x="1887" y="258" class="st35" width="122" height="32"/>
		<rect x="2085" y="258" class="st35" width="159" height="32"/>
		<rect x="2706" y="258" class="st35" width="159" height="32"/>
		<rect x="3433" y="258" class="st35" width="339" height="32"/>
		<rect x="2319" y="258" class="st35" width="114" height="32"/>
		<rect x="2500" y="258" class="st35" width="137" height="32"/>
		<g>
			<g>
				<circle class="st6" cx="1577.9" cy="311.5" r="6.7"/>
				<circle class="st6" cx="1631.5" cy="311.5" r="6.7"/>
				<path class="st6" d="M1647.6,236c-0.6-0.8-1.6-1-2.6-1H1564l-3-11.2c-0.4-1.5-1.7-2.8-3.2-2.8h-13.4c-1.9,0-3.4,1.1-3.4,3
					s1.5,3,3.4,3h10.8l19.4,71.4c0.4,1.5,1.7,2.6,3.2,2.6h53.6c1.9,0,3.4-1.6,3.4-3.5c0-1.8-1.5-3.5-3.4-3.5h-51.1l-5.5-21h61.6
					c1.5,0,2.9-0.2,3.3-1.7l8.4-33C1648.4,237.3,1648.2,236.8,1647.6,236z"/>
			</g>
			<g>
				<g>
					<path class="st5" d="M1668.2,240.9c0-9.2,4.8-14.5,13.3-14.5c8,0,12.6,5.1,12.6,13.9c0,9.2-4.9,14.5-13.4,14.5
						C1672.8,254.8,1668.2,249.7,1668.2,240.9z M1673.4,240.7c0,6.5,2.7,9.9,7.6,9.9c5.1,0,7.9-3.6,7.9-10.2c0-6.5-2.7-10-7.6-10
						C1676.1,230.5,1673.4,234,1673.4,240.7z"/>
					<path class="st5" d="M1717.4,240.9v13.4h-5.1v-12.9c0-2.1-0.9-3.2-2.9-3.2c-1.6,0-3.2,0.9-5.1,2.3v13.9h-5v-20.1h4.8l0,2.1
						c2.5-1.7,4.7-2.5,7.1-2.5C1715.2,233.7,1717.4,236,1717.4,240.9z"/>
					<path class="st5" d="M1724.2,224.2h5v30.1h-5V224.2z"/>
					<path class="st5" d="M1735.6,227.7c0-1.7,1.2-2.9,3-2.9c1.9,0,3.1,1.2,3.1,2.9c0,1.8-1.2,2.9-3.1,2.9
						C1736.8,230.6,1735.6,229.4,1735.6,227.7z M1736.2,234.1h5v20.1h-5V234.1z"/>
					<path class="st5" d="M1766.3,240.9v13.4h-5.1v-12.9c0-2.1-0.9-3.2-2.9-3.2c-1.6,0-3.2,0.9-5.1,2.3v13.9h-5v-20.1h4.8l0,2.1
						c2.5-1.7,4.7-2.5,7.1-2.5C1764.1,233.7,1766.3,236,1766.3,240.9z"/>
					<path class="st5" d="M1788.5,245.1h-12.4c0.3,3.7,1.8,5.9,5.4,5.9c2.1,0,4-0.6,5.9-1.3l0.9,3.5c-2.1,1-4.5,1.6-7.2,1.6
						c-6.2,0-9.6-3.8-9.6-10.6c0-6.8,3.4-10.6,9.3-10.6c5.1,0,7.9,3.1,7.9,8.7C1788.7,243.1,1788.6,244.1,1788.5,245.1z
						 M1776.2,241.7h8.3c0-2.9-1.5-4.4-3.8-4.4C1778.2,237.4,1776.6,238.8,1776.2,241.7z"/>
				</g>
				<g>
					<path class="st5" d="M1690,273c-2.2-1-5.6-1.8-8.3-1.8c-3.7,0-5.7,1.7-5.7,4.2c0,3.4,3.3,4.8,7,6.5c3.9,1.7,10,4.2,10,11.8
						c0,7-5.1,10.5-13.5,10.5c-4.2,0-8-0.9-11.3-2.2l1.9-5.7c2.8,1.2,6.3,2.4,9.6,2.4c3.9,0,6.2-1.6,6.2-4.6c0-3.6-3.3-5.2-7-6.8
						c-4.4-2-10-4.5-10-11.5c0-6.5,4.6-10.1,12.5-10.1c3.7,0,7.4,0.8,10.2,1.9L1690,273z"/>
					<path class="st5" d="M1723.9,285.4v18.2h-6.8v-17.5c0-2.8-1.3-4.4-4-4.4c-2.1,0-4.3,1.2-6.9,3.1v18.8h-6.8v-40.8h6.8V279
						c3.3-2.2,6.1-3.3,9.3-3.3C1720.9,275.8,1723.9,278.8,1723.9,285.4z"/>
					<path class="st5" d="M1757.7,289.6c0,9.3-5,14.7-13.5,14.7c-8.3,0-13.1-5.3-13.1-14.3c0-9,5.1-14.3,13.6-14.3
						C1752.9,275.6,1757.7,280.8,1757.7,289.6z M1738,289.7c0,6,2.4,9.3,6.6,9.3c3.9,0,6.2-3.3,6.2-9.2c0-5.7-2.3-9-6.4-9
						S1738,284,1738,289.7z"/>
					<path class="st5" d="M1790.2,289.7c0,9.2-4.9,14.7-13.3,14.7c-2.1,0-3.3-0.4-4.7-0.8v13.9h-6.8v-40.2c3.1-0.9,7.3-1.7,11-1.7
						C1785.5,275.6,1790.2,280.5,1790.2,289.7z M1783.2,290c0-5.8-2.3-8.9-7.2-8.9c-1.1,0-2.6,0.2-3.9,0.6v16.2
						c1.2,0.6,2.8,0.9,4.3,0.9C1780.8,298.8,1783.2,295.6,1783.2,290z"/>
				</g>
			</g>
		</g>
	</g>
</g>
<g id="lighten_macbook">
	<path class="st36" d="M4086.3,2006c7.2-11,11.7-24.4,11.7-38.5V177.4c0-54.5-44.5-99.4-99-99.4H1321c-54.5,0-99,44.9-99,99.4
		v1790.1c0,14.1,4.5,27.5,11.7,38.5H890v65.7c0,0,20.3,16.8,77.8,33.7c47.9,13.9,129.9,12.6,129.9,12.6h3124.5
		c0,0,82.1,1.3,129.9-12.6c57.5-16.8,77.8-33.7,77.8-33.7V2006H4086.3z"/>
</g>
<g id="ipad">
	<g>
		<path class="st0" d="M5767.3,926.6H4337.7c-36,0-65.5,29.5-65.5,65.5v2036.3c0,36,29.5,65.5,65.5,65.5h1429.6
			c36,0,65.5-29.5,65.5-65.5V992.1C5832.8,956,5803.3,926.6,5767.3,926.6z"/>
		<g>
			<circle class="st37" cx="5053.6" cy="1000.1" r="9.8"/>
		</g>
		<g>
			<path class="st5" d="M5764.8,2943.5c0,0.8-0.6,1.4-1.4,1.4H4343.8c-0.8,0-1.4-0.6-1.4-1.4V1081.1c0-0.8,0.6-1.4,1.4-1.4h1419.6
				c0.8,0,1.4,0.6,1.4,1.4V2943.5z"/>
		</g>
		<g>
			<path class="st37" d="M5052.5,2976.5c-22.7,0-41.1,18.4-41.1,41.1c0,22.7,18.4,41.2,41.1,41.2c22.7,0,41.1-18.4,41.1-41.2
				C5093.6,2995,5075.2,2976.5,5052.5,2976.5z"/>
		</g>
		<g>
			<path class="st6" d="M4919.7,1756.4c-36.1,16.4-67,36-90.7,57.5c-56.2,49.8-72.7,110.4-62.1,187.5c9.8,62,36.7,117.2,76,162.9
				c0,0,0.9,0.5,0.7,0.3l65.5-347.2C4912.6,1799.3,4919.7,1756.4,4919.7,1756.4 M5182.7,1813.9c0-34-14-69.7-54.9-69.7
				c-47,0-90.6,53.2-106.3,136.8l-15.7,91.5c13.9,13.1,33.1,20.9,57.5,20.9C5130.5,1993.3,5182.7,1897.5,5182.7,1813.9
				 M5313.6,1776.9c-1.5-1.8-1.1-1-1.1-1c1.1,9.3,1.8,18.8,1.8,28.5c0,148.1-98.5,284-246.6,284c-34.9,0-64.5-8.7-79.3-17.4
				l-1.5-0.8l-34.9,180.1l1.3,1c38.4,20.2,81,35,126.4,43.4c80.2,11.4,135.8-6.7,181-59.8c45.7-51.2,78.6-135.1,94.6-236.3
				C5367.3,1900.5,5356.6,1827.1,5313.6,1776.9"/>
		</g>
	</g>
</g>
<g id="webshop_ipad">
	<g id="bg_Kopie">
		<g>
			<defs>
				<rect id="SVGID_7_" x="4342.4" y="1079.7" width="1422.4" height="1865.2"/>
			</defs>
			<clipPath id="SVGID_8_">
				<use xlink:href="#SVGID_7_"  style="overflow:visible;"/>
			</clipPath>
			<g class="st38">
				<linearGradient id="SVGID_9_" gradientUnits="userSpaceOnUse" x1="5110.5" y1="1148" x2="5110.5" y2="2953">
					<stop  offset="0" style="stop-color:#B0DFEC"/>
					<stop  offset="0.5665" style="stop-color:#FFFFFF"/>
				</linearGradient>
				<rect x="3541" y="1148" class="st39" width="3139" height="1805"/>
				<linearGradient id="SVGID_10_" gradientUnits="userSpaceOnUse" x1="5110.5" y1="1593.9873" x2="5110.5" y2="2888.2803">
					<stop  offset="0" style="stop-color:#A6D6EB"/>
					<stop  offset="0.5665" style="stop-color:#FFFFFF"/>
				</linearGradient>
				<path class="st40" d="M3541,2868.4l3139,19.9V1716.2c-20.2-9.8-40.4-19.5-61.4-25.5c-21.5-8.6-49.5-4.3-71-15
					c-34.4-19.3-43-64.5-81.7-81.7c-12.9,51.6-105.4,113.9-159.1,101c-38.7-10.8-96.7-15-109.7-2.1c-16.1,11.4-49.5,90.3-90.3,107.5
					c-36.6,17.2-83.9-8.6-120.4,0c-25.8,4.3-51.6,17.2-77.4,23.7c-32.2,8.6-51.6,17.2-79.6-2.2c-19.3-10.8-51.6-51.6-77.4-53.8
					c-10.8-2.1-29.3,12.9-40.1,17.2c-34.4,10.8-75.9,15-108.9,10.8v-4.3c-44.2,0-80.3-6.4-114.7-30.1c-43-25.8-58.4-23.7-101.4,2.1
					c-25.8,12.9-49.6,19.4-73.3,32.3c-21.5,10.8-25.9,23.7-49.5,28c-19.4,2.1-45.2,0-62.4-4.3c-38.7-10.8-51.6-47.3-92.5-30.1
					c-58,28-94.6,94.6-154.8,116.1c-38.7,15.1-66.7-10.8-105.4-6.5c-15.1,2.2-28,17.2-43,15.1c-10.8-2.1-28-19.3-38.7-25.8
					c-40.9-23.7-80.1-35.5-109.7-71c-24.6-29.5-28-34.4-68.8-10.8c-51.6,30.1-51.6,0-101.1-6.5c-36.6-4.3-53.8,36.6-81.7,60.2
					c-21.5,21.5-79.6,79.6-107.5,86c-47.3,10.7-71-62.4-101.1-83.9c-17.2-12.9-53.8-21.5-75.2-21.5c-30.1,0-55.9,23.6-83.9,17.2
					c-36.5-6.5-49.4-28-90.3-19.4c-36.6,6.5-81.7,15-122.5-2.2c4.3-32.2-71-86-101.1-86c-21.5,0-51.4,12.9-75.1,15
					c-35.3,2.4-72.4-0.6-108.4-1.8V2868.4z"/>
				<linearGradient id="SVGID_11_" gradientUnits="userSpaceOnUse" x1="5110.5" y1="1804.5757" x2="5110.5" y2="2953">
					<stop  offset="0" style="stop-color:#7DCAE4"/>
					<stop  offset="0.7718" style="stop-color:#FFFFFF"/>
				</linearGradient>
				<path class="st41" d="M6680,1804.7c-3.8-0.1-5.1-0.1-7.7,0c-32.2,0-86.1,8.6-116.2,19.4c-34.4,12.9-68.8,47.3-98.9,71
					c-36.5,28-49.5,28-88.2,10.8c-51.6-25.8-92.5-36.6-150.5-21.5c-40.8,12.9-64.5,51.6-111.8,55.9c-58.1,4.3-111.8-40.9-165.6-30.1
					c-19.3,2.2-32.3,17.2-55.9,17.2c-49.5,2.1-90.3-36.5-133.3-53.8c-47.3-19.4-58-45.1-101.1-10.8c-34.4,28-66.7,51.6-105.4,70.9
					c-25.8,10.8-49.5,19.4-73.1,32.3c-27.9,17.2-23.6,38.7-47.3,58.1c-36.5,27.9-55.9,71-92.5,98.9c-38.7,30.1-53.8-10.8-81.7-34.4
					c-32.2-25.8-55.9-49.5-94.6-58.1c-12.9-2.1-27.9,0-40.9-4.3c-28-10.7-53.8-52.7-66.7-55.9c-7.5-5.4-45.1,11.8-71,25.8
					c-57-36.6-118.2,60.2-189.2,49.4l-2.2-2.1c-40.9-17.2-94.6,2.1-135.5,12.9c-40.8,10.7-36.5,49.5-77.4,45.1
					c-40.8-4.3-17.2-30.1-49.5-49.4c-15-10.8-68.8-15.1-86-10.8c-15,2.1-10.8,15-25.8,12.9c-10.8-2.2-53.8-29.4-53.8-29.4
					s-17.2,12.2-45.2,27.2c-60.2,38.7-172,113.9-240.8,51.6c-34.4-32.2-27.9-58.1-81.7-66.7c-38.7-6.5-60.2-15-92.5-36.6
					c-15.1-10.8-40.8-34.4-55.9-34.4c-17.2,0-34.4,19.4-51.6,21.5c-53.8,8.6-55.9-25.8-88.2-43c-15-8.6-38.7-8.6-55.9-19.3
					c-23.7-12.9-10.6-21.5-45-17.2c-21.2,3.4-41.1,11.4-61.1,21.5V2953h3139V1804.7z"/>
				<g class="st11">
					<linearGradient id="SVGID_12_" gradientUnits="userSpaceOnUse" x1="5110.5" y1="2247.542" x2="5110.5" y2="2953">
						<stop  offset="0" style="stop-color:#06A8CF"/>
						<stop  offset="0.4904" style="stop-color:#06A6CF"/>
						<stop  offset="0.667" style="stop-color:#059FCD"/>
						<stop  offset="0.793" style="stop-color:#0494CA"/>
						<stop  offset="0.8947" style="stop-color:#0383C6"/>
						<stop  offset="0.9809" style="stop-color:#016DC0"/>
						<stop  offset="1" style="stop-color:#0067BF"/>
					</linearGradient>
					<path class="st42" d="M6680,2247.5c-33,0.8-65.2,0-98,0c-68.8,0-116.2,12.9-180.7,34.4c-92.5,30.1-187.1,49.5-277.4,79.6
						c-60.2,21.5-124.7,21.5-180.6,40.8c-47.3,15.1-62.4-8.6-105.4-21.5c-86-28-182.8,12.9-270.9,12.9
						c-113.9,0-234.4-47.3-346.2-79.5c-77.4-23.7-144.1-36.6-227.9-34.4c-71,2.1-111.8,43-174.2,62.4
						c-47.3,15-105.3,25.8-152.7,12.9c-28-8.6-49.5-10.8-79.6-10.8c-34.4,0-53.7,12.9-86,21.5c-43,8.6-124.7,12.9-165.5-2.2
						c-40.8-15-53.8-23.6-101.1-30.1c-21.5-4.3-51.6-30.1-73.1-27.9c-2.3,0.4-53.7,30.7-83.8,38.7c-51.6,15-126.9,4.3-180.6,4.3
						c-79.6,2.2-105.2,2.2-180.4,25.8c-45.2,15.1-111.1-22.6-175.1-44.1V2953h3139V2247.5z"/>
				</g>
			</g>
		</g>
	</g>
	<rect id="container_1_" x="4374" y="1215" class="st13" width="1357" height="1730"/>
	<g id="items_Kopie">
		<rect x="4404" y="1853" class="st5" width="412" height="399"/>
		<rect x="5289" y="1335" class="st5" width="412" height="399"/>
		<rect x="4846" y="1335" class="st5" width="413" height="399"/>
		<rect x="4404" y="1335" class="st5" width="412" height="399"/>
		<rect x="4404" y="2252" width="412" height="96"/>
		<rect x="5289" y="1734" width="412" height="96"/>
		<rect x="4846" y="1734" width="413" height="96"/>
		<rect x="4404" y="1734" width="412" height="96"/>
		<g>
			<g>
				<path class="st14" d="M4562.1,1369c11.9-3.6,14.4,4.3,21.2,11.9c7.5,9,13.7,18.3,25.1,23c9.3,4,21.2,4,30.9,0.7
					c18-6.5,29.1-19.8,44.5-30.5c5.4-3.9,8.3-6.1,11.9,0.4c4.3,8.3,4.7,18,4.7,26.9c0.4,25.9-4.7,52.8-18.3,75.4
					c-8.6,14-28.7,21.2-43.8,24.8c-15.1,3.9-34.5,6.5-47-4.7c-33-27.7-30.9-72.5-30.9-111.7L4562.1,1369z"/>
			</g>
			<g>
				<path class="st15" d="M4719.4,1677.8c16.5-54.6,12.9-113.5,26.6-168.8l4.3-5.7c17.2,0.7,43.8,0.7,49.6-19.4l1.1-9.7
					c-3.6-23-6.5-46-15.1-66.8l-4.3-12.9c-6.8-4.7-17.2-9-25.9-11.9c-19.4-5-46.3-16.5-67.2-17.2l-2.9,4.3
					c-6.5,20.1-8.6,40.2-24.4,56.7c-9.3,10.1-26.6,24.4-40.9,22.3c-30.9-5-42.4-51.7-48.1-76.9l-6.1-7.5
					c-33.4,5.4-73.3,14-99.5,27.7l-10.1,12.2c-6.5,20.8-12.2,45.2-13.6,67.5l4.2,16.5c10.8,10.8,28,17.2,43,18v15.8
					c0,41.7,0.9,84.8,5.9,125.7c1.4,12.2,2.9,26.6,6.5,38.8l22.7,6.5c32.3,7.2,107.4,10.1,140.4,8.6c13.6-0.7,34.1,1.8,47.1-5.4
					L4719.4,1677.8z"/>
			</g>
		</g>
		<g>
			<path class="st16" d="M4683.1,1987l-1.4-99c0,0-14.2,37.8-58.2,37.8c-44,0-59.2-37.6-59.2-37.6l0.6,98.8H4683.1z"/>
			<path class="st17" d="M4716.3,1999.7c-8.3-17.3-11.7-44.9-13.1-58.7c-1.4-13.8,1.4-48.4,1.4-48.4l-22.8-4.8
				c0,0-4.8,42.8-9.7,54.6c-4.8,11.7-13.1,29.7-24.2,33.2c-11.1,3.5-24.9,2.8-24.9,2.8s-13.8,0.7-24.9-2.8
				c-11.1-3.5-19.3-21.4-24.2-33.2c-4.8-11.7-9.7-54.6-9.7-54.6l-22.8,4.8c0,0,2.8,34.5,1.4,48.4c-1.4,13.8-4.8,41.4-13.1,58.7
				c-8.3,17.3-20,29-20,29l12.4,184.4c0,0,34.5,9.7,49.7,11.7c15.2,2.1,51.1,2.1,51.1,2.1s35.9,0,51.1-2.1
				c15.2-2.1,49.7-11.7,49.7-11.7l12.4-184.4C4736.3,2028.7,4724.5,2016.9,4716.3,1999.7z"/>
		</g>
		<rect x="4847" y="2370" class="st5" width="412" height="399"/>
		<rect x="4404" y="2370" class="st5" width="413" height="399"/>
		<rect x="5289" y="1853" class="st5" width="412" height="399"/>
		<rect x="4846" y="1853" class="st5" width="413" height="399"/>
		<rect x="4847" y="2769" width="412" height="96"/>
		<rect x="5289" y="2769" width="412" height="96"/>
		<rect x="4404" y="2769" width="413" height="96"/>
		<rect x="5289" y="2252" width="412" height="96"/>
		<rect x="4846" y="2252" width="413" height="96"/>
		<g>
			<g>
				<path class="st18" d="M4996.3,1372.7c11.9-3.6,14.4,4.3,21.2,11.9c7.5,9,13.7,18.3,25.1,23c9.3,4,21.2,4,30.9,0.7
					c18-6.5,29.1-19.8,44.5-30.5c5.4-3.9,8.3-6.1,11.9,0.4c4.3,8.3,4.7,18,4.7,26.9c0.4,25.9-4.7,52.8-18.3,75.4
					c-8.6,14-28.7,21.2-43.8,24.8c-15.1,3.9-34.5,6.5-47-4.7c-33-27.7-30.9-72.5-30.9-111.7L4996.3,1372.7z"/>
			</g>
			<g>
				<path class="st19" d="M5153.6,1681.6c16.5-54.6,12.9-113.5,26.6-168.8l4.3-5.7c17.2,0.7,43.8,0.7,49.6-19.4l1.1-9.7
					c-3.6-23-6.5-46-15.1-66.8l-4.3-12.9c-6.8-4.7-17.2-9-25.9-11.9c-19.4-5-46.3-16.5-67.2-17.2l-2.9,4.3
					c-6.5,20.1-8.6,40.2-24.4,56.7c-9.3,10.1-26.6,24.4-40.9,22.3c-30.9-5-42.4-51.7-48.1-76.9l-6.1-7.5
					c-33.4,5.4-73.3,14-99.5,27.7l-10.1,12.2c-6.5,20.8-12.2,45.2-13.6,67.5l4.5,16.5c10.8,10.8,27.3,17.2,43.3,18v15.8
					c0,41.7,0.5,84.8,5.5,125.7c1.4,12.2,2.8,26.6,6.3,38.8l22.6,6.5c32.3,7.2,107.4,10.1,140.4,8.6c13.6-0.7,34.1,1.8,47-5.4
					L5153.6,1681.6z"/>
			</g>
		</g>
		<g>
			<g>
				<path class="st20" d="M5436.6,1372.7c11.9-3.6,14.4,4.3,21.2,11.9c7.5,9,13.7,18.3,25.1,23c9.3,4,21.2,4,30.9,0.7
					c18-6.5,29.1-19.8,44.5-30.5c5.4-3.9,8.3-6.1,11.9,0.4c4.3,8.3,4.7,18,4.7,26.9c0.4,25.9-4.7,52.8-18.3,75.4
					c-8.6,14-28.7,21.2-43.8,24.8c-15.1,3.9-34.5,6.5-47-4.7c-33-27.7-30.9-72.5-30.9-111.7L5436.6,1372.7z"/>
			</g>
			<g>
				<path class="st21" d="M5593.9,1681.6c16.5-54.6,12.9-113.5,26.6-168.8l4.3-5.7c17.2,0.7,43.8,0.7,49.6-19.4l1.1-9.7
					c-3.6-23-6.5-46-15.1-66.8l-4.3-12.9c-6.8-4.7-17.2-9-25.9-11.9c-19.4-5-46.3-16.5-67.2-17.2l-2.9,4.3
					c-6.5,20.1-8.6,40.2-24.4,56.7c-9.3,10.1-26.6,24.4-40.9,22.3c-30.9-5-42.4-51.7-48.1-76.9l-6.1-7.5
					c-33.4,5.4-73.3,14-99.5,27.7l-10.1,12.2c-6.5,20.8-12.2,45.2-13.6,67.5l4.4,16.5c10.8,10.8,28.2,17.2,43.2,18v15.8
					c0,41.7,0.6,84.8,5.6,125.7c1.4,12.2,2.8,26.6,6.4,38.8l22.6,6.5c32.3,7.2,107.4,10.1,140.4,8.6c13.6-0.7,34.1,1.8,47-5.4
					L5593.9,1681.6z"/>
			</g>
		</g>
		<g>
			<path class="st22" d="M5564.3,1983l-1.4-98.9c0,0-14.2,37.9-58.2,37.9c-44,0-59.2-37.7-59.2-37.7l0.6,98.7H5564.3z"/>
			<path class="st23" d="M5597.5,1995.9c-8.3-17.3-11.7-44.9-13.1-58.7c-1.4-13.8,1.4-48.4,1.4-48.4l-22.8-4.8
				c0,0-4.8,42.8-9.7,54.6c-4.8,11.7-13.1,29.7-24.2,33.2c-11.1,3.5-24.9,2.8-24.9,2.8s-13.8,0.7-24.9-2.8
				c-11.1-3.5-19.3-21.4-24.2-33.2c-4.8-11.7-9.7-54.6-9.7-54.6l-22.8,4.8c0,0,2.8,34.5,1.4,48.4c-1.4,13.8-4.8,41.4-13.1,58.7
				c-8.3,17.3-20,29-20,29l12.4,184.4c0,0,34.5,9.7,49.7,11.7c15.2,2.1,51.1,2.1,51.1,2.1s35.9,0,51.1-2.1s49.7-11.7,49.7-11.7
				l12.4-184.4C5617.5,2024.9,5605.8,2013.2,5597.5,1995.9z"/>
		</g>
		<g>
			<path class="st24" d="M5119.6,1983l-1.4-98.9c0,0-14.2,37.9-58.2,37.9c-44,0-59.2-37.7-59.2-37.7l0.6,98.7H5119.6z"/>
			<path class="st25" d="M5152.8,1995.9c-8.3-17.3-11.7-44.9-13.1-58.7c-1.4-13.8,1.4-48.4,1.4-48.4l-22.8-4.8
				c0,0-4.8,42.8-9.7,54.6c-4.8,11.7-13.1,29.7-24.2,33.2c-11.1,3.5-24.9,2.8-24.9,2.8s-13.8,0.7-24.9-2.8
				c-11.1-3.5-19.3-21.4-24.2-33.2c-4.8-11.7-9.7-54.6-9.7-54.6l-22.8,4.8c0,0,2.8,34.5,1.4,48.4c-1.4,13.8-4.8,41.4-13.1,58.7
				c-8.3,17.3-20,29-20,29l12.4,184.4c0,0,34.5,9.7,49.7,11.7c15.2,2.1,51.1,2.1,51.1,2.1s35.9,0,51.1-2.1
				c15.2-2.1,49.7-11.7,49.7-11.7l12.4-184.4C5172.8,2024.9,5161,2013.2,5152.8,1995.9z"/>
		</g>
		<path class="st26" d="M5141.2,2400.4c0,0-18.5,2.3-36.8,3.8c-31.8,2.7-46.1,1.1-46.1,1.1s-14.3,1.6-46.1-1.1
			c-18.2-1.6-36.8-3.8-36.8-3.8l-43.3,345.1l60.9,3.3l65.3-253l65.3,253l60.9-3.3L5141.2,2400.4z"/>
		<path class="st27" d="M4700.2,2400.4c0,0-18.5,2.3-36.8,3.8c-31.8,2.7-46.1,1.1-46.1,1.1s-14.3,1.6-46.1-1.1
			c-18.2-1.6-36.8-3.8-36.8-3.8l-43.3,345.1l60.9,3.3l65.3-253l65.3,253l60.9-3.3L4700.2,2400.4z"/>
		<rect x="5289" y="2888" class="st5" width="412" height="57"/>
		<rect x="4846" y="2888" class="st5" width="413" height="57"/>
		<rect x="4404" y="2888" class="st5" width="412" height="57"/>
		<rect x="5289" y="2370" class="st5" width="412" height="399"/>
		<path class="st31" d="M5581.4,2398.9c0,0-18.5,2.3-36.8,3.8c-31.8,2.7-46.1,1.1-46.1,1.1s-14.3,1.6-46.1-1.1
			c-18.2-1.6-36.8-3.8-36.8-3.8l-43.3,345.1l60.9,3.3l65.3-253l65.3,253l60.9-3.3L5581.4,2398.9z"/>
	</g>
	<g id="horizontal_bar_Kopie">
		<rect x="4403" y="1241" class="st32" width="1297" height="75"/>
		<rect x="4425" y="1263" class="st33" width="210" height="30"/>
		<rect x="5649" y="1263" class="st33" width="30" height="30"/>
		<rect x="5596" y="1263" class="st33" width="30" height="30"/>
		<rect x="5544" y="1263" class="st33" width="30" height="30"/>
	</g>
	<g id="header_Kopie">
		<rect x="4342" y="1079" width="1423" height="143"/>
		<rect x="4390" y="1136" class="st35" width="54" height="31"/>
		<rect x="5657" y="1136" class="st35" width="54" height="31"/>
		<g>
			<g>
				<circle class="st6" cx="4955.1" cy="1193.5" r="6.7"/>
				<circle class="st6" cx="5008.8" cy="1193.5" r="6.7"/>
				<path class="st6" d="M5024.8,1118c-0.6-0.8-1.6-1-2.6-1h-80.9l-3-11.2c-0.4-1.5-1.7-2.8-3.2-2.8h-13.4c-1.9,0-3.4,1.1-3.4,3
					c0,1.9,1.5,3,3.4,3h10.8l19.4,71.4c0.4,1.5,1.7,2.6,3.2,2.6h53.6c1.9,0,3.4-1.6,3.4-3.5c0-1.8-1.5-3.5-3.4-3.5h-51.1l-5.5-21
					h61.6c1.5,0,2.9-0.2,3.2-1.7l8.4-33C5025.7,1119.3,5025.5,1118.8,5024.8,1118z"/>
			</g>
			<g>
				<g>
					<path class="st5" d="M5045.4,1122.9c0-9.2,4.8-14.5,13.3-14.5c8,0,12.6,5.1,12.6,13.9c0,9.2-4.9,14.5-13.4,14.5
						C5050,1136.8,5045.4,1131.7,5045.4,1122.9z M5050.6,1122.7c0,6.5,2.7,9.9,7.6,9.9c5.1,0,7.9-3.6,7.9-10.2c0-6.5-2.7-10-7.6-10
						C5053.4,1112.5,5050.6,1116,5050.6,1122.7z"/>
					<path class="st5" d="M5094.7,1122.9v13.4h-5.1v-12.9c0-2.1-0.9-3.2-2.9-3.2c-1.6,0-3.2,0.9-5.1,2.3v13.9h-5v-20.1h4.8l0,2.1
						c2.5-1.7,4.7-2.5,7.1-2.5C5092.5,1115.7,5094.7,1118,5094.7,1122.9z"/>
					<path class="st5" d="M5101.4,1106.2h5v30.1h-5V1106.2z"/>
					<path class="st5" d="M5112.9,1109.7c0-1.7,1.2-2.9,3-2.9c1.9,0,3.1,1.2,3.1,2.9c0,1.8-1.2,2.9-3.1,2.9
						C5114.1,1112.6,5112.9,1111.4,5112.9,1109.7z M5113.4,1116.1h5v20.1h-5V1116.1z"/>
					<path class="st5" d="M5143.5,1122.9v13.4h-5.1v-12.9c0-2.1-0.9-3.2-2.9-3.2c-1.6,0-3.2,0.9-5.1,2.3v13.9h-5v-20.1h4.8l0,2.1
						c2.5-1.7,4.7-2.5,7.1-2.5C5141.3,1115.7,5143.5,1118,5143.5,1122.9z"/>
					<path class="st5" d="M5165.7,1127.1h-12.4c0.3,3.7,1.8,5.9,5.4,5.9c2.1,0,4-0.6,5.9-1.3l0.9,3.5c-2.1,1-4.5,1.6-7.2,1.6
						c-6.2,0-9.6-3.8-9.6-10.6s3.4-10.6,9.3-10.6c5.1,0,7.9,3.1,7.9,8.7C5166,1125.1,5165.9,1126.1,5165.7,1127.1z M5153.4,1123.7
						h8.3c0-2.9-1.5-4.4-3.8-4.4C5155.4,1119.4,5153.9,1120.8,5153.4,1123.7z"/>
				</g>
				<g>
					<path class="st5" d="M5067.3,1155c-2.2-1-5.6-1.8-8.3-1.8c-3.7,0-5.7,1.7-5.7,4.2c0,3.4,3.3,4.8,7,6.5c3.9,1.7,10,4.2,10,11.8
						c0,7-5.1,10.5-13.5,10.5c-4.2,0-8-0.9-11.3-2.2l1.9-5.7c2.8,1.2,6.3,2.4,9.6,2.4c3.9,0,6.2-1.6,6.2-4.6c0-3.6-3.3-5.2-7-6.8
						c-4.4-2-10-4.5-10-11.5c0-6.5,4.6-10.1,12.5-10.1c3.7,0,7.4,0.8,10.2,1.9L5067.3,1155z"/>
					<path class="st5" d="M5101.1,1167.4v18.2h-6.8v-17.5c0-2.8-1.3-4.4-4-4.4c-2.1,0-4.3,1.2-6.9,3.1v18.8h-6.8v-40.8h6.8v16.2
						c3.3-2.2,6.1-3.3,9.3-3.3C5098.1,1157.8,5101.1,1160.8,5101.1,1167.4z"/>
					<path class="st5" d="M5135,1171.6c0,9.3-5,14.7-13.5,14.7c-8.3,0-13.1-5.3-13.1-14.3c0-9,5.1-14.3,13.6-14.3
						C5130.2,1157.6,5135,1162.8,5135,1171.6z M5115.3,1171.7c0,6,2.4,9.3,6.6,9.3c3.9,0,6.2-3.3,6.2-9.2c0-5.7-2.3-9-6.4-9
						C5117.6,1162.9,5115.3,1166,5115.3,1171.7z"/>
					<path class="st5" d="M5167.4,1171.7c0,9.2-4.9,14.7-13.3,14.7c-2.1,0-3.3-0.4-4.7-0.8v13.9h-6.8v-40.2c3.1-0.9,7.3-1.7,11-1.7
						C5162.7,1157.6,5167.4,1162.5,5167.4,1171.7z M5160.4,1172c0-5.8-2.3-8.9-7.2-8.9c-1.1,0-2.6,0.2-3.9,0.6v16.2
						c1.2,0.6,2.8,0.9,4.3,0.9C5158,1180.8,5160.4,1177.6,5160.4,1172z"/>
				</g>
			</g>
		</g>
	</g>
</g>
<g id="lighten_ipad">
	<path class="st43" d="M5767.3,926.6H4337.7c-36,0-65.5,29.5-65.5,65.5v2036.3c0,36,29.5,65.5,65.5,65.5h1429.6
		c36,0,65.5-29.5,65.5-65.5V992.1C5832.8,956,5803.3,926.6,5767.3,926.6z"/>
</g>
<g id="color_pallete">
	<g>
		<g>
			<g>
				<path class="st44" d="M3460,3076.4c-45-325-304.4-623.9-569.4-788.9c-585-375-1447.2-262.4-1822.1-112.5
					c-336.9,134.7-644.9,387.4-749.9,592.4c-135,270-96.1,580.2-13.6,749c81.1,165.8,266,295.8,456,270.8
					c198.1-26.1,364.4,35.9,419.9,202.5c67.5,202.5,277.4,314.9,607.4,314.9c397.4,0,1027.2-17.4,1372.2-367.4
					C3390.5,3707.1,3500,3386.4,3460,3076.4z M1611.3,4098.9c-134.6,0-243.8-109.1-243.8-243.8s109.1-243.8,243.8-243.8
					s243.8,109.1,243.8,243.8S1745.9,4098.9,1611.3,4098.9z"/>
			</g>
		</g>
		<circle class="st45" cx="673.8" cy="3345.2" r="221.3"/>
		<circle class="st46" cx="771.3" cy="2767.7" r="221.3"/>
		<circle class="st47" cx="1288.8" cy="2475.2" r="221.3"/>
		<circle class="st48" cx="1888.8" cy="2385.2" r="221.3"/>
		<circle class="st49" cx="2473.8" cy="2490.2" r="221.3"/>
		<circle class="st50" cx="2938.8" cy="2835.2" r="221.3"/>
		<circle class="st51" cx="3088.8" cy="3360.2" r="221.3"/>
	</g>
</g>
<g id="ruler" class="st52">
	<g class="st53">
		<rect x="3511" y="588" class="st54" width="3290" height="400"/>
		<rect x="3551" y="588" class="st55" width="10" height="100"/>
		<rect x="3651" y="588" class="st55" width="10" height="33"/>
		<rect x="3851" y="588" class="st55" width="10" height="33"/>
		<rect x="3951" y="588" class="st55" width="10" height="66"/>
		<rect x="3751" y="588" class="st55" width="10" height="33"/>
		<rect x="4051" y="588" class="st55" width="10" height="33"/>
		<rect x="4251" y="588" class="st55" width="10" height="33"/>
		<rect x="4351" y="588" class="st55" width="10" height="100"/>
		<rect x="4151" y="588" class="st55" width="10" height="33"/>
		<rect x="4451" y="588" class="st55" width="10" height="33"/>
		<rect x="4651" y="588" class="st55" width="10" height="33"/>
		<rect x="4751" y="588" class="st55" width="10" height="66"/>
		<rect x="4551" y="588" class="st55" width="10" height="33"/>
		<rect x="4851" y="588" class="st55" width="10" height="33"/>
		<rect x="5051" y="588" class="st55" width="10" height="33"/>
		<rect x="5151" y="588" class="st55" width="10" height="100"/>
		<rect x="4951" y="588" class="st55" width="10" height="33"/>
		<rect x="5251" y="588" class="st55" width="10" height="33"/>
		<rect x="5451" y="588" class="st55" width="10" height="33"/>
		<rect x="5551" y="588" class="st55" width="10" height="66"/>
		<rect x="5351" y="588" class="st55" width="10" height="33"/>
		<rect x="5651" y="588" class="st55" width="10" height="33"/>
		<rect x="5851" y="588" class="st55" width="10" height="33"/>
		<rect x="5951" y="588" class="st55" width="10" height="100"/>
		<rect x="5751" y="588" class="st55" width="10" height="33"/>
		<rect x="6051" y="588" class="st55" width="10" height="33"/>
		<rect x="6251" y="588" class="st55" width="10" height="33"/>
		<rect x="6351" y="588" class="st55" width="10" height="66"/>
		<rect x="6151" y="588" class="st55" width="10" height="33"/>
		<rect x="6451" y="588" class="st55" width="10" height="33"/>
		<rect x="6651" y="588" class="st55" width="10" height="33"/>
		<rect x="6751" y="588" class="st55" width="10" height="100"/>
		<rect x="6551" y="588" class="st55" width="10" height="33"/>
		<rect x="4331" y="698" class="st34" width="50" height="30"/>
		<rect x="3533" y="698" class="st34" width="50" height="30"/>
		<rect x="5133" y="698" class="st34" width="50" height="30"/>
		<rect x="5932" y="698" class="st34" width="50" height="30"/>
		<rect x="6733" y="698" class="st34" width="50" height="30"/>
	</g>
</g>
<g id="ruler_Kopie">
	<g>
		<rect x="6206" y="840" class="st44" width="400" height="3290"/>
		<rect x="6206" y="4080" class="st55" width="100" height="10"/>
		<rect x="6206" y="3980" class="st55" width="33" height="10"/>
		<rect x="6206" y="3780" class="st55" width="33" height="10"/>
		<rect x="6206" y="3680" class="st55" width="66" height="10"/>
		<rect x="6206" y="3880" class="st55" width="33" height="10"/>
		<rect x="6206" y="3580" class="st55" width="33" height="10"/>
		<rect x="6206" y="3380" class="st55" width="33" height="10"/>
		<rect x="6206" y="3280" class="st55" width="100" height="10"/>
		<rect x="6206" y="3480" class="st55" width="33" height="10"/>
		<rect x="6206" y="3180" class="st55" width="33" height="10"/>
		<rect x="6206" y="2980" class="st55" width="33" height="10"/>
		<rect x="6206" y="2880" class="st55" width="66" height="10"/>
		<rect x="6206" y="3080" class="st55" width="33" height="10"/>
		<rect x="6206" y="2780" class="st55" width="33" height="10"/>
		<rect x="6206" y="2580" class="st55" width="33" height="10"/>
		<rect x="6206" y="2480" class="st55" width="100" height="10"/>
		<rect x="6206" y="2680" class="st55" width="33" height="10"/>
		<rect x="6206" y="2380" class="st55" width="33" height="10"/>
		<rect x="6206" y="2180" class="st55" width="33" height="10"/>
		<rect x="6206" y="2080" class="st55" width="66" height="10"/>
		<rect x="6206" y="2280" class="st55" width="33" height="10"/>
		<rect x="6206" y="1980" class="st55" width="33" height="10"/>
		<rect x="6206" y="1780" class="st55" width="33" height="10"/>
		<rect x="6206" y="1680" class="st55" width="100" height="10"/>
		<rect x="6206" y="1880" class="st55" width="33" height="10"/>
		<rect x="6206" y="1580" class="st55" width="33" height="10"/>
		<rect x="6206" y="1380" class="st55" width="33" height="10"/>
		<rect x="6206" y="1280" class="st55" width="66" height="10"/>
		<rect x="6206" y="1480" class="st55" width="33" height="10"/>
		<rect x="6206" y="1180" class="st55" width="33" height="10"/>
		<rect x="6206" y="980" class="st55" width="33" height="10"/>
		<rect x="6206" y="880" class="st55" width="100" height="10"/>
		<rect x="6206" y="1080" class="st55" width="33" height="10"/>
		<rect x="6316" y="3260" class="st34" width="30" height="50"/>
		<rect x="6316" y="4058" class="st34" width="30" height="50"/>
		<rect x="6316" y="2458" class="st34" width="30" height="50"/>
		<rect x="6316" y="1659" class="st34" width="30" height="50"/>
		<rect x="6316" y="858" class="st34" width="30" height="50"/>
	</g>
</g>
</svg>
