<?xml version="1.0" encoding="utf-8"?>
<!-- Generator: Adobe Illustrator 19.2.1, SVG Export Plug-In . SVG Version: 6.00 Build 0)  -->
<svg version="1.1" xmlns="http://www.w3.org/2000/svg" xmlns:xlink="http://www.w3.org/1999/xlink" x="0px" y="0px"
	 viewBox="0 0 7000 4400" style="enable-background:new 0 0 7000 4400;" xml:space="preserve">
<style type="text/css">
	.st0{fill:#444444;}
	.st1{display:none;fill:#888888;}
	.st2{fill:#888888;}
	.st3{opacity:0.1;}
	.st4{fill:#A5A5A5;}
	.st5{fill:#FFFFFF;}
	.st6{fill:#D4021D;}
	.st7{opacity:0.15;fill:#FFFFFF;}
	.st8{fill:#E0E0E0;}
	.st9{fill:url(#SVGID_1_);}
	.st10{fill:#4CAD33;}
	.st11{display:none;}
	.st12{display:inline;fill:#00BC00;}
	.st13{fill-rule:evenodd;clip-rule:evenodd;fill:#4CAD33;}
</style>
<g id="macbook">
	<g>
		<path class="st0" d="M4839,2308H2161c-54.5,0-99,44.9-99,99.4v1790.1c0,38.6,31.6,69.5,70.2,69.5h2735.6
			c38.6,0,70.2-30.9,70.2-69.5V2407.4C4938,2352.9,4893.5,2308,4839,2308z"/>
		<rect x="1730" y="4235.7" class="st1" width="3540" height="66"/>
		<path class="st2" d="M1730,4236v65.7c0,0,20.3,16.8,77.8,33.7c47.9,13.9,129.9,12.6,129.9,12.6h3124.5c0,0,82.1,1.3,129.9-12.6
			c57.5-16.8,77.8-33.7,77.8-33.7V4236H1730z"/>
		<path class="st3" d="M1730,4301.7c0,0,20.3,16.9,77.8,33.8c47.9,13.9,129.9,12.7,129.9,12.7h3124.5c0,0,82.1,1.2,129.9-12.7
			c57.5-16.8,77.8-33.8,77.8-33.8H1730z"/>
		<path class="st4" d="M3712.8,4277.7h-212.7h-215c0,0-13.7-2.2-23.4-16.3c-9.3-13.7-8-25.7-8-25.7h246.4h246.4
			c0,0-1.8,17.4-11.3,28.2C3724.6,4275.6,3712.8,4277.7,3712.8,4277.7z"/>
	</g>
	<rect x="2150" y="2428" class="st5" width="2700" height="1688"/>
	<g>
		<path class="st6" d="M3386.6,3100.5c-28.8,13.1-53.4,28.7-72.3,45.8c-44.8,39.7-58,88-49.6,149.6c7.9,49.5,29.3,93.5,60.6,129.9
			c0,0,0.7,0.4,0.6,0.3l52.3-276.9C3380.9,3134.7,3386.6,3100.5,3386.6,3100.5 M3596.4,3146.3c0-27.1-11.1-55.6-43.8-55.6
			c-37.5,0-72.3,42.4-84.8,109.1l-12.5,72.9c11.1,10.4,26.4,16.7,45.8,16.7C3554.7,3289.5,3596.4,3213,3596.4,3146.3 M3700.8,3116.8
			c-1.2-1.4-0.8-0.8-0.8-0.8c0.9,7.4,1.4,15,1.4,22.7c0,118.2-78.5,226.6-196.7,226.6c-27.8,0-51.4-6.9-63.3-13.9l-1.2-0.7
			l-27.8,143.6l1,0.8c30.6,16.1,64.6,27.9,100.8,34.6c64,9.1,108.3-5.3,144.4-47.7c36.4-40.8,62.7-107.8,75.4-188.5
			C3743.6,3215.4,3735.1,3156.9,3700.8,3116.8"/>
	</g>
</g>
<g id="lighten_macbook">
	<path class="st7" d="M4926.3,4236c7.4-11,11.7-24.2,11.7-38.5V2407.4c0-54.5-44.5-99.4-99-99.4H2161c-54.5,0-99,44.9-99,99.4
		v1790.1c0,14.3,4.3,27.5,11.7,38.5H1730v65.7c0,0,20.3,16.8,77.8,33.7c47.9,13.9,129.9,12.6,129.9,12.6h3124.5
		c0,0,82.1,1.3,129.9-12.6c57.5-16.8,77.8-33.7,77.8-33.7V4236H4926.3z"/>
</g>
<g id="store">
	<rect x="2300" y="660" class="st2" width="2400" height="1300"/>
	<rect x="2515" y="869" class="st0" width="1200" height="900"/>
	<rect x="3901" y="1060" class="st0" width="599" height="900"/>
	<g>
		<path class="st6" d="M2200,560h-200v100h0c0,0.3,0,0.7,0,1c0,55.2,44.8,100,100,100s100-44.8,100-100c0-0.3,0-0.7,0-1h0V560z"/>
		<path class="st8" d="M2400,560h-200v100h0c0,0.3,0,0.7,0,1c0,55.2,44.8,100,100,100s100-44.8,100-100c0-0.3,0-0.7,0-1h0V560z"/>
		<path class="st6" d="M2600,560h-200v100h0c0,0.3,0,0.7,0,1c0,55.2,44.8,100,100,100s100-44.8,100-100c0-0.3,0-0.7,0-1h0V560z"/>
		<path class="st8" d="M2800,560h-200v100h0c0,0.3,0,0.7,0,1c0,55.2,44.8,100,100,100s100-44.8,100-100c0-0.3,0-0.7,0-1h0V560z"/>
		<path class="st6" d="M3000,560h-200v100h0c0,0.3,0,0.7,0,1c0,55.2,44.8,100,100,100s100-44.8,100-100c0-0.3,0-0.7,0-1h0V560z"/>
		<path class="st8" d="M3200,560h-200v100h0c0,0.3,0,0.7,0,1c0,55.2,44.8,100,100,100s100-44.8,100-100c0-0.3,0-0.7,0-1h0V560z"/>
		<path class="st6" d="M3400,560h-200v100h0c0,0.3,0,0.7,0,1c0,55.2,44.8,100,100,100s100-44.8,100-100c0-0.3,0-0.7,0-1h0V560z"/>
		<path class="st8" d="M3600,560h-200v100h0c0,0.3,0,0.7,0,1c0,55.2,44.8,100,100,100s100-44.8,100-100c0-0.3,0-0.7,0-1h0V560z"/>
		<path class="st6" d="M3800,560h-200v100h0c0,0.3,0,0.7,0,1c0,55.2,44.8,100,100,100s100-44.8,100-100c0-0.3,0-0.7,0-1h0V560z"/>
		<path class="st8" d="M4000,560h-200v100h0c0,0.3,0,0.7,0,1c0,55.2,44.8,100,100,100s100-44.8,100-100c0-0.3,0-0.7,0-1h0V560z"/>
		<path class="st6" d="M4200,560h-200v100h0c0,0.3,0,0.7,0,1c0,55.2,44.8,100,100,100s100-44.8,100-100c0-0.3,0-0.7,0-1h0V560z"/>
		<path class="st8" d="M4400,560h-200v100h0c0,0.3,0,0.7,0,1c0,55.2,44.8,100,100,100s100-44.8,100-100c0-0.3,0-0.7,0-1h0V560z"/>
		<path class="st6" d="M4600,560h-200v100h0c0,0.3,0,0.7,0,1c0,55.2,44.8,100,100,100s100-44.8,100-100c0-0.3,0-0.7,0-1h0V560z"/>
		<path class="st8" d="M4800,560h-200v100h0c0,0.3,0,0.7,0,1c0,55.2,44.8,100,100,100s100-44.8,100-100c0-0.3,0-0.7,0-1h0V560z"/>
		<path class="st6" d="M5000,560h-200v100h0c0,0.3,0,0.7,0,1c0,55.2,44.8,100,100,100s100-44.8,100-100c0-0.3,0-0.7,0-1h0V560z"/>
		<polygon class="st6" points="2200,561 2000,561 2300,60 2460,60 		"/>
		<polygon class="st8" points="2400,561 2200,561 2460,60 2620,60 		"/>
		<polygon class="st6" points="2600,561 2400,561 2620,60 2780,60 		"/>
		<polygon class="st8" points="2800,561 2600,561 2780,60 2940,60 		"/>
		<polygon class="st6" points="3000,561 2800,561 2940,60 3100,60 		"/>
		<polygon class="st8" points="3200,561 3000,561 3100,60 3260,60 		"/>
		<polygon class="st6" points="3400,561 3200,561 3260,60 3420,60 		"/>
		<polygon class="st6" points="4800,561 5000,561 4700,60 4540,60 		"/>
		<polygon class="st8" points="4600,561 4800,561 4540,60 4380,60 		"/>
		<polygon class="st6" points="4400,561 4600,561 4380,60 4220,60 		"/>
		<polygon class="st8" points="4200,561 4400,561 4220,60 4060,60 		"/>
		<polygon class="st6" points="4000,561 4200,561 4060,60 3900,60 		"/>
		<polygon class="st8" points="3800,561 4000,561 3900,60 3740,60 		"/>
		<polygon class="st6" points="3600,561 3800,561 3740,60 3580,60 		"/>
		<polygon class="st8" points="3600,561 3400,561 3420,60 3580,60 		"/>
	</g>
	<linearGradient id="SVGID_1_" gradientUnits="userSpaceOnUse" x1="3500" y1="60" x2="3500" y2="561">
		<stop  offset="0" style="stop-color:#FFFFFF;stop-opacity:0.1"/>
		<stop  offset="1" style="stop-color:#FFFFFF;stop-opacity:0.3"/>
	</linearGradient>
	<polygon class="st9" points="2000,561 2300,60 4700,60 5000,561 	"/>
</g>
<g id="lighten_store">
	<path class="st7" d="M4999.4,560L4700,60h-160h-160h-160h-160h-160h-160h-160h-160h-160h-160h-160h-160h-160h-160h-160l-299.4,500
		h-0.6v100h0c0,0.3,0,0.7,0,1c0,55.2,44.8,100,100,100s100-44.8,100-100c0-0.3,0-0.7,0-1h0h0c0,0.3,0,0.7,0,1
		c0,55.2,44.8,100,100,100v1199h2400V761c55.2,0,100-44.8,100-100c0-0.3,0-0.7,0-1h0h0c0,0.3,0,0.7,0,1c0,55.2,44.8,100,100,100
		s100-44.8,100-100c0-0.3,0-0.7,0-1h0V560H4999.4z"/>
</g>
<g id="arrow">
	<g>
		<polygon class="st10" points="3075.9,2620 3362,2620 3362,2220 3638,2220 3638,2620 3924.1,2620 3500,3044.1 		"/>
		<path class="st5" d="M3628,2230v400h272l-400,400l-400-400h272v-400H3628 M3648,2210h-20h-256h-20v20v380h-252h-48.3l34.1,34.1
			l400,400l14.1,14.1l14.1-14.1l400-400l34.1-34.1H3900h-252v-380V2210L3648,2210z"/>
	</g>
</g>
<g id="puzzle_piece" class="st11">
	<path class="st12" d="M4080,1560c-55.2,0-80.6,28.2-98.3,46c-5.6,5.6-13.1,14-21.7,14c-13.1,0-20-6.9-20-20v-300
		c0-22.1-17.9-40-40-40h-300c-13.1,0-20-6.9-20-20c0-8.6,8.4-16.1,14-21.7c17.7-17.7,46-43.1,46-98.3c0-80-60-140-140-140
		s-140,60-140,140c0,55.2,28.2,80.6,46,98.3c5.6,5.6,14,13.1,14,21.7c0,13.1-6.9,20-20,20h-300c-22.1,0-40,17.9-40,40v300
		c0,13.1,6.9,20,20,20c8.6,0,16.1-8.4,21.7-14c17.7-17.7,43.1-46,98.3-46c80,0,140,60,140,140s-60,140-140,140
		c-55.2,0-80.6-28.2-98.3-46c-5.6-5.6-13.1-14-21.7-14c-13.1,0-20,6.9-20,20v300c0,22.1,17.9,40,40,40h300c13.1,0,20-6.9,20-20
		c0-8.6-8.4-16.1-14-21.7c-17.7-17.7-46-43.1-46-98.3c0-80,60-140,140-140s140,60,140,140c0,55.2-28.2,80.6-46,98.3
		c-5.6,5.6-14,13.1-14,21.7c0,13.1,6.9,20,20,20h300c22.1,0,40-17.9,40-40v-300c0-13.1,6.9-20,20-20c8.6,0,16.1,8.4,21.7,14
		c17.7,17.7,43.1,46,98.3,46c80,0,140-60,140-140S4160,1560,4080,1560z"/>
</g>
<g id="puzzle_piece_2">
	<g>
		<path class="st13" d="M3783,2100c-56,0-101.9-12.3-129.1-34.8l-3.2-2.6l-0.4-4.1c-4.9-48.7,6.8-75.4,17.1-99
			c7.4-16.8,13.7-31.4,12.4-52c-2.4-39-33.7-62.9-59.5-76.2c-34.1-17.5-81-27.6-128.6-27.6c-47.2,0-90.7,9.5-122.5,26.7
			c-23.9,12.9-52.5,36.7-53.3,76.6c-0.4,20.7,12.1,42.6,24.2,63.8c8.8,15.3,17.8,31.2,22.2,47c5.4,19.2,3.2,35.9-6.8,51.1
			c-12.9,19.7-49.6,28.9-115.3,28.9c-10.8,0-22.3-0.2-35.2-0.8c-61.4-2.5-114-14.1-140.8-31.1l-5.5-3.5l0.9-6.4
			c9.2-63.8,11.6-126.7,6.7-177.3c-6-61.9-22-105.6-47.7-130c-28.2,1.8-52.4,9.4-73.9,16.2c-19.5,6.2-37.9,12-55.4,12
			c-26.3,0-47.6-13.2-67.2-41.6c-16.7-24.2-28.4-65.5-31.5-110.4c-3.2-47.3,3.7-91.5,19-121.3c8-15.7,31.7-49.9,53.7-55.3
			c6.1-1.5,12.4-2.3,18.7-2.3c24.3,0,45.7,11.2,66.5,22c19.4,10.2,37.8,19.8,57.2,19.7c3.9,0,7.8-0.4,11.6-1.2
			c11.7-2.4,35-29.7,43.1-47.5c21.7-47.5,23.4-141,5.1-278l-0.8-5.7l4.5-3.5c32.9-25.6,88-42.9,147.3-46.4c5-0.3,10.3-0.4,15.6-0.4
			c57.6,0,147,18,157.2,67.5c6.6,32-9.2,52.3-23.2,70.2c-9.7,12.4-18.9,24.2-20.9,39.3c-3.2,28.8,3.8,53,20.7,71.9
			c26.1,29.2,76.5,46,138.2,46c42.2,0,86.4-8.2,121.3-22.4c35.8-14.6,59.4-34.4,66.5-55.6c12.9-38.3-1-71.9-15.6-107.5
			c-5-12.1-10.1-24.6-14-36.9l-1.6-5.1l3.4-4.1c32.3-39.6,99.5-45.5,136.8-45.5c61.6,0,128.1,15,165.5,37.3l5.9,3.5l-1.1,6.7
			c-10.8,64.5-25.9,183.9-6.1,258.6c6.3,24,23.9,54.5,37.1,57.8c4.1,1,8.2,1.6,12.4,1.6c19.2,0,37.1-10.8,56-22.2
			c19.7-11.9,40.1-24.2,63.1-24.2c1.9,0,3.8,0.1,5.7,0.3c27.7,2.5,53.2,26.7,71.8,68.2c16,35.8,24.6,79.3,22.9,116.4
			c-0.9,19.9-7.2,52.8-19.3,81.4c-15.3,36.2-36.1,57.3-60,60.9c-2.7,0.4-5.5,0.6-8.4,0.6c-25.6,0-54.8-15.7-80.5-29.5
			c-9.4-5.1-18.3-9.8-25.8-13.2c-3-1.3-6.5-3.3-10.3-5.3c-5.6-3.1-15.1-8.3-18.9-8.6c-1.1-0.1-2.1-0.1-3.2-0.1
			c-40.7,0-62.5,63.6-68.9,101.1c-11.5,67.2-3.3,135.4,4,195.7c1.8,15.2,3.6,29.5,5,43.8l0.6,6.2l-5.3,3.3
			C3906.7,2085.5,3843.8,2100,3783,2100z"/>
		<path class="st5" d="M3232.3,1115.1c60.5,0,139.1,19.5,147.4,59.5c9.9,48.1-38.7,64.7-44.3,106.3
			c-10.3,92.2,76.7,129.1,168.9,129.1c87.7,0,180.1-33.5,197.3-84.8c18.9-56.2-15-103.6-29.5-150.6c24.5-30,75.2-41.8,129-41.8
			c60.8,0,125.5,15.1,160.4,35.9c-11,65.8-26.1,186.4-5.9,262.8c6.4,24.4,25.1,60.1,44.3,65c5.1,1.3,10,1.9,14.9,1.9
			c43.3,0,78.1-46.4,119.1-46.4c1.6,0,3.2,0.1,4.8,0.2c52.2,4.7,88.8,103.5,85.7,174.2c-1.7,37.8-24.1,125.8-70.9,132.9
			c-2.2,0.3-4.6,0.5-6.9,0.5c-32.1,0-74.4-29.5-102.3-41.8c-8.1-3.6-23.7-14.1-32.5-14.8c-1.3-0.1-2.7-0.1-4-0.1
			c-48.3,0-71.7,68.4-78.7,109.4c-14.5,85.1,1.5,168.9,8.9,242.2c-34.7,21.4-96.2,35.4-154.9,35.4c-48.4,0-94.9-9.6-122.7-32.5
			c-8.2-81.7,32.8-97.9,29.5-150.6c-4.7-74.4-102.4-113.1-198-113.1c-93.1,0-184.3,36.7-185.8,113.1
			c-1.1,55.2,73.2,107.9,41.3,156.5c-13.2,20.1-62.9,24.4-107,24.4c-12.3,0-24.2-0.3-34.8-0.8c-57.4-2.3-109.7-13-135.8-29.6
			c15.9-110.5,17.9-262.3-47.2-318.9c-57.5,2.4-97.9,28.5-133,28.5c-20.7,0-39.5-9-59-37.3c-32.3-46.9-43-160.4-11.8-221.5
			c9.8-19.2,31.7-46.3,47.2-50.2c5.6-1.4,11-2,16.3-2c43.7,0,80,41.8,123.6,41.8c4.5,0,9-0.4,13.6-1.4c16.8-3.5,41.9-34.9,50.2-53.2
			c30.8-67.4,16.3-205.4,5.9-283.5c30.4-23.7,82.2-40.8,141.7-44.3C3222.1,1115.3,3227.2,1115.1,3232.3,1115.1 M3232.3,1095.1
			c-5.5,0-11,0.2-16.2,0.5c-30.8,1.8-60,7-86.7,15.5c-26.2,8.3-49.1,19.7-66.2,33l-9.1,7l1.5,11.4c7.5,56,11.5,102.9,12.3,143.5
			c1.2,58.9-4.4,102.3-16.6,129c-3.4,7.4-10.5,17.8-18.1,26.5c-9.9,11.2-16.3,14.9-18.1,15.4c-3.1,0.6-6.3,1-9.5,1
			c-16.9,0-34.2-9-52.5-18.6c-21.8-11.4-44.3-23.2-71.1-23.2c-7.1,0-14.2,0.9-21.2,2.6c-11.2,2.8-23.3,11.3-35.9,25.4
			c-9.4,10.5-18.5,23.6-24.4,35.1c-8.5,16.6-14.5,36.8-17.9,60c-3,20.7-3.7,43.6-2.2,66.5c1.5,22.2,5.1,44.2,10.6,63.6
			c5.8,21,13.5,38.4,22.6,51.8c21.6,31.4,45.6,46,75.4,46c19.1,0,38.2-6.1,58.4-12.5c19.8-6.3,41.9-13.3,67.1-15.5
			c10.3,10.9,19,25.8,25.8,44.5c7.6,20.9,13,46.6,15.8,76.2c4.8,49.8,2.4,111.9-6.6,174.9l-1.8,12.8l10.9,6.9
			c14.8,9.4,35.9,17.1,62.7,22.8c24.5,5.2,53.2,8.6,83,9.9c13,0.5,24.7,0.8,35.6,0.8c70.4,0,108.5-10.3,123.7-33.4
			c11.4-17.4,14.1-37.3,8-59.2c-4.7-17-14.1-33.4-23.2-49.2c-11.4-20-23.3-40.7-22.9-58.6c0.6-28.2,16.7-51,48.1-68
			c30.4-16.4,72.2-25.5,117.8-25.5c46.1,0,91.3,9.6,124,26.5c16.7,8.6,29.8,18.7,39,30.1c9.2,11.4,14.2,24.1,15.1,37.8
			c1.1,18.2-4.5,31.1-11.6,47.4c-10.3,23.5-23,52.7-17.9,104l0.8,8.2l6.4,5.2c15.6,12.8,36.3,22.5,61.5,28.8
			c22,5.5,46.9,8.2,73.9,8.2c62.6,0,127.5-15.1,165.3-38.4l10.7-6.6l-1.3-12.5c-1.4-14.4-3.2-28.8-5-44c-7.5-62.4-15.3-127-4-192.8
			c1.9-11.2,7.8-39.7,21.5-63.5c11.2-19.4,23.8-29.3,37.5-29.3c0.7,0,1.4,0,2.1,0.1c3.1,0.7,11.2,5.2,15.2,7.4
			c4,2.2,7.7,4.2,11.1,5.7c7.2,3.2,15.9,7.9,25.2,12.8c26.8,14.4,57.2,30.7,85.3,30.7c3.4,0,6.7-0.2,9.9-0.7
			c27.6-4.2,51-27.3,67.8-66.9c13.4-31.8,19.2-65.6,20.1-84.8c3.4-75.4-35.3-188.9-103.8-195.1c-2.2-0.2-4.4-0.3-6.6-0.3
			c-25.8,0-47.4,13-68.3,25.6c-17.7,10.7-34.5,20.8-50.9,20.8c-3.4,0-6.6-0.4-9.9-1.3c-1.5-0.4-7.4-4.3-15-16.6
			c-6.3-10.1-12-23.2-14.9-34.1c-8.3-31.3-18.5-106,6.3-254.4l2.2-13.5l-11.7-7c-38.8-23.2-107.4-38.7-170.6-38.7
			c-30.6,0-57.9,3.5-81.2,10.5c-27.8,8.3-49.1,21.3-63.3,38.7l-6.8,8.3l3.2,10.2c4,12.8,9.2,25.5,14.3,37.8
			c13.9,33.8,27.1,65.7,15.4,100.5c-6.1,18.2-28.3,36.2-60.8,49.5c-33.7,13.8-76.6,21.7-117.5,21.7c-58.9,0-106.5-15.5-130.8-42.6
			c-15.2-16.9-21.1-37.9-18.3-64c1.7-12.4,9.7-22.6,18.9-34.4c14.6-18.7,32.7-41.9,25.1-78.4c-2.9-14.3-11.4-27-25.2-37.9
			c-10.8-8.5-24.9-15.8-41.9-21.7C3303.3,1100.9,3266.9,1095.1,3232.3,1095.1L3232.3,1095.1z"/>
	</g>
</g>
</svg>
