<?xml version="1.0" encoding="utf-8"?>
<!-- Generator: Adobe Illustrator 19.2.1, SVG Export Plug-In . SVG Version: 6.00 Build 0)  -->
<svg version="1.1" xmlns="http://www.w3.org/2000/svg" xmlns:xlink="http://www.w3.org/1999/xlink" x="0px" y="0px"
	 viewBox="0 0 700 440" style="enable-background:new 0 0 700 440;" xml:space="preserve">
<style type="text/css">
	.st0{fill:#F2F2F2;}
	.st1{fill-rule:evenodd;clip-rule:evenodd;fill:#F2F2F2;}
	.st2{clip-path:url(#SVGID_2_);fill-rule:evenodd;clip-rule:evenodd;fill:#D4021D;}
	.st3{clip-path:url(#SVGID_4_);fill:#D41120;}
	.st4{clip-path:url(#SVGID_6_);fill:#D41120;}
	.st5{clip-path:url(#SVGID_8_);fill:#D41120;}
	.st6{clip-path:url(#SVGID_10_);fill:#D41120;}
	.st7{clip-path:url(#SVGID_12_);fill:#D41120;}
	.st8{clip-path:url(#SVGID_14_);fill:#D41120;}
	.st9{clip-path:url(#SVGID_16_);fill:#D41120;}
	.st10{clip-path:url(#SVGID_18_);fill:#D41120;}
	.st11{clip-path:url(#SVGID_20_);fill:#D41120;}
	.st12{clip-path:url(#SVGID_22_);fill:#D41120;}
	.st13{clip-path:url(#SVGID_24_);fill:#D41120;}
	.st14{clip-path:url(#SVGID_26_);fill:#D41120;}
	.st15{clip-path:url(#SVGID_28_);fill:#D41120;}
	.st16{clip-path:url(#SVGID_30_);fill:#D41120;}
	.st17{clip-path:url(#SVGID_32_);fill:#D41120;}
	.st18{clip-path:url(#SVGID_34_);fill:#D41120;}
	.st19{clip-path:url(#SVGID_36_);fill:#D41120;}
	.st20{clip-path:url(#SVGID_38_);fill:#D41120;}
	.st21{clip-path:url(#SVGID_40_);fill:#D41120;}
	.st22{fill-rule:evenodd;clip-rule:evenodd;fill:#4CAD33;}
	.st23{display:none;}
	.st24{display:inline;}
	.st25{fill:none;stroke:#4CAD33;stroke-width:8;stroke-linecap:square;stroke-miterlimit:10;}
	.st26{fill:#4CAD33;}
	.st27{fill:#4D4D4D;}
	.st28{fill:#FFFFFF;}
</style>
<g id="Ebene_1">
	<path class="st0" d="M333.6,31c-5.5-0.8-20.8-1.8-20.8-1.8c-16.7-1.3-42.4,1.5-42.4,1.5c-31.4,3.6-64,13.4-64,13.4
		c0.2,6.9,4.6,12.2,4.6,12.2c2.5,3.9,8.1,0.3,8.1,0.3c3.8-2.5,5.7-3,5.7-3c5.2-1.3,6.9,3.5,6.9,3.5c3.5,8.3,1.6,19,1.6,19
		c-0.9,6.1-0.7,9-0.7,9c12.6,4.5,24.1-0.3,24.1-0.3c5.3-2.3,0.4-7.8,0.4-7.8c-5.8-8.8,0.1-14.1,0.1-14.1c4.9-5.2,16.6-4.7,16.6-4.7
		c9.2,0.2,13.7,3.8,13.7,3.8c5.4,3.8,2.3,10.8,2.3,10.8c-3.3,6.6-2.9,7.7-2.9,7.7c-0.8,5.7,11.8,6.2,11.8,6.2
		c12.6,0.1,14.5-2.9,14.5-2.9c1.1-1-1.1-6.8-1.1-6.8c-1.3-5-0.7-12.9-0.7-12.9c0.5-10.5,6-11.5,6-11.5c3.1-1,5.4,0.5,5.4,0.5
		c2.8,1.4,6,3.2,6,3.2c3.1,1.7,5.6-1.3,5.6-1.3c5.8-4.9,4.5-14.8,4.5-14.8c-0.5-4.3-1.6-7-2.8-8.7L333.6,31z"/>
	<path class="st1" d="M286,86.6c-0.9-0.6-2.6-2.8-2.8-4.2c-0.6-5.4,4.7-9.3,4.2-13.7c-0.1-1-1.9-3.5-2.8-4.2
		c-6.6-5.4-25.8-3.5-26.8,4.5c-0.8,5.8,6.4,6.9,4.8,14.3c-1.9,8.1-23.3,6.9-31.9,5.9c-1.6,3.2-2.8,7.8-2.8,13.1
		c0,4.9,1.2,12.4,4.5,12.9c1.3,0.2,3.9-1.4,4.8-1.7c1.7-0.6,3.5-1.5,5-1.7c6.3-0.8,9.2,4.4,10.6,8.1c3.3,8.4,1.7,22.9-5,26.3
		c-2.8,1.4-6.3,0.6-9.5-0.8c-1.9-0.9-4.1-3.1-6.2-2.8c-2.3,0.3-5,5.5-5.6,8.4c-1.5,7,0.2,15.9,2.2,20.1c5.5-1.1,9.3-2.7,16.2-2.5
		c6.7,0.2,18.2,2.9,19,8.4c0.7,4.7-4.4,7.9-3.9,12c0.6,5.2,10.8,8.8,16.8,8.4c4.2-0.3,11.6-2.6,12-7.3c0.5-5.4-5.1-9-5.3-14
		c4.1-9,20.4-7.2,30.5-6.2c3.4-7.8,2.2-21.3-3.1-26c-3.3,2.5-10.3,4.7-14.8,2.2c-9.3-5.2-9.9-35.2,4.5-35c3.2,0.1,7.8,3.6,11.5,2.8
		c1.8-0.4,4-4.2,4.5-6.2c1.8-7,0.1-16.2-2-20.4C305.7,89.5,292.8,91.2,286,86.6z"/>
	<path class="st1" d="M199.4,89.6c-0.2,1.9,2,4.3,2.5,6.2c0.5,1.8,1,4.5,0.6,6.7c-2.2,11.9-34.2,12.7-35,0c-0.3-5.2,4.8-7.6,4.5-12
		c-0.4-4.9-9.1-6.3-15.7-5.9c-3.8,0.2-8.5,1-9.8,3.1c1.6,9.1,3,23.1-0.8,30.5c-4.7,9.2-11.8-1.8-19.3,0c-3.3,0.8-5.7,6.8-6.2,10.9
		c-0.8,7.3,1.6,14.8,6.7,16.8c6.2-0.5,9.7-4.9,16.8-3.6c5.9,6.3,3.2,23.1,2.2,31.9c4.7,2,22.2,4.1,24.1-1.7c0.8-2.6-1.2-5.5-2-7
		c-1-2-2.6-4.5-2.5-7c0.7-13.7,33.1-13.4,35.5-2c1.3,6.3-3.8,11.2-2,15.7c0.9,2.1,5.4,3.1,8.4,3.4c6.2,0.6,13.7-1.1,17.9-3.6
		c-1.8-8.9-4-32.3,5.9-33c6.5-0.5,8.6,5.8,14.3,4.8c3.3-0.6,5.7-6.5,6.2-10.1c0.9-7.5-2.5-18.2-7.8-18.7c-5-0.5-7.6,5.3-13.1,4.2
		c-3.5-0.7-4.9-7-5.3-11.7c-0.6-7,0.6-14,0.8-19.3C222.3,85.2,200.1,83.1,199.4,89.6z"/>
	<path class="st1" d="M380.2,206.5c1.6-2.5,3.4-4.8,6.2-5.6c5.1-1.4,9.6,3.1,15.1,2.8c5.2-5.7,4-22.1-0.3-28
		c-7.1,1.7-20.6,3.3-27.4,0c-1.3-0.6-3.3-2.5-3.6-3.9c-1.2-5.6,4-9.8,2.8-15.4c-1-4.7-9-7.5-15.4-7.3c-5.6,0.2-13.1,2.5-13.7,7.5
		c-0.7,5.8,6,8.9,4.5,15.4c-0.8,3.6-7.1,4.8-11.7,5c-8.1,0.5-15-1.4-20.1-2c-1.7,3.6-3.3,7.8-3.4,13.7c-0.1,4.6,0.7,13.7,5,14.3
		c3.2,0.4,6.3-3.4,9.5-3.9c10.8-1.6,14.3,11.2,12.9,21.5c-0.7,5.3-3.8,12.7-8.9,13.4c-5.5,0.8-10.4-4.7-15.4-2.5
		c-2.7,1.2-3.8,6.7-3.9,11.7c-0.1,3.3,0.6,13.3,2.8,14.5c1.5,0.8,4-1.1,6.2-1.7c2.4-0.6,5.6-1,7.6-1.1c7.1-0.5,19,0.2,20.7,5.3
		c2.1,6.2-4.7,10.2-4.5,14c0.1,2.4,3.7,5.2,6.2,6.2c7.7,3.1,21.6-0.1,22.7-5.9c0.9-5.1-3.4-8.3-3.4-14c6.2-7.8,22.4-4.1,32.4-3.4
		c1.1-2,1.9-5.4,2.2-8.1c0.4-3.4,0-9.3-0.8-12.6c-2.7-10.1-10.7,1-17.6-0.3c-9.2-1.6-10.8-16.3-7.8-26.8
		C378.8,209.6,379.5,207.9,380.2,206.5z"/>
	<path class="st1" d="M226.4,176.6c-6.7,1.6-18.9,3.5-26.3,0.8c-1.7-0.6-4.3-2.5-4.8-4.2c-1.5-6,3.9-9.5,2.8-15.1
		c-1-4.9-9.3-7.6-15.9-7.3c-5.2,0.3-13.4,3.2-13.4,8.4c0,2.1,1.8,4.6,2.8,6.7c2,4.4,3.5,8.3-0.8,10.9c-5.4,3.3-17.8,2.3-26,0.8
		c-2.9,6.5-4.6,21.3,0.6,26.8c5.4,0.3,7.4-4,12.9-3.4c2.1,0.2,5.2,2.3,6.4,3.6c6.9,7.3,5,30.3-3.9,32.7c-5.5,1.5-10.7-4.6-15.7-3.4
		c-5.8,1.5-7.2,20-2.8,24.3c4.2-0.4,8.5-2.7,14.5-2.8c7.4-0.2,17.2,0.9,17.9,6.7c0.7,6.4-5.3,8-4.8,12.9c0.3,2.9,4.7,5.5,6.7,6.2
		c6.7,2.3,20.5,0.5,21.8-6.4c0.8-4.4-4.3-8.8-3.1-13.7c0.3-1.3,2.4-2.7,3.9-3.4c7.5-3.1,21-0.8,29.4,0.8c2.8-4.1,4.2-25.1-2.5-26
		c-4.8-0.7-7.6,4.8-12,4.8c-14.6-0.1-14.4-33.8-1.4-35.8c5.5-0.8,7.3,2.7,14.3,2.8C232,198.2,230.6,183,226.4,176.6z"/>
	<path class="st1" d="M287.9,177.2c-0.2,1.6,2,5.8,2.5,7c0.9,2.1,2.6,4.3,2,7.8c-0.6,3-5.2,6.1-7.5,7c-10.6,3.9-27.8,0.2-28-10.3
		c0-3.5,3.8-8,3.4-10.9c-0.4-2.6-4.6-3.8-7.6-4.5c-7.1-1.7-16.1-1.7-21.8,1.4c1.6,6.6,3.5,13.6,2.5,22.1c-0.6,4.9-2.2,11.1-6.7,11.5
		c-5.6,0.4-8.5-4.3-13.4-3.4c-3.4,0.7-6.2,5.7-7,9.5c-1.3,6.4,1,18.6,6.7,19.6c5.9,1,8.3-5.9,14.5-4.8c8.7,1.6,6.4,21.7,5.3,30.2
		c4.4,3.4,24.9,3.4,26-2.5c0.3-1.9-1.7-4.8-2.2-5.9c-0.9-1.7-2.3-4-2.5-5.9c-0.6-4.7,2.5-7.6,5-9.2c7.5-4.8,27.1-4.5,30.5,4.2
		c1.1,2.8,0.5,7-0.6,9.8c-0.7,1.9-3.4,4.8-2.8,7.3c1.3,5.9,21.6,5.9,25.7,2.2c0.3-1.9-1.1-4.5-1.4-6.7c-1.1-7.9-1-22.9,4.8-24.3
		c6.1-1.6,10.1,3.8,15.7,2.5c6-1.4,7.6-13.4,5.9-20.7c-0.7-2.8-3.8-7.7-7.6-7.8c-4.2-0.1-8.2,5.4-14,3.4c-5.2-1.8-5.9-14.6-4.8-22.4
		c0.5-3.5,2.4-5.9,1.7-9.5C306.5,172.1,288.6,171.4,287.9,177.2z"/>
	<path class="st1" d="M282.6,257.4c0.3-6,4.9-9.1,4.2-14c-0.9-6-10.6-7.9-17.3-7.3c-5.7,0.6-12,4-12,8.4c0,4.6,5.4,7.1,4.8,12.6
		c-0.2,2-1.9,3.5-3.6,4.5c-6.5,3.7-20.3,2.9-28.2,1.4c-3.3,6.9-5.4,21.9,1.4,26.6c4.2-0.3,7.4-3.6,11.5-3.4
		c13.7,0.9,13.1,33.5,1.7,35.2c-6.3,1-8.6-4.1-13.7-5c-7.2,3.9-7.8,21.2-3.4,28.8c5.7-1,10.6-2.5,17.3-2c7,0.6,16.4,2.9,17.3,8.4
		c1,5.7-4.7,7.7-3.6,13.1c0.4,2,3.5,4.7,5.6,5.6c7.2,3.3,20.5,1.5,22.4-4.5c1.6-5.1-5-9.9-4.5-14.5c0.3-2.5,2.6-4.1,4.5-5
		c6.4-3.3,18.8-2.2,26.3-1.1c3.2-5.4,3.4-24.3-2.5-25.4c-2.9-0.6-6.4,2.6-8.9,2.8c-16.6,1-16.6-34.3-3.1-35.8
		c4.8-0.5,8.3,3.6,12.9,2.5c3.2-0.8,5-7.6,5.3-12.3c0.3-5.5-0.8-11.3-2.5-14.5C304.2,265.4,286.7,266.5,282.6,257.4z"/>
	<path class="st1" d="M443.2,264.8c0,0-9.8,44.8-28.7,80.8c0,0-7.8-1.1-20.5,2.5c0,0-8.1,2-12.3,1.2c-2.9-0.5-8-1.4-8.9-3.4
		c-2-4.4,3.7-9.8,2.5-15.4c-2.4-11.3-30.6-11.9-35.2-1.7c-3.1,7,3.9,9.5,3.6,17.3c-5.2,5.1-20.9,3.5-26.6,0
		c0.5-6.2,1.4-10.7,0.6-17.1c-0.6-4.7-2.1-12.1-5.3-12.9c-4.6-1.2-8.5,3.6-13.4,2.5c-5.6-1.2-7.8-10.2-7.5-16.8
		c0.2-4.5,3.1-11.1,6.4-12c5.7-1.7,8.8,4.8,14.5,3.6c1.5-0.3,3.6-2.9,4.2-3.9c2.8-5.1,3-14.8,2-22.7c-0.2-1.6-1.2-3.7-0.8-5
		c1-3.8,12.6-4.8,18.7-4.2c4.3,0.4,9.5,2.4,10.1,5.3c0.8,4.6-4.3,6.9-4.5,11.5c-0.4,11.3,19.5,13.1,28.5,8.4
		c2.2-1.1,6.2-4.1,6.7-6.4c0.7-3-0.5-5.5-1.1-7.6c-0.6-2-2.4-4.4-1.7-6.7c1-3.1,9.5-3.6,14.3-3.4c0,0,10,0.4,23.4,3.9
		c0,0,9.7,1.8,16.2,1.8C428.2,264.7,439.4,265.2,443.2,264.8z"/>
	<path class="st1" d="M201.8,276.7c-3.2,11.3-31.4,12.6-34.4,1.1c-1.8-6.8,4.9-8.6,4.2-14c-1.1-8.4-25.7-6.3-28.8-1.7
		c1.4,10.8,3.6,23.2-0.6,30.2c-1,1.7-3.4,3.5-5.3,3.6c-5.9,0.3-7.3-5.1-11.7-5c-3.7,0.1-6.6,5-7.6,8.1c-2.3,7.2-0.3,19.8,6.7,20.4
		c6,0.6,9-5.9,15.7-3.4c1.9,0.7,3.4,4.1,3.9,7c1.4,8,0,16.4-0.6,24.1c6.2,2.7,20.7,4.4,25.7-0.6c0.3-4.9-2.2-6.6-3.4-9.5
		c-7.3-18.6,31.4-18.9,34.4-6.4c1.2,5.1-2.9,10.5-2.5,14c0.4,4,6.7,5.3,11.5,5.3c5.7,0,12.9-1.7,15.1-3.9c-1.7-9.2-2.9-25.5,2.8-31
		c5.3-5.1,11.5,4.2,17.6,3.1c3.6-0.6,6.2-7.5,6.4-11.7c0.3-7.1-2.7-16.6-8.1-17.1c-4.7-0.4-7.8,5.2-12.9,4.2
		c-7.4-1.5-5.4-23.5-3.9-31c-6-3.5-21.3-4.9-26.8,0C199,270.1,203.2,271.7,201.8,276.7z"/>
	<path class="st1" d="M113.5,86.1c0,0,17.3-11.9,32.4-18.9c0,0,31.7-15.1,57.4-22.3c0,0-0.3,4.7,2.2,10.4c0,0,2.2,5.9,6.9,6.2
		c0,0,3.2,0.9,7.2-1.5c0,0,4.2-2.9,7.3-2.7c0,0,4.4,2.7,4.3,13c0,0-0.3,8.4-2.6,14.1c0,0-10.1-2.1-16.6-2.2c0,0-8-0.7-13.5,2.4
		c0,0-4.1,1.8-2.4,5.7c0,0,0.8,2,2.4,5.6c0,0,2.8,5.7-1.6,9c0,0-4.2,3.8-13.3,3.9c0,0-8.9,0.2-12.7-5.5c0,0-2.2-2.5,2-7.4
		c0,0,3.7-3.4,2-8.7c0,0-2.3-4.2-11.3-5c0,0-7.2-0.8-17.5,1.6c0,0-7.3,5-19,4.8C127,88.5,117,88.4,113.5,86.1z"/>
	<path class="st0" d="M428.5,84.9c0,0-15.9,0.9-29-2.8c0,0-3.7-0.9-10.4-1.4c0,0-7-0.6-11.4,0.8c0,0-4.3,1-6.5,4.5
		c0,0-0.2,2.1,1,4.7c0,0,1,2.3,1.6,3.5c0,0,2.1,3.9-0.1,7.3c0,0-3.5,5.1-14.3,5.1c0,0-10.4,0.2-12.9-5.1c0,0-1.8-2.7,0.7-6.5
		c0,0,0.9-1.2,2-2.6c0,0,2.3-2.6,1.2-6.8c0,0-0.5-4.3-9.3-5.7c0,0-5.5-1.1-12.8-0.2c0,0-5.3,0.9-6.9,1.4c0,0-1.6,0.7-2.3,0.9
		c0,0-1.5,1-2.3,0.1c0,0-3.3-3.1-3.1-12.9c0,0-0.3-12,5.3-13.8c0,0,2.2-0.9,5.6,1.5c0,0,3.7,3,6.7,2.9c0,0,4.4,0.6,7.7-5.3
		c0,0,3.9-5.8,3.2-14.8c0,0-0.1-4.1-1.7-7.6c0,0,11.3,2.1,21,5c0,0,10.8,3.4,17,6.4c0,0,6.6,3,13.6,7.2c0,0,10.7,6.5,18.1,13.6
		C410.2,64.2,422.3,75.7,428.5,84.9z"/>
	<path class="st0" d="M406.2,87.7c0,0,6.2,1.1,13.3,1.3c0,0,8.2,0,11-0.9c0,0,3.7,5.2,8.8,15.9c0,0,5.7,12.8,8.9,26
		c0,0,2.8,10.1,4.3,26.7c0,0,1.3,13.2,1,25c0,0-0.3,12.2-0.4,15c0,0-4.2,0.8-8.4-0.2c0,0-8.4-2.3-9.8-7.6c0,0-0.5-2.1,1.7-5.3
		c0,0,2.1-2.7,2.1-5.4c0,0,0.9-3.4-3.4-6.1c0,0-3.8-3.3-13.8-4.2c0,0-8.6-1.2-17.7,2.1c0,0-3.7-5.3-2.7-16.9c0,0,0.8-9.5,6.1-11.9
		c0,0,2.6,0.5,5.4,2.6c0,0,3,2.5,6.7,2.4c0,0,3.7,0.2,6.2-2.8c0,0,3.9-4.1,3.9-14.6c0,0,0.3-10.8-4.7-16c0,0-2.5-2.5-6.3-2
		c0,0-2.5,0.2-7.8,2.5c0,0-2.5,1.5-3.9,0.2c0,0-4.1-2.9-3.3-14C403.6,99.8,403.9,93.1,406.2,87.7z"/>
	<path class="st1" d="M443.9,261.1c-18.7,0.9-27.9-0.3-27.9-0.3s-6.7-0.6-9.3-2.3c0,0,1.3-6,1.4-12.9c0,0,0.2-7.6-1-10.8
		c0,0-0.6-3.8-3.1-5.5c0,0-2.1-1.6-5.4-0.7c0,0-0.9,0.2-5.2,2.7c0,0-3.2,2.3-6.3,1.8c0,0-4-0.2-6.4-9.4c0,0-1.5-4.8-0.1-10
		c0,0,1.4-6.6,5.6-9.2c0,0,2-1.2,4.8-0.4c0,0,1.8,0.5,4.1,1.7c0,0,3.7,2,6,1.8c0,0,2.2,0.2,3.9-2.3c0,0,3.1-3.6,3.3-11.9
		c0,0,0.3-6.3-1.2-13.1c0,0-0.8-4.2-1.3-6.2c0,0,3.2-2.2,9.8-2.6c0,0,3.4-0.4,9,0.6c0,0,4.5,0.7,7.7,2.3c0,0,3.3,1.5,2.5,4.8
		c0,0,0,1.2-2.1,4.9c0,0-1.4,1.9-1.2,4.7c0,0-0.1,4.7,5.3,8c0,0,3.3,2.4,9,3.1c0,0,5.1,0.7,7,0.3c0,0-0.7,17.5-3.3,31.7
		C449.6,232.1,445.8,254.4,443.9,261.1"/>
	<path class="st1" d="M389.7,352.5c0,0,7.4-1.3,10.3-2.2c0,0,5-1.1,8.5-1.8c0,0,3.2-0.6,4.6-0.5c0,0-3.7,7.1-7,12.4
		c0,0-8.6,14.3-14.4,20.8c0,0-10.7,13.1-17,18.6c0,0-13,13-30.8,20.7c0,0-12.3,5.8-26.2,8c0,0-2,0.4-4.3,0.7c0,0-2.5-3.5-1.7-13.2
		c0,0,0.5-7,4.1-10c0,0,3-0.3,6.1,1.3c0,0,4,2.2,7.7,1.9c0,0,3.2,0.2,6-3.3c0,0,3-2.9,3.7-11.2c0,0,1.2-8.2-2.2-15.3
		c0,0-1.9-5.2-7.3-5.3c0,0-3.3-0.5-6.1,1.2c0,0-1.1,0.7-3.5,2c0,0-1.8,1.3-4,0.2c0,0-3.1-1.8-3.6-9c0,0-0.7-6.6,1.5-14.1
		c0,0,0.7-2.7,2-4c0,0,7.1,1.8,11.8,2c0,0,6,0.6,10.5-0.2c0,0,6.5-0.7,9-4.7c0,0,0.8-3.7-1.3-7.2c0,0-2.8-4-3-6.5
		c0,0-1.1-4.1,3.3-6.6c0,0,3.8-2.5,9.7-2.9c0,0,6.4-0.5,11.8,2.6c0,0,4.2,2,4.4,5.5c0,0,0.5,2.2-1.5,6c0,0-3.3,5.3-1.3,9.2
		c0,0,1.8,4.2,8.9,5C378.5,352.5,383.6,353.5,389.7,352.5z"/>
	<path class="st1" d="M310.9,429.4c0,0-8.1,1.4-25.6,0.9c0,0-19.5-0.5-34-4.5c0,0-13.2-2.8-19.6-5.1c0,0,2.9-10.2,0.9-17.4
		c0,0-1.8-10.3-10-8.6c0,0-1.1,0.3-5.6,3.4c0,0-3,2.4-6.7,1.3c0,0-4.5-2.4-5.3-9.1c0,0-0.9-5.6,0.6-12.4c0,0,2.3-8.7,8.4-8.1
		c0,0,2.7,0.3,6.2,3c0,0,5.3,2.8,9.3-1.2c0,0,2-1.5,2.9-6.1c0,0,0.3-3.3-0.9-8.5c0,0-1.3-5-1.6-7.9c0,0,2.7-2.2,12-2.7
		c0,0,5.7-0.6,12.3,2c0,0,6.4,2.1,4.6,6.2c0,0-0.3,1.8-2.5,5.5c0,0-2.6,4.9,2.3,9.9c0,0,4.7,4.7,15.3,4.8c0,0,7.6,0.4,13.1-3.3
		c0,0,5.4-2.7,3.4-10c0,0-0.3-1.7-3.2-6c0,0-2.3-3,0.1-5c0,0,2.9-3.2,11.8-3c0,0,7.1-0.4,12.6,1.9c0,0,0.1,1.9-0.8,7.6
		c0,0-2.3,9.8-0.6,16c0,0,1.1,6.1,5,7.6c0,0,3.4,1.7,9.3-2c0,0,3.2-2.4,6.1-1c0,0,3.4,1.1,5,8.7c0,0,2.5,10.4-2.4,16.5
		c0,0-2.9,3.8-8.9,1.5c0,0-5.7-2.5-8.9-1.9c0,0-4.6,0.1-5.8,9c0,0-0.9,5-0.3,12.1C309.4,423.9,309.6,427,310.9,429.4z"/>
	<path class="st1" d="M142.2,351.1c0,0,7.7,1.4,15.1,1.9c0,0,10.2,0.7,14.4-3.8c0,0,2.8-2.5-0.7-8.6c0,0-4.2-6.1-2.3-10.2
		c0,0,2-4.7,11.6-5.5c0,0,6.5-0.6,12,2c0,0,6.5,2.4,5,8.5c0,0-0.6,2.1-1.3,3.8c0,0-3.1,5.8-1.1,9.4c0,0,2.1,3.9,10.1,4.7
		c0,0,7.1,0.7,20.3-1.9c0,0,3.9,5.5,3.6,15c0,0-0.3,1.4-1.8,2.4c0,0-2.1,1.9-6.1,0.3c0,0-4.7-2.5-6.6-2.7c0,0-7.6-2.2-11.4,9
		c0,0-4.4,11.8,1.3,21.6c0,0,3.3,5.5,8.6,5.3c0,0,2,0.1,5.7-2.5c0,0,4.1-3.5,6.8-2.3c0,0,8,3.6,3.5,22.3c0,0-19.4-5.4-45.8-18.2
		c0,0-20.2-9.9-33.6-19.8c0,0-4.3-2.8-9.2-6.7c0,0-16.2-12.3-29.3-26c0,0,10.2-2.4,19.4-0.2C130.6,349,136.1,349.9,142.2,351.1z"/>
	<path class="st1" d="M-55,304.9"/>
	<path class="st1" d="M109.6,347.6c0,0-16.4-15.9-29.2-38.2c0,0-16.6-28.1-20.8-44.7c0,0,7.2,0.7,11.1,0.6c0,0,5.8,0.1,10.5-1.8
		c0,0,4.5-1.9,5.2-4.7c0,0,0.8-3.4-1.5-6.6c0,0-4.1-4.4-2.6-8.1c0,0,1.5-3.7,7.3-5.7c0,0,5.2-2.4,12.9-0.4c0,0,7.9,2,8.6,6.7
		c0,0,0.6,2.3-1.1,5.3c0,0-1.8,3-2.7,6.1c0,0-1.2,2.9,1,5.2c0,0,3.2,4,11.3,4.6c0,0,8.5,1,19.3-2.2c0,0,2.9,5.1,3.3,13.3
		c0,0,0.9,7.8-2.3,13.1c0,0-1.7,4.4-5.8,2.7c0,0-1.6-0.4-4.8-2.7c0,0-2.6-2-5.8-1.5c0,0-3.5,0.4-5.8,3.8c0,0-3.5,4.6-3.9,12.9
		c0,0-0.5,7.8,2.6,13c0,0,2.2,4.2,5,5.3c0,0,2.7,0.9,6.7-1l4.5-2.1c0,0,2.7-1.8,5.6-0.2c0,0,2.5,1.7,3,7.8c0,0,0.9,6.3-0.7,13.6
		c0,0-0.4,2.7-1.4,4.9c0,0-6.4-1.1-14.2-1.5c0,0-8.7,0-11.5,0.9C113.4,346.1,110.1,347,109.6,347.6z"/>
	<path class="st1" d="M58.5,261.1c0,0-3.5-7.6-8.4-39.7c0,0-2-16-0.3-37.1c0,0,0.7-6.2,1.5-10.3c0,0,11.5-2.5,20.8-1.5
		c0,0,4.7,0,10.8,3.1c0,0,3.3,1.5,2.9,4.1c0,0,0.1,0.9-1.9,4.1c0,0-3.6,5.1,0,11.2c0,0,2.6,5.2,13.2,6.5c0,0,7.8,1.1,13.8-1.6
		c0,0,5.7-1.9,6.1-7.1c0,0,0.4-3.1-1.9-8.9c0,0-1.5-4.2-1.8-5.6c0,0,2.3-2.8,9.7-3.6c0,0,5.3-0.9,12.6,0.9c0,0,3.3,0.9,4.7,1.8
		c0,0-1.7,8.8-1.3,14.9c0,0,0.4,10,1.8,13.4c0,0,1,3.9,4.9,3.2c0,0,2.8-0.9,6.2-2.6c0,0,5.2-2.9,9.2-0.1c0,0,4.9,3.3,4.7,15.7
		c0,0,0.3,5.4-5.1,11.3c0,0-2.2,2.8-7.6,0.1c0,0-7-4.2-10.4-2.2c0,0-4.9,1.6-5.2,12.1c0,0-0.7,6.2,1.1,16c0,0-4.1,4.5-16.9,3.5
		c0,0-11.7-1.1-11.5-5.4c0,0-0.3-1.8,2-5.4c0,0,3.6-4.6,1.6-9.6c0,0-1.4-6.1-11.3-8c0,0-7.9-1.9-16.3,1.3c0,0-6.5,1.9-7.6,8
		c0,0-0.9,2.5,2.5,8.1c0,0,3.8,5,1,7.7c0,0-2.1,3.2-14.4,3.1C67.9,262.7,62,262.6,58.5,261.1z"/>
	<path class="st1" d="M51.9,170.9c0,0,3.5-25.3,24.2-51.1c0,0,15.5-19.9,35.7-32.6c0,0,2.7,3,8.3,4.1c0,0,5.7,1.1,10.8,0.6
		c0,0,8.5-0.8,11.2-1.8c0,0,2.9,3.3,3.4,10.7c0,0,1,12.7-3.5,17c0,0-1.8,2.5-6.5,0.5c0,0-0.9-0.4-4.4-2.7c0,0-3.2-2.3-6.8-0.2
		c0,0-4.3,1.8-6.2,9.6c0,0-1.5,5.2-0.6,12.6c0,0,0.9,7.6,4.7,10.4c0,0,2.5,2.9,8.8,0.9c0,0,2.8-0.9,5.7-2.3c0,0,4.4-2.1,6.2,1.7
		c0,0,3.1,4.8,1.2,16.8c0,0-0.1,4.1-2.5,7.8c0,0-7.5-1-14.8-1.4c0,0-7.7-0.4-11.9,0.9c0,0-6.5,1.2-6.1,6.6c0,0-0.5,1.5,3,7.1
		c0,0,3,4.4,1.2,7.7c0,0-2.3,4-10.3,5c0,0-6.3,1.1-14.1-3.7c0,0-5.7-3.8-2.7-8.4c0,0,1.1-1.8,2.4-3.9c0,0,2.9-5-1.6-8.2
		c0,0-3.2-3.3-13.9-4.7c0,0-6.2-0.9-10.3-0.1C62.7,169.7,54.3,171.3,51.9,170.9z"/>
	<g>
		<defs>
			<path id="SVGID_1_" d="M333.6,31c-5.5-0.8-20.8-1.8-20.8-1.8c-16.7-1.3-42.4,1.5-42.4,1.5c-31.4,3.6-64,13.4-64,13.4
				c0.2,6.9,4.6,12.2,4.6,12.2c2.5,3.9,8.1,0.3,8.1,0.3c3.8-2.5,5.7-3,5.7-3c5.2-1.3,6.9,3.5,6.9,3.5c3.5,8.3,1.6,19,1.6,19
				c-0.9,6.1-0.7,9-0.7,9c12.6,4.5,24.1-0.3,24.1-0.3c5.3-2.3,0.4-7.8,0.4-7.8c-5.8-8.8,0.1-14.1,0.1-14.1
				c4.9-5.2,16.6-4.7,16.6-4.7c9.2,0.2,13.7,3.8,13.7,3.8c5.4,3.8,2.3,10.8,2.3,10.8c-3.3,6.6-2.9,7.7-2.9,7.7
				c-0.8,5.7,11.8,6.2,11.8,6.2c12.6,0.1,14.5-2.9,14.5-2.9c1.1-1-1.1-6.8-1.1-6.8c-1.3-5-0.7-12.9-0.7-12.9c0.5-10.5,6-11.5,6-11.5
				c3.1-1,5.4,0.5,5.4,0.5c2.8,1.4,6,3.2,6,3.2c3.1,1.7,5.6-1.3,5.6-1.3c5.8-4.9,4.5-14.8,4.5-14.8c-0.5-4.3-1.6-7-2.8-8.7L333.6,31
				z"/>
		</defs>
		<clipPath id="SVGID_2_">
			<use xlink:href="#SVGID_1_"  style="overflow:visible;"/>
		</clipPath>
		<path class="st2" d="M246.4,87.6c0,0,5.8-11.1,19.5-21.8c0,0,11.1-9.1,22.8-10.5c0,0,6.6-1.7,17,0.5c0,0,5.7,1.2,8.4,3.3
			l-0.2,14.3l1.3,9.1l-2.3,5.2l-18.7,1.7L279,80.6l-10.5-2.4l-4.5,4.5l-7.3,3.6l-7.1,1.7L246.4,87.6z"/>
	</g>
	<g>
		<defs>
			<path id="SVGID_3_" d="M428.5,84.9c0,0-15.9,0.9-29-2.8c0,0-3.7-0.9-10.4-1.4c0,0-7-0.6-11.4,0.8c0,0-4.3,1-6.5,4.5
				c0,0-0.2,2.1,1,4.7c0,0,1,2.3,1.6,3.5c0,0,2.1,3.9-0.1,7.3c0,0-3.5,5.1-14.3,5.1c0,0-10.4,0.2-12.9-5.1c0,0-1.8-2.7,0.7-6.5
				c0,0,0.9-1.2,2-2.6c0,0,2.3-2.6,1.2-6.8c0,0-0.5-4.3-9.3-5.7c0,0-5.5-1.1-12.8-0.2c0,0-5.3,0.9-6.9,1.4c0,0-1.6,0.7-2.3,0.9
				c0,0-1.5,1-2.3,0.1c0,0-3.3-3.1-3.1-12.9c0,0-0.3-12,5.3-13.8c0,0,2.2-0.9,5.6,1.5c0,0,3.7,3,6.7,2.9c0,0,4.4,0.6,7.7-5.3
				c0,0,3.9-5.8,3.2-14.8c0,0-0.1-4.1-1.7-7.6c0,0,11.3,2.1,21,5c0,0,10.8,3.4,17,6.4c0,0,6.6,3,13.6,7.2c0,0,10.7,6.5,18.1,13.6
				C410.2,64.2,422.3,75.7,428.5,84.9z"/>
		</defs>
		<clipPath id="SVGID_4_">
			<use xlink:href="#SVGID_3_"  style="overflow:visible;"/>
		</clipPath>
		<path class="st3" d="M154.8,62.8c-24.5,11.2-45.5,24.4-61.5,39c-38.1,33.8-49.3,74.9-42.1,127.3c6.7,42.1,24.9,79.6,51.6,110.6
			c0,0,0.6,0.4,0.5,0.2l44.5-235.7C149.9,91.9,154.8,62.8,154.8,62.8 M333.3,101.9c0-23.1-9.5-47.3-37.3-47.3
			c-31.9,0-61.5,36.1-72.2,92.9l-10.6,62.1c9.5,8.9,22.5,14.2,39,14.2C297.8,223.7,333.3,158.6,333.3,101.9 M422.2,76.7
			c-1-1.2-0.7-0.7-0.7-0.7c0.8,6.3,1.2,12.8,1.2,19.3c0,100.5-66.8,192.8-167.4,192.8c-23.7,0-43.8-5.9-53.8-11.8h-1.2L176.7,398
			l0.8,0.7c26,13.7,55,23.7,85.8,29.5c54.5,7.8,92.2-4.5,122.9-40.6c31-34.8,53.4-91.7,64.2-160.4
			C458.7,160.7,451.4,110.8,422.2,76.7"/>
	</g>
	<g>
		<defs>
			<path id="SVGID_5_" d="M286.1,86.6c-0.9-0.6-2.6-2.8-2.8-4.2c-0.6-5.4,4.7-9.3,4.2-13.7c-0.1-1-1.9-3.5-2.8-4.2
				c-6.6-5.4-25.8-3.5-26.8,4.5c-0.8,5.8,6.4,6.9,4.8,14.3c-1.9,8.1-23.3,6.9-31.9,5.9c-1.6,3.2-2.8,7.8-2.8,13.1
				c0,4.9,1.2,12.4,4.5,12.9c1.3,0.2,3.9-1.4,4.8-1.7c1.7-0.6,3.5-1.5,5-1.7c6.3-0.8,9.2,4.4,10.6,8.1c3.3,8.4,1.7,22.9-5,26.3
				c-2.8,1.4-6.3,0.6-9.5-0.8c-1.9-0.9-4.1-3.1-6.2-2.8c-2.3,0.3-5,5.5-5.6,8.4c-1.5,7,0.2,15.9,2.2,20.1c5.5-1.1,9.3-2.7,16.2-2.5
				c6.7,0.2,18.2,2.9,19,8.4c0.7,4.7-4.4,7.9-3.9,12c0.6,5.2,10.8,8.8,16.8,8.4c4.2-0.3,11.6-2.6,12-7.3c0.5-5.4-5.1-9-5.3-14
				c4.1-9,20.4-7.2,30.5-6.2c3.4-7.8,2.2-21.3-3.1-26c-3.3,2.5-10.3,4.7-14.8,2.2c-9.3-5.2-9.9-35.2,4.5-35
				c3.2,0.1,7.8,3.6,11.5,2.8c1.8-0.4,4-4.2,4.5-6.2c1.8-7,0.1-16.2-2-20.4C305.8,89.5,293,91.2,286.1,86.6z"/>
		</defs>
		<clipPath id="SVGID_6_">
			<use xlink:href="#SVGID_5_"  style="overflow:visible;"/>
		</clipPath>
		<path class="st4" d="M154.8,62.8c-24.5,11.2-45.5,24.4-61.5,39c-38.1,33.8-49.3,74.9-42.1,127.3c6.7,42.1,24.9,79.6,51.6,110.6
			c0,0,0.6,0.4,0.5,0.2l44.5-235.7C149.9,91.9,154.8,62.8,154.8,62.8 M333.3,101.9c0-23.1-9.5-47.3-37.3-47.3
			c-31.9,0-61.5,36.1-72.2,92.9l-10.6,62.1c9.5,8.9,22.5,14.2,39,14.2C297.8,223.7,333.3,158.6,333.3,101.9 M422.2,76.7
			c-1-1.2-0.7-0.7-0.7-0.7c0.8,6.3,1.2,12.8,1.2,19.3c0,100.5-66.8,192.8-167.4,192.8c-23.7,0-43.8-5.9-53.8-11.8h-1.2L176.7,398
			l0.8,0.7c26,13.7,55,23.7,85.8,29.5c54.5,7.8,92.2-4.5,122.9-40.6c31-34.8,53.4-91.7,64.2-160.4
			C458.7,160.7,451.4,110.8,422.2,76.7"/>
	</g>
	<g>
		<defs>
			<path id="SVGID_7_" d="M199.4,89.6c-0.2,1.9,2,4.3,2.5,6.2c0.5,1.8,1,4.5,0.6,6.7c-2.2,11.9-34.2,12.7-35,0
				c-0.3-5.2,4.8-7.6,4.5-12c-0.4-4.9-9.1-6.3-15.7-5.9c-3.8,0.2-8.5,1-9.8,3.1c1.6,9.1,3,23.1-0.8,30.5c-4.7,9.2-11.8-1.8-19.3,0
				c-3.3,0.8-5.7,6.8-6.2,10.9c-0.8,7.3,1.6,14.8,6.7,16.8c6.2-0.5,9.7-4.9,16.8-3.6c5.9,6.3,3.2,23.1,2.2,31.9
				c4.7,2,22.2,4.1,24.1-1.7c0.8-2.6-1.2-5.5-2-7c-1-2-2.6-4.5-2.5-7c0.7-13.7,33.1-13.4,35.5-2c1.3,6.3-3.8,11.2-2,15.7
				c0.9,2.1,5.4,3.1,8.4,3.4c6.2,0.6,13.7-1.1,17.9-3.6c-1.8-8.9-4-32.3,5.9-33c6.5-0.5,8.6,5.8,14.3,4.8c3.3-0.6,5.7-6.5,6.2-10.1
				c0.9-7.5-2.5-18.2-7.8-18.7c-5-0.5-7.6,5.3-13.1,4.2c-3.5-0.7-4.9-7-5.3-11.7c-0.6-7,0.6-14,0.8-19.3
				C222.3,85.2,200.1,83.1,199.4,89.6z"/>
		</defs>
		<clipPath id="SVGID_8_">
			<use xlink:href="#SVGID_7_"  style="overflow:visible;"/>
		</clipPath>
		<path class="st5" d="M154.8,62.8c-24.5,11.2-45.5,24.4-61.5,39c-38.1,33.8-49.3,74.9-42.1,127.3c6.7,42.1,24.9,79.6,51.6,110.6
			c0,0,0.6,0.4,0.5,0.2l44.5-235.7C149.9,91.9,154.8,62.8,154.8,62.8"/>
		<path class="st5" d="M333.3,101.9c0-23.1-9.5-47.3-37.3-47.3c-31.9,0-61.5,36.1-72.2,92.9l-10.6,62.1c9.5,8.9,22.5,14.2,39,14.2
			C297.8,223.7,333.3,158.6,333.3,101.9"/>
	</g>
	<g>
		<defs>
			<path id="SVGID_9_" d="M113.5,86.1c0,0,17.3-11.9,32.4-18.9c0,0,31.7-15.1,57.4-22.3c0,0-0.3,4.7,2.2,10.4c0,0,2.2,5.9,6.9,6.2
				c0,0,3.2,0.9,7.2-1.5c0,0,4.2-2.9,7.3-2.7c0,0,4.4,2.7,4.3,13c0,0-0.3,8.4-2.6,14.1c0,0-10.1-2.1-16.6-2.2c0,0-8-0.7-13.5,2.4
				c0,0-4.1,1.8-2.4,5.7c0,0,0.8,2,2.4,5.6c0,0,2.8,5.7-1.6,9c0,0-4.2,3.8-13.3,3.9c0,0-8.9,0.2-12.7-5.5c0,0-2.2-2.5,2-7.4
				c0,0,3.7-3.4,2-8.7c0,0-2.3-4.2-11.3-5c0,0-7.2-0.8-17.5,1.6c0,0-7.3,5-19,4.8C127,88.5,117,88.4,113.5,86.1z"/>
		</defs>
		<clipPath id="SVGID_10_">
			<use xlink:href="#SVGID_9_"  style="overflow:visible;"/>
		</clipPath>
		<path class="st6" d="M154.8,62.8c-24.5,11.2-45.5,24.4-61.5,39c-38.1,33.8-49.3,74.9-42.1,127.3c6.7,42.1,24.9,79.6,51.6,110.6
			c0,0,0.6,0.4,0.5,0.2l44.5-235.7C149.9,91.9,154.8,62.8,154.8,62.8"/>
	</g>
	<g>
		<defs>
			<path id="SVGID_11_" d="M52,170.9c0,0,3.5-25.3,24.2-51.1c0,0,15.5-19.9,35.7-32.6c0,0,2.7,3,8.3,4.1c0,0,5.7,1.1,10.8,0.6
				c0,0,8.5-0.8,11.2-1.8c0,0,2.9,3.3,3.4,10.7c0,0,1,12.7-3.5,17c0,0-1.8,2.5-6.5,0.5c0,0-0.9-0.4-4.4-2.7c0,0-3.2-2.3-6.8-0.2
				c0,0-4.3,1.8-6.2,9.6c0,0-1.5,5.2-0.6,12.6c0,0,0.9,7.6,4.7,10.4c0,0,2.5,2.9,8.8,0.9c0,0,2.8-0.9,5.7-2.3c0,0,4.4-2.1,6.2,1.7
				c0,0,3.1,4.8,1.2,16.8c0,0-0.1,4.1-2.5,7.8c0,0-7.5-1-14.8-1.4c0,0-7.7-0.4-11.9,0.9c0,0-6.5,1.2-6.1,6.6c0,0-0.5,1.5,3,7.1
				c0,0,3,4.4,1.2,7.7c0,0-2.3,4-10.3,5c0,0-6.3,1.1-14.1-3.7c0,0-5.7-3.8-2.7-8.4c0,0,1.1-1.8,2.4-3.9c0,0,2.9-5-1.6-8.2
				c0,0-3.2-3.3-13.9-4.7c0,0-6.2-0.9-10.3-0.1C62.8,169.7,54.4,171.3,52,170.9z"/>
		</defs>
		<clipPath id="SVGID_12_">
			<use xlink:href="#SVGID_11_"  style="overflow:visible;"/>
		</clipPath>
		<path class="st7" d="M154.8,62.8c-24.5,11.2-45.5,24.4-61.5,39c-38.1,33.8-49.3,74.9-42.1,127.3c6.7,42.1,24.9,79.6,51.6,110.6
			c0,0,0.6,0.4,0.5,0.2l44.5-235.7C149.9,91.9,154.8,62.8,154.8,62.8"/>
	</g>
	<g>
		<defs>
			<path id="SVGID_13_" d="M58.6,261.1c0,0-3.5-7.6-8.4-39.7c0,0-2-16-0.3-37.1c0,0,0.7-6.2,1.5-10.3c0,0,11.5-2.5,20.8-1.5
				c0,0,4.7,0,10.8,3.1c0,0,3.3,1.5,2.9,4.1c0,0,0.1,0.9-1.9,4.1c0,0-3.6,5.1,0,11.2c0,0,2.6,5.2,13.2,6.5c0,0,7.8,1.1,13.8-1.6
				c0,0,5.7-1.9,6.1-7.1c0,0,0.4-3.1-1.9-8.9c0,0-1.5-4.2-1.8-5.6c0,0,2.3-2.8,9.7-3.6c0,0,5.3-0.9,12.6,0.9c0,0,3.3,0.9,4.7,1.8
				c0,0-1.7,8.8-1.3,14.9c0,0,0.4,10,1.8,13.4c0,0,1,3.9,4.9,3.2c0,0,2.8-0.9,6.2-2.6c0,0,5.2-2.9,9.2-0.1c0,0,4.9,3.3,4.7,15.7
				c0,0,0.3,5.4-5.1,11.3c0,0-2.2,2.8-7.6,0.1c0,0-7-4.2-10.4-2.2c0,0-4.9,1.6-5.2,12.1c0,0-0.7,6.2,1.1,16c0,0-4.1,4.5-16.9,3.5
				c0,0-11.7-1.1-11.5-5.4c0,0-0.3-1.8,2-5.4c0,0,3.6-4.6,1.6-9.6c0,0-1.4-6.1-11.3-8c0,0-7.9-1.9-16.3,1.3c0,0-6.5,1.9-7.6,8
				c0,0-0.9,2.5,2.5,8.1c0,0,3.8,5,1,7.7c0,0-2.1,3.2-14.4,3.1C68,262.7,62.1,262.6,58.6,261.1z"/>
		</defs>
		<clipPath id="SVGID_14_">
			<use xlink:href="#SVGID_13_"  style="overflow:visible;"/>
		</clipPath>
		<path class="st8" d="M154.8,62.8c-24.5,11.2-45.5,24.4-61.5,39c-38.1,33.8-49.3,74.9-42.1,127.3c6.7,42.1,24.9,79.6,51.6,110.6
			c0,0,0.6,0.4,0.5,0.2l44.5-235.7C149.9,91.9,154.8,62.8,154.8,62.8"/>
	</g>
	<g>
		<defs>
			<path id="SVGID_15_" d="M109.7,347.6c0,0-16.4-15.9-29.2-38.2c0,0-16.6-28.1-20.8-44.7c0,0,7.2,0.7,11.1,0.6
				c0,0,5.8,0.1,10.5-1.8c0,0,4.5-1.9,5.2-4.7c0,0,0.8-3.4-1.5-6.6c0,0-4.1-4.4-2.6-8.1c0,0,1.5-3.7,7.3-5.7c0,0,5.2-2.4,12.9-0.4
				c0,0,7.9,2,8.6,6.7c0,0,0.6,2.3-1.1,5.3c0,0-1.8,3-2.7,6.1c0,0-1.2,2.9,1,5.2c0,0,3.2,4,11.3,4.6c0,0,8.5,1,19.3-2.2
				c0,0,2.9,5.1,3.3,13.3c0,0,0.9,7.8-2.3,13.1c0,0-1.7,4.4-5.8,2.7c0,0-1.6-0.4-4.8-2.7c0,0-2.6-2-5.8-1.5c0,0-3.5,0.4-5.8,3.8
				c0,0-3.5,4.6-3.9,12.9c0,0-0.5,7.8,2.6,13c0,0,2.2,4.2,5,5.3c0,0,2.7,0.9,6.7-1l4.5-2.1c0,0,2.7-1.8,5.6-0.2c0,0,2.5,1.7,3,7.8
				c0,0,0.9,6.3-0.7,13.6c0,0-0.4,2.7-1.4,4.9c0,0-6.4-1.1-14.2-1.5c0,0-8.7,0-11.5,0.9C113.6,346.1,110.2,347,109.7,347.6z"/>
		</defs>
		<clipPath id="SVGID_16_">
			<use xlink:href="#SVGID_15_"  style="overflow:visible;"/>
		</clipPath>
		<path class="st9" d="M154.8,62.8c-24.5,11.2-45.5,24.4-61.5,39c-38.1,33.8-49.3,74.9-42.1,127.3c6.7,42.1,24.9,79.6,51.6,110.6
			c0,0,0.6,0.4,0.5,0.2l44.5-235.7C149.9,91.9,154.8,62.8,154.8,62.8"/>
	</g>
	<g>
		<defs>
			<path id="SVGID_17_" d="M226.5,176.6c-6.7,1.6-18.9,3.5-26.3,0.8c-1.7-0.6-4.3-2.5-4.8-4.2c-1.5-6,3.9-9.5,2.8-15.1
				c-1-4.9-9.3-7.6-15.9-7.3c-5.2,0.3-13.4,3.2-13.4,8.4c0,2.1,1.8,4.6,2.8,6.7c2,4.4,3.5,8.3-0.8,10.9c-5.4,3.3-17.8,2.3-26,0.8
				c-2.9,6.5-4.6,21.3,0.6,26.8c5.4,0.3,7.4-4,12.9-3.4c2.1,0.2,5.2,2.3,6.4,3.6c6.9,7.3,5,30.3-3.9,32.7
				c-5.5,1.5-10.7-4.6-15.7-3.4c-5.8,1.5-7.2,20-2.8,24.3c4.2-0.4,8.5-2.7,14.5-2.8c7.4-0.2,17.2,0.9,17.9,6.7
				c0.7,6.4-5.3,8-4.8,12.9c0.3,2.9,4.7,5.5,6.7,6.2c6.7,2.3,20.5,0.5,21.8-6.4c0.8-4.4-4.3-8.8-3.1-13.7c0.3-1.3,2.4-2.7,3.9-3.4
				c7.5-3.1,21-0.8,29.4,0.8c2.8-4.1,4.2-25.1-2.5-26c-4.8-0.7-7.6,4.8-12,4.8c-14.6-0.1-14.4-33.8-1.4-35.8
				c5.5-0.8,7.3,2.7,14.3,2.8C232.1,198.2,230.7,183,226.5,176.6z"/>
		</defs>
		<clipPath id="SVGID_18_">
			<use xlink:href="#SVGID_17_"  style="overflow:visible;"/>
		</clipPath>
		<path class="st10" d="M333.3,101.9c0-23.1-9.5-47.3-37.3-47.3c-31.9,0-61.5,36.1-72.2,92.9l-10.6,62.1c9.5,8.9,22.5,14.2,39,14.2
			C297.8,223.7,333.3,158.6,333.3,101.9"/>
	</g>
	<g>
		<defs>
			<path id="SVGID_19_" d="M288,177.2c-0.2,1.6,2,5.8,2.5,7c0.9,2.1,2.6,4.3,2,7.8c-0.6,3-5.2,6.1-7.5,7c-10.6,3.9-27.8,0.2-28-10.3
				c0-3.5,3.8-8,3.4-10.9c-0.4-2.6-4.6-3.8-7.6-4.5c-7.1-1.7-16.1-1.7-21.8,1.4c1.6,6.6,3.5,13.6,2.5,22.1
				c-0.6,4.9-2.2,11.1-6.7,11.5c-5.6,0.4-8.5-4.3-13.4-3.4c-3.4,0.7-6.2,5.7-7,9.5c-1.3,6.4,1,18.6,6.7,19.6c5.9,1,8.3-5.9,14.5-4.8
				c8.7,1.6,6.4,21.7,5.3,30.2c4.4,3.4,24.9,3.4,26-2.5c0.3-1.9-1.7-4.8-2.2-5.9c-0.9-1.7-2.3-4-2.5-5.9c-0.6-4.7,2.5-7.6,5-9.2
				c7.5-4.8,27.1-4.5,30.5,4.2c1.1,2.8,0.5,7-0.6,9.8c-0.7,1.9-3.4,4.8-2.8,7.3c1.3,5.9,21.6,5.9,25.7,2.2c0.3-1.9-1.1-4.5-1.4-6.7
				c-1.1-7.9-1-22.9,4.8-24.3c6.1-1.6,10.1,3.8,15.7,2.5c6-1.4,7.6-13.4,5.9-20.7c-0.7-2.8-3.8-7.7-7.6-7.8c-4.2-0.1-8.2,5.4-14,3.4
				c-5.2-1.8-5.9-14.6-4.8-22.4c0.5-3.5,2.4-5.9,1.7-9.5C306.6,172.1,288.8,171.4,288,177.2z"/>
		</defs>
		<clipPath id="SVGID_20_">
			<use xlink:href="#SVGID_19_"  style="overflow:visible;"/>
		</clipPath>
		<path class="st11" d="M333.3,101.9c0-23.1-9.5-47.3-37.3-47.3c-31.9,0-61.5,36.1-72.2,92.9l-10.6,62.1c9.5,8.9,22.5,14.2,39,14.2
			C297.8,223.7,333.3,158.6,333.3,101.9"/>
	</g>
	<g>
		<defs>
			<path id="SVGID_21_" d="M406.3,87.7c0,0,6.2,1.1,13.3,1.3c0,0,8.2,0,11-0.9c0,0,3.7,5.2,8.8,15.9c0,0,5.7,12.8,8.9,26
				c0,0,2.8,10.1,4.3,26.7c0,0,1.3,13.2,1,25c0,0-0.3,12.2-0.4,15c0,0-4.2,0.8-8.4-0.2c0,0-8.4-2.3-9.8-7.6c0,0-0.5-2.1,1.7-5.3
				c0,0,2.1-2.7,2.1-5.4c0,0,0.9-3.4-3.4-6.1c0,0-3.8-3.3-13.8-4.2c0,0-8.6-1.2-17.7,2.1c0,0-3.7-5.3-2.7-16.9c0,0,0.8-9.5,6.1-11.9
				c0,0,2.6,0.5,5.4,2.6c0,0,3,2.5,6.7,2.4c0,0,3.7,0.2,6.2-2.8c0,0,3.9-4.1,3.9-14.6c0,0,0.3-10.8-4.7-16c0,0-2.5-2.5-6.3-2
				c0,0-2.5,0.2-7.8,2.5c0,0-2.5,1.5-3.9,0.2c0,0-4.1-2.9-3.3-14C403.7,99.8,404.1,93.1,406.3,87.7z"/>
		</defs>
		<clipPath id="SVGID_22_">
			<use xlink:href="#SVGID_21_"  style="overflow:visible;"/>
		</clipPath>
		<path class="st12" d="M422.2,76.7c-1-1.2-0.7-0.7-0.7-0.7c0.8,6.3,1.2,12.8,1.2,19.3c0,100.5-66.8,192.8-167.4,192.8
			c-23.7,0-43.8-5.9-53.8-11.8h-1.2L176.7,398l0.8,0.7c26,13.7,55,23.7,85.8,29.5c54.5,7.8,92.2-4.5,122.9-40.6
			c31-34.8,53.4-91.7,64.2-160.4C458.7,160.7,451.4,110.8,422.2,76.7"/>
	</g>
	<g>
		<defs>
			<path id="SVGID_23_" d="M380.3,206.5c1.6-2.5,3.4-4.8,6.2-5.6c5.1-1.4,9.6,3.1,15.1,2.8c5.2-5.7,4-22.1-0.3-28
				c-7.1,1.7-20.6,3.3-27.4,0c-1.3-0.6-3.3-2.5-3.6-3.9c-1.2-5.6,4-9.8,2.8-15.4c-1-4.7-9-7.5-15.4-7.3c-5.6,0.2-13.1,2.5-13.7,7.5
				c-0.7,5.8,6,8.9,4.5,15.4c-0.8,3.6-7.1,4.8-11.7,5c-8.1,0.5-15-1.4-20.1-2c-1.7,3.6-3.3,7.8-3.4,13.7c-0.1,4.6,0.7,13.7,5,14.3
				c3.2,0.4,6.3-3.4,9.5-3.9c10.8-1.6,14.3,11.2,12.9,21.5c-0.7,5.3-3.8,12.7-8.9,13.4c-5.5,0.8-10.4-4.7-15.4-2.5
				c-2.7,1.2-3.8,6.7-3.9,11.7c-0.1,3.3,0.6,13.3,2.8,14.5c1.5,0.8,4-1.1,6.2-1.7c2.4-0.6,5.6-1,7.6-1.1c7.1-0.5,19,0.2,20.7,5.3
				c2.1,6.2-4.7,10.2-4.5,14c0.1,2.4,3.7,5.2,6.2,6.2c7.7,3.1,21.6-0.1,22.7-5.9c0.9-5.1-3.4-8.3-3.4-14c6.2-7.8,22.4-4.1,32.4-3.4
				c1.1-2,1.9-5.4,2.2-8.1c0.4-3.4,0-9.3-0.8-12.6c-2.7-10.1-10.7,1-17.6-0.3c-9.2-1.6-10.8-16.3-7.8-26.8
				C378.9,209.6,379.6,207.9,380.3,206.5z"/>
		</defs>
		<clipPath id="SVGID_24_">
			<use xlink:href="#SVGID_23_"  style="overflow:visible;"/>
		</clipPath>
		<path class="st13" d="M422.2,76.7c-1-1.2-0.7-0.7-0.7-0.7c0.8,6.3,1.2,12.8,1.2,19.3c0,100.5-66.8,192.8-167.4,192.8
			c-23.7,0-43.8-5.9-53.8-11.8h-1.2L176.7,398l0.8,0.7c26,13.7,55,23.7,85.8,29.5c54.5,7.8,92.2-4.5,122.9-40.6
			c31-34.8,53.4-91.7,64.2-160.4C458.7,160.7,451.4,110.8,422.2,76.7"/>
	</g>
	<g>
		<defs>
			<path id="SVGID_25_" d="M282.7,257.4c0.3-6,4.9-9.1,4.2-14c-0.9-6-10.6-7.9-17.3-7.3c-5.7,0.6-12,4-12,8.4
				c0,4.6,5.4,7.1,4.8,12.6c-0.2,2-1.9,3.5-3.6,4.5c-6.5,3.7-20.3,2.9-28.2,1.4c-3.3,6.9-5.4,21.9,1.4,26.6
				c4.2-0.3,7.4-3.6,11.5-3.4c13.7,0.9,13.1,33.5,1.7,35.2c-6.3,1-8.6-4.1-13.7-5c-7.2,3.9-7.8,21.2-3.4,28.8c5.7-1,10.6-2.5,17.3-2
				c7,0.6,16.4,2.9,17.3,8.4c1,5.7-4.7,7.7-3.6,13.1c0.4,2,3.5,4.7,5.6,5.6c7.2,3.3,20.5,1.5,22.4-4.5c1.6-5.1-5-9.9-4.5-14.5
				c0.3-2.5,2.6-4.1,4.5-5c6.4-3.3,18.8-2.2,26.3-1.1c3.2-5.4,3.4-24.3-2.5-25.4c-2.9-0.6-6.4,2.6-8.9,2.8
				c-16.6,1-16.6-34.3-3.1-35.8c4.8-0.5,8.3,3.6,12.9,2.5c3.2-0.8,5-7.6,5.3-12.3c0.3-5.5-0.8-11.3-2.5-14.5
				C304.3,265.4,286.9,266.5,282.7,257.4z"/>
		</defs>
		<clipPath id="SVGID_26_">
			<use xlink:href="#SVGID_25_"  style="overflow:visible;"/>
		</clipPath>
		<path class="st14" d="M422.2,76.7c-1-1.2-0.7-0.7-0.7-0.7c0.8,6.3,1.2,12.8,1.2,19.3c0,100.5-66.8,192.8-167.4,192.8
			c-23.7,0-43.8-5.9-53.8-11.8h-1.2L176.7,398l0.8,0.7c26,13.7,55,23.7,85.8,29.5c54.5,7.8,92.2-4.5,122.9-40.6
			c31-34.8,53.4-91.7,64.2-160.4C458.7,160.7,451.4,110.8,422.2,76.7"/>
	</g>
	<g>
		<defs>
			<path id="SVGID_27_" d="M201.9,276.7c-3.2,11.3-31.4,12.6-34.4,1.1c-1.8-6.8,4.9-8.6,4.2-14c-1.1-8.4-25.7-6.3-28.8-1.7
				c1.4,10.8,3.6,23.2-0.6,30.2c-1,1.7-3.4,3.5-5.3,3.6c-5.9,0.3-7.3-5.1-11.7-5c-3.7,0.1-6.6,5-7.6,8.1c-2.3,7.2-0.3,19.8,6.7,20.4
				c6,0.6,9-5.9,15.7-3.4c1.9,0.7,3.4,4.1,3.9,7c1.4,8,0,16.4-0.6,24.1c6.2,2.7,20.7,4.4,25.7-0.6c0.3-4.9-2.2-6.6-3.4-9.5
				c-7.3-18.6,31.4-18.9,34.4-6.4c1.2,5.1-2.9,10.5-2.5,14c0.4,4,6.7,5.3,11.5,5.3c5.7,0,12.9-1.7,15.1-3.9
				c-1.7-9.2-2.9-25.5,2.8-31c5.3-5.1,11.5,4.2,17.6,3.1c3.6-0.6,6.2-7.5,6.4-11.7c0.3-7.1-2.7-16.6-8.1-17.1
				c-4.7-0.4-7.8,5.2-12.9,4.2c-7.4-1.5-5.4-23.5-3.9-31c-6-3.5-21.3-4.9-26.8,0C199.1,270.1,203.3,271.7,201.9,276.7z"/>
		</defs>
		<clipPath id="SVGID_28_">
			<use xlink:href="#SVGID_27_"  style="overflow:visible;"/>
		</clipPath>
		<path class="st15" d="M422.2,76.7c-1-1.2-0.7-0.7-0.7-0.7c0.8,6.3,1.2,12.8,1.2,19.3c0,100.5-66.8,192.8-167.4,192.8
			c-23.7,0-43.8-5.9-53.8-11.8h-1.2L176.7,398l0.8,0.7c26,13.7,55,23.7,85.8,29.5c54.5,7.8,92.2-4.5,122.9-40.6
			c31-34.8,53.4-91.7,64.2-160.4C458.7,160.7,451.4,110.8,422.2,76.7"/>
	</g>
	<g>
		<defs>
			<path id="SVGID_29_" d="M389.8,352.5c0,0,7.4-1.3,10.3-2.2c0,0,4.2-1.6,7.7-2.3c0,0,4.4-0.9,5.8-0.6c0,0-4,7.7-7.3,13
				c0,0-8.6,14.3-14.4,20.8c0,0-10.7,13.1-17,18.6c0,0-13,13-30.8,20.7c0,0-12.3,5.8-26.2,8c0,0-2,0.4-4.3,0.7c0,0-2.5-3.5-1.7-13.2
				c0,0,0.5-7,4.1-10c0,0,3-0.3,6.1,1.3c0,0,4,2.2,7.7,1.9c0,0,3.2,0.2,6-3.3c0,0,3-2.9,3.7-11.2c0,0,1.2-8.2-2.2-15.3
				c0,0-1.9-5.2-7.3-5.3c0,0-3.3-0.5-6.1,1.2c0,0-1.1,0.7-3.5,2c0,0-1.8,1.3-4,0.2c0,0-3.1-1.8-3.6-9c0,0-0.7-6.6,1.5-14.1
				c0,0,0.7-2.7,2-4c0,0,7.1,1.8,11.8,2c0,0,6,0.6,10.5-0.2c0,0,6.5-0.7,9-4.7c0,0,0.8-3.7-1.3-7.2c0,0-2.8-4-3-6.5
				c0,0-1.1-4.1,3.3-6.6c0,0,3.8-2.5,9.7-2.9c0,0,6.4-0.5,11.8,2.6c0,0,4.2,2,4.4,5.5c0,0,0.5,2.2-1.5,6c0,0-3.3,5.3-1.3,9.2
				c0,0,1.8,4.2,8.9,5C378.6,352.5,383.7,353.5,389.8,352.5z"/>
		</defs>
		<clipPath id="SVGID_30_">
			<use xlink:href="#SVGID_29_"  style="overflow:visible;"/>
		</clipPath>
		<path class="st16" d="M422.2,76.7c-1-1.2-0.7-0.7-0.7-0.7c0.8,6.3,1.2,12.8,1.2,19.3c0,100.5-66.8,192.8-167.4,192.8
			c-23.7,0-43.8-5.9-53.8-11.8h-1.2L176.7,398l0.8,0.7c26,13.7,55,23.7,85.8,29.5c54.5,7.8,92.2-4.5,122.9-40.6
			c31-34.8,53.4-91.7,64.2-160.4C458.7,160.7,451.4,110.8,422.2,76.7"/>
	</g>
	<g>
		<defs>
			<path id="SVGID_31_" d="M142.2,351.1c0,0,7.7,1.4,15.1,1.9c0,0,10.2,0.7,14.4-3.8c0,0,2.8-2.5-0.7-8.6c0,0-4.2-6.1-2.3-10.2
				c0,0,2-4.7,11.6-5.5c0,0,6.5-0.6,12,2c0,0,6.5,2.4,5,8.5c0,0-0.6,2.1-1.3,3.8c0,0-3.1,5.8-1.1,9.4c0,0,2.1,3.9,10.1,4.7
				c0,0,7.1,0.7,20.3-1.9c0,0,3.9,5.5,3.6,15c0,0-0.3,1.4-1.8,2.4c0,0-2.1,1.9-6.1,0.3c0,0-4.7-2.5-6.6-2.7c0,0-7.6-2.2-11.4,9
				c0,0-4.4,11.8,1.3,21.6c0,0,3.3,5.5,8.6,5.3c0,0,2,0.1,5.7-2.5c0,0,4.1-3.5,6.8-2.3c0,0,8,3.6,3.5,22.3c0,0-19.4-5.4-45.8-18.2
				c0,0-20.2-9.9-33.6-19.8c0,0-4.3-2.8-9.2-6.7c0,0-16.2-12.3-29.3-26c0,0,10.2-2.4,19.4-0.2C130.6,349,136.1,349.9,142.2,351.1z"
				/>
		</defs>
		<clipPath id="SVGID_32_">
			<use xlink:href="#SVGID_31_"  style="overflow:visible;"/>
		</clipPath>
		<path class="st17" d="M422.2,77c-1-1.2-0.7-0.7-0.7-0.7c0.8,6.3,1.2,12.8,1.2,19.3c0,100.5-66.8,192.8-167.4,192.8
			c-23.7,0-43.8-5.9-53.8-11.8h-1.2l-23.5,121.7l0.8,0.7c26,13.7,55,23.7,85.8,29.5c54.5,7.8,92.2-4.5,122.9-40.6
			c31-34.8,53.4-91.7,64.2-160.4C458.7,160.9,451.4,111.1,422.2,77"/>
	</g>
	<g>
		<defs>
			<path id="SVGID_33_" d="M310.9,429.4c0,0-8.1,1.4-25.6,0.9c0,0-19.5-0.5-34-4.5c0,0-13.2-2.8-19.6-5.1c0,0,2.9-10.2,0.9-17.4
				c0,0-1.8-10.3-10-8.6c0,0-1.1,0.3-5.6,3.4c0,0-3,2.4-6.7,1.3c0,0-4.5-2.4-5.3-9.1c0,0-0.9-5.6,0.6-12.4c0,0,2.3-8.7,8.4-8.1
				c0,0,2.7,0.3,6.2,3c0,0,5.3,2.8,9.3-1.2c0,0,2-1.5,2.9-6.1c0,0,0.3-3.3-0.9-8.5c0,0-1.3-5-1.6-7.9c0,0,2.7-2.2,12-2.7
				c0,0,5.7-0.6,12.3,2c0,0,6.4,2.1,4.6,6.2c0,0-0.3,1.8-2.5,5.5c0,0-2.6,4.9,2.3,9.9c0,0,4.7,4.7,15.3,4.8c0,0,7.6,0.4,13.1-3.3
				c0,0,5.4-2.7,3.4-10c0,0-0.3-1.7-3.2-6c0,0-2.3-3,0.1-5c0,0,2.9-3.2,11.8-3c0,0,7.1-0.4,12.6,1.9c0,0,0.1,1.9-0.8,7.6
				c0,0-2.3,9.8-0.6,16c0,0,1.1,6.1,5,7.6c0,0,3.4,1.7,9.3-2c0,0,3.2-2.4,6.1-1c0,0,3.4,1.1,5,8.7c0,0,2.5,10.4-2.4,16.5
				c0,0-2.9,3.8-8.9,1.5c0,0-5.7-2.5-8.9-1.9c0,0-4.6,0.1-5.8,9c0,0-0.9,5-0.3,12.1C309.4,423.9,309.6,427,310.9,429.4z"/>
		</defs>
		<clipPath id="SVGID_34_">
			<use xlink:href="#SVGID_33_"  style="overflow:visible;"/>
		</clipPath>
		<path class="st18" d="M422.2,77c-1-1.2-0.7-0.7-0.7-0.7c0.8,6.3,1.2,12.8,1.2,19.3c0,100.5-66.8,192.8-167.4,192.8
			c-23.7,0-43.8-5.9-53.8-11.8h-1.2l-23.5,121.7l0.8,0.7c26,13.7,55,23.7,85.8,29.5c54.5,7.8,92.2-4.5,122.9-40.6
			c31-34.8,53.4-91.7,64.2-160.4C458.7,160.9,451.4,111.1,422.2,77"/>
	</g>
	<g>
		<defs>
			<path id="SVGID_35_" d="M443.2,264.8c0,0-9.8,44.8-28.7,80.8c0,0-7.8-1.1-20.5,2.5c0,0-8.1,2-12.3,1.2c-2.9-0.5-8-1.4-8.9-3.4
				c-2-4.4,3.7-9.8,2.5-15.4c-2.4-11.3-30.6-11.9-35.2-1.7c-3.1,7,3.9,9.5,3.6,17.3c-5.2,5.1-20.9,3.5-26.6,0
				c0.5-6.2,1.4-10.7,0.6-17.1c-0.6-4.7-2.1-12.1-5.3-12.9c-4.6-1.2-8.5,3.6-13.4,2.5c-5.6-1.2-7.8-10.2-7.5-16.8
				c0.2-4.5,3.1-11.1,6.4-12c5.7-1.7,8.8,4.8,14.5,3.6c1.5-0.3,3.6-2.9,4.2-3.9c2.8-5.1,3-14.8,2-22.7c-0.2-1.6-1.2-3.7-0.8-5
				c1-3.8,12.6-4.8,18.7-4.2c4.3,0.4,9.5,2.4,10.1,5.3c0.8,4.6-4.3,6.9-4.5,11.5c-0.4,11.3,19.5,13.1,28.5,8.4
				c2.2-1.1,6.2-4.1,6.7-6.4c0.7-3-0.5-5.5-1.1-7.6c-0.6-2-2.4-4.4-1.7-6.7c1-3.1,9.5-3.6,14.3-3.4c0,0,10,0.4,23.4,3.9
				c0,0,9.7,1.8,16.2,1.8C428.2,264.7,439.4,265.2,443.2,264.8z"/>
		</defs>
		<clipPath id="SVGID_36_">
			<use xlink:href="#SVGID_35_"  style="overflow:visible;"/>
		</clipPath>
		<path class="st19" d="M422.2,77.3c-1-1.2-0.7-0.7-0.7-0.7c0.8,6.3,1.2,12.8,1.2,19.3c0,100.5-66.8,192.8-167.4,192.8
			c-23.7,0-43.8-5.9-53.8-11.8h-1.2l-23.5,121.7l0.8,0.7c26,13.7,55,23.7,85.8,29.5c54.5,7.8,92.2-4.5,122.9-40.6
			c31-34.8,53.4-91.7,64.2-160.4C458.7,161.2,451.4,111.4,422.2,77.3"/>
	</g>
	<g>
		<defs>
			<path id="SVGID_37_" d="M443.9,261.1c-18.7,0.9-27.9-0.3-27.9-0.3s-6.7-0.6-9.3-2.3c0,0,1.3-6,1.4-12.9c0,0,0.2-7.6-1-10.8
				c0,0-0.6-3.8-3.1-5.5c0,0-2.1-1.6-5.4-0.7c0,0-0.9,0.2-5.2,2.7c0,0-3.2,2.3-6.3,1.8c0,0-4-0.2-6.4-9.4c0,0-1.5-4.8-0.1-10
				c0,0,1.4-6.6,5.6-9.2c0,0,2-1.2,4.8-0.4c0,0,1.8,0.5,4.1,1.7c0,0,3.7,2,6,1.8c0,0,2.2,0.2,3.9-2.3c0,0,3.1-3.6,3.3-11.9
				c0,0,0.3-6.3-1.2-13.1c0,0-0.8-4.2-1.3-6.2c0,0,3.2-2.2,9.8-2.6c0,0,3.4-0.4,9,0.6c0,0,4.5,0.7,7.7,2.3c0,0,3.3,1.5,2.5,4.8
				c0,0,0,1.2-2.1,4.9c0,0-1.4,1.9-1.2,4.7c0,0-0.1,4.7,5.3,8c0,0,3.3,2.4,9,3.1c0,0,5.1,0.7,7,0.3c0,0-0.7,17.5-3.3,31.7
				C449.6,232.1,445.8,254.4,443.9,261.1"/>
		</defs>
		<clipPath id="SVGID_38_">
			<use xlink:href="#SVGID_37_"  style="overflow:visible;"/>
		</clipPath>
		<path class="st20" d="M422.2,77.3c-1-1.2-0.7-0.7-0.7-0.7c0.8,6.3,1.2,12.8,1.2,19.3c0,100.5-66.8,192.8-167.4,192.8
			c-23.7,0-43.8-5.9-53.8-11.8h-1.2l-23.5,121.7l0.8,0.7c26,13.7,55,23.7,85.8,29.5c54.5,7.8,92.2-4.5,122.9-40.6
			c31-34.8,53.4-91.7,64.2-160.4C458.7,161.2,451.4,111.4,422.2,77.3"/>
	</g>
	<path class="st1" d="M599,30.9c-3.3,10-36.6,12.8-34.7-4.2c0.5-3.9,5.1-5.5,4.2-10.1c-0.8-4.1-9.6-5.9-15.4-5.6
		c-5.6,0.3-10.5,2-13.4,4.2c1,7.4,2.4,20.5-0.6,26.8c-0.8,1.7-3.2,4.7-4.8,5c-5.3,1.1-9.2-5-14.5-3.6c-1.5,0.4-3.5,2.9-4.5,4.8
		c-3,5.8-1.9,16.5,1.1,21c5,7.2,9.5,1.2,18.2,0.8c6.2,5.4,6,19.7,4.5,30.2c2.5,1.6,7.4,2.6,12.9,2.8c4.6,0.2,11.8,0.2,13.4-2.2
		c3-4.6-4-9.6-3.9-14.8c0.3-14.7,35.5-13.9,36.4,0c0.3,5-3.6,6.5-2.8,14.3c5.8,4.8,20.3,3.4,26.3-0.3c-0.7-6.9-2.2-14.9-0.8-22.9
		c0.7-4,3-10.7,7.8-10.3c0.8,0.1,2.3,1.1,3.1,1.4c2.8,1.3,7.3,4.4,10.3,3.9c4.4-0.7,6.5-9,6.7-12.6c0.3-6.7-3.2-16.1-8.1-16.5
		c-4.5-0.4-8.2,5.5-13.1,4.2c-1.8-0.5-3.6-3.8-4.2-6.2c-1.9-7.2-0.5-18.7,0.6-24.9c-6.2-3.7-22.5-5.5-27.4,0.6
		C597.6,21.1,600.8,25.6,599,30.9z"/>
	<g>
		<defs>
			<path id="SVGID_39_" d="M599,30.9c-3.3,10-36.6,12.8-34.7-4.2c0.5-3.9,5.1-5.5,4.2-10.1c-0.8-4.1-9.6-5.9-15.4-5.6
				c-5.6,0.3-10.5,2-13.4,4.2c1,7.4,2.4,20.5-0.6,26.8c-0.8,1.7-3.2,4.7-4.8,5c-5.3,1.1-9.2-5-14.5-3.6c-1.5,0.4-3.5,2.9-4.5,4.8
				c-3,5.8-1.9,16.5,1.1,21c5,7.2,9.5,1.2,18.2,0.8c6.2,5.4,6,19.7,4.5,30.2c2.5,1.6,7.4,2.6,12.9,2.8c4.6,0.2,11.8,0.2,13.4-2.2
				c3-4.6-4-9.6-3.9-14.8c0.3-14.7,35.5-13.9,36.4,0c0.3,5-3.6,6.5-2.8,14.3c5.8,4.8,20.3,3.4,26.3-0.3c-0.7-6.9-2.2-14.9-0.8-22.9
				c0.7-4,3-10.7,7.8-10.3c0.8,0.1,2.3,1.1,3.1,1.4c2.8,1.3,7.3,4.4,10.3,3.9c4.4-0.7,6.5-9,6.7-12.6c0.3-6.7-3.2-16.1-8.1-16.5
				c-4.5-0.4-8.2,5.5-13.1,4.2c-1.8-0.5-3.6-3.8-4.2-6.2c-1.9-7.2-0.5-18.7,0.6-24.9c-6.2-3.7-22.5-5.5-27.4,0.6
				C597.6,21.1,600.8,25.6,599,30.9z"/>
		</defs>
		<clipPath id="SVGID_40_">
			<use xlink:href="#SVGID_39_"  style="overflow:visible;"/>
		</clipPath>
		<path class="st21" d="M554.6,30.8c0-23.1-9.5-47.3-37.3-47.3c-31.9,0-61.5,36.1-72.2,92.9l-10.6,62.1c9.5,8.9,22.5,14.2,39,14.2
			C519.1,152.7,554.6,87.6,554.6,30.8"/>
		<path class="st21" d="M643.4,5.7c-1-1.2-0.7-0.7-0.7-0.7c0.8,6.3,1.2,12.8,1.2,19.3c0,100.5-66.8,192.8-167.4,192.8
			c-23.7,0-43.8-5.9-53.8-11.8h-1.2L398,327l0.8,0.7c26,13.7,55,23.7,85.8,29.5c54.5,7.8,92.2-4.5,122.9-40.6
			c31-34.8,53.4-91.7,64.2-160.4C679.9,89.6,672.6,39.8,643.4,5.7"/>
	</g>
	<path class="st22" d="M377.8,101.7c-3.3,10-36.6,12.8-34.7-4.2c0.5-3.9,5.1-5.5,4.2-10.1c-0.8-4.1-9.6-5.9-15.4-5.6
		c-5.6,0.3-10.5,2-13.4,4.2c1,7.4,2.4,20.5-0.6,26.8c-0.8,1.7-3.2,4.7-4.8,5c-5.3,1.1-9.2-5-14.5-3.6c-1.5,0.4-3.5,2.9-4.5,4.8
		c-3,5.8-1.9,16.5,1.1,21c5,7.2,9.5,1.2,18.2,0.8c6.2,5.4,6,19.7,4.5,30.2c2.5,1.6,7.4,2.6,12.9,2.8c4.6,0.2,11.8,0.2,13.4-2.2
		c3-4.6-4-9.6-3.9-14.8c0.3-14.7,35.5-13.9,36.4,0c0.3,5-3.6,6.5-2.8,14.3c5.8,4.8,20.3,3.4,26.3-0.3c-0.7-6.9-2.2-14.9-0.8-22.9
		c0.7-4,3-10.7,7.8-10.3c0.8,0.1,2.3,1.1,3.1,1.4c2.8,1.3,7.3,4.4,10.3,3.9c4.4-0.7,6.5-9,6.7-12.6c0.3-6.7-3.2-16.1-8.1-16.5
		c-4.5-0.4-8.2,5.5-13.1,4.2c-1.8-0.5-3.6-3.8-4.2-6.2c-1.9-7.2-0.5-18.7,0.6-24.9c-6.2-3.7-22.5-5.5-27.4,0.6
		C376.4,91.9,379.6,96.3,377.8,101.7z"/>
</g>
<g id="Ebene_2" class="st23">
	<g class="st24">
		<g>
			<path class="st25" d="M410.2,162.7c0,0,90.6,40,153.2-43.2"/>
			<g>
				<polygon class="st26" points="572.4,130.6 574.5,102.8 549.3,114.9 				"/>
			</g>
		</g>
	</g>
	<g class="st24">
		<g>
			<path class="st25" d="M372.7,66.2c20.4-27.5,70.7-74.7,157-34.2"/>
			<g>
				<polygon class="st26" points="386.9,70.6 362,83.2 363.5,55.4 				"/>
			</g>
		</g>
	</g>
</g>
<g id="Ebene_3">
	<g>
		<path class="st27" d="M461.5,177.3c-30.2,0-52.4-9.6-53.3-10l-4.6-2l4-9.2l4.6,2c0.2,0.1,21.4,9.2,49.3,9.2c0.7,0,1.4,0,2.1,0
			c37-0.6,68.1-16.3,92.5-46.6l-8.7-6l28.3-13.6l-2.3,31.3l-8.9-6.1c-33.1,41.4-73.1,50.6-101,51
			C462.7,177.3,462.1,177.3,461.5,177.3L461.5,177.3z"/>
		<path class="st28" d="M574.5,102.8l-2.1,27.8l-8.3-5.6c-32.8,41.6-72.8,50.8-100.8,51.2c-0.6,0-1.3-0.2-1.9-0.2c0,0,0,0,0,0
			c-30,0-51.9-9.3-52.9-9.8l-3.7-1.5l3.2-7.3l3.7,1.6c0.4,0.2,21.5,9.3,49.7,9.3c0.7,0,1.4,0,2.1,0c37.7-0.6,69.3-16.7,94-47.8
			l-8.2-5.6L574.5,102.8 M576.8,99.5l-3.1,1.5l-25.2,12.1l-3.1,1.5l2.9,2l6.4,4.4c-24.1,29.6-54.8,44.8-91.1,45.4c-0.7,0-1.4,0-2,0
			c-27.7,0-48.7-9-48.9-9.1l-3.6-1.6l-1.8-0.8l-0.8,1.8l-3.2,7.3l-0.8,1.8l1.8,0.8l3.7,1.6c0.9,0.4,23.2,10.1,53.7,10.1
			c0.6,0,1.3,0,1.9,0c27.9-0.4,68-9.5,101.2-50.6l6.7,4.6l2.9,2l0.3-3.5l2.1-27.8L576.8,99.5L576.8,99.5z"/>
	</g>
	<g>
		<path class="st27" d="M362.6,53.6l9,5.9c10.5-13.2,28-30.6,53-40.5c13.1-5.1,26.9-7.7,41.3-7.7c20.8,0,43,5.5,65.9,16.2l4.5,2.1
			l-4.2,9.1l-4.5-2.1c-21.7-10.1-42.5-15.3-61.9-15.3c-41.7,0-69.6,23.5-85.7,43.7l8.8,5.8l-28,14.2L362.6,53.6z"/>
		<path class="st28" d="M465.9,12.3c20.7,0,42.6,5.4,65.5,16.1l3.6,1.7l-3.4,7.2l-3.6-1.7c-23.5-11-44.2-15.4-62.3-15.4
			c-43,0-71.3,24.8-87.2,44.9l8.3,5.4L362,83.3l1.5-27.9l8.4,5.4C382.7,47,400.2,29.7,425,19.9C438,14.8,451.7,12.3,465.9,12.3
			 M465.9,10.3c-14.5,0-28.5,2.6-41.6,7.8c-24.8,9.7-42.3,26.9-52.9,40.1l-6.8-4.4l-2.9-1.9l-0.2,3.5L360,83.1l-0.2,3.5l3.1-1.6
			l24.9-12.7l3.1-1.6l-2.9-1.9l-6.5-4.2c16.1-19.8,43.5-42.4,84.3-42.4c19.2,0,39.9,5.1,61.4,15.2l3.6,1.7l1.8,0.8l0.8-1.8l3.4-7.2
			l0.8-1.8l-1.8-0.8l-3.6-1.7C509.2,15.8,486.9,10.3,465.9,10.3L465.9,10.3z"/>
	</g>
</g>
</svg>
