<?xml version="1.0" standalone="no"?>
<!DOCTYPE svg PUBLIC "-//W3C//DTD SVG 1.1//EN" "http://www.w3.org/Graphics/SVG/1.1/DTD/svg11.dtd" >
<svg xmlns="http://www.w3.org/2000/svg" xmlns:xlink="http://www.w3.org/1999/xlink" version="1.1">
<metadata>
Created by FontForge 20150504 at Fri Jun 26 10:21:16 2015
 By Jimmy Wärting
Copyright (c) 2013 by Georg Seifert. All rights reserved.
</metadata>
<defs>
<font id="PlentyWeb-Light" horiz-adv-x="0" >
  <font-face 
    font-family="Plenty Web Light"
    font-weight="300"
    font-stretch="normal"
    units-per-em="1000"
    panose-1="0 0 4 0 0 0 0 0 0 0"
    ascent="800"
    descent="-200"
    x-height="446"
    cap-height="615"
    bbox="-344 -251 887 880"
    underline-thickness="40"
    underline-position="-47"
    unicode-range="U+0020-FB02"
  />
<missing-glyph horiz-adv-x="454" 
d="M372 -230h-288v907h288v-907zM152 616v-30h59v-33h-60v-30h151v30h-60v33h60v30h-150zM151 499v-94h151v31h-60v63h-91zM211 436h-30v32h30v-32zM151 380v-30h60v-33h-60v-30h91v63h60v30h-151zM272 326v-60h-121v-31h151v91h-30zM211 215v-50h31v20h30v-42h-91v72h-30
v-102h151v102h-91zM151 58v-102h151v102h-151zM272 -14h-91v42h91v-42zM151 -65v-30h64l-64 -42v-30h151v30h-92l63 42h29v30h-151z" />
    <glyph glyph-name="fi" unicode="fi" horiz-adv-x="521" 
d="M422 447v-447h-47v410h-220v-410h-47v410h-77v37h77v84q0 76 33 116.5t116 40.5q36 0 75 -9t70 -21l-12 -37q-28 12 -64.5 20.5t-68.5 8.5q-60 0 -81 -29.5t-21 -90.5v-83h267z" />
    <glyph glyph-name="fl" unicode="fl" horiz-adv-x="521" 
d="M422 655v-655h-47v632q-56 18 -113 18q-62 0 -84.5 -26.5t-22.5 -86.5v-90h137v-37h-137v-410h-47v410h-68v37h68v87q0 77 34.5 115.5t119.5 38.5q75 0 160 -33z" />
    <glyph glyph-name=".notdef" horiz-adv-x="454" 
d="M372 -230h-288v907h288v-907zM152 616v-30h59v-33h-60v-30h151v30h-60v33h60v30h-150zM151 499v-94h151v31h-60v63h-91zM211 436h-30v32h30v-32zM151 380v-30h60v-33h-60v-30h91v63h60v30h-151zM272 326v-60h-121v-31h151v91h-30zM211 215v-50h31v20h30v-42h-91v72h-30
v-102h151v102h-91zM151 58v-102h151v102h-151zM272 -14h-91v42h91v-42zM151 -65v-30h64l-64 -42v-30h151v30h-92l63 42h29v30h-151z" />
    <glyph glyph-name="space" unicode=" " horiz-adv-x="253" 
 />
    <glyph glyph-name="A" unicode="A" horiz-adv-x="515" 
d="M393 187h-276l-70 -187h-49l232 615h49l238 -615h-52zM132 226h246l-125 337z" />
    <glyph glyph-name="Aacute" unicode="&#xc1;" horiz-adv-x="515" 
d="M393 187h-276l-70 -187h-49l232 615h49l238 -615h-52zM132 226h246l-125 337zM360 765l-115 -102l-24 23l103 110z" />
    <glyph glyph-name="Abreve" unicode="&#x102;" horiz-adv-x="515" 
d="M393 187h-276l-70 -187h-49l232 615h49l238 -615h-52zM132 226h246l-125 337zM375 767q-8 -47 -39 -73t-83 -26q-51 0 -81.5 26t-39.5 73l36 4q17 -70 87 -70q37 0 56.5 18.5t27.5 51.5z" />
    <glyph glyph-name="Acircumflex" unicode="&#xc2;" horiz-adv-x="515" 
d="M393 187h-276l-70 -187h-49l232 615h49l238 -615h-52zM132 226h246l-125 337zM374 687l-19 -25l-101 57l-100 -57l-18 25l119 78z" />
    <glyph glyph-name="Adieresis" unicode="&#xc4;" horiz-adv-x="515" 
d="M393 187h-276l-70 -187h-49l232 615h49l238 -615h-52zM132 226h246l-125 337zM187 687q-10 -10 -26 -10t-25.5 10t-9.5 26q0 15 9.5 24.5t25.5 9.5t26 -9.5t10 -24.5q0 -16 -10 -26zM372.5 687q-9.5 -10 -25.5 -10t-25.5 10t-9.5 26q0 15 9.5 24.5t25.5 9.5t25.5 -9.5
t9.5 -24.5q0 -16 -9.5 -26z" />
    <glyph glyph-name="Agrave" unicode="&#xc0;" horiz-adv-x="515" 
d="M393 187h-276l-70 -187h-49l232 615h49l238 -615h-52zM132 226h246l-125 337zM287 690l-26 -26l-115 103l38 33z" />
    <glyph glyph-name="Amacron" unicode="&#x100;" horiz-adv-x="515" 
d="M393 187h-276l-70 -187h-49l232 615h49l238 -615h-52zM132 226h246l-125 337zM136 713h234v-34h-234v34z" />
    <glyph glyph-name="Aogonek" unicode="&#x104;" horiz-adv-x="515" 
d="M533 -167q-40 -20 -80 -20q-44 0 -65 20.5t-21 57.5q0 32 21.5 62.5t72.5 55.5l-68 178h-276l-70 -187h-49l232 615h49l238 -615h1q-54 -20 -82 -49.5t-28 -56.5q0 -23 14 -35t37 -12q26 0 63 16zM132 226h246l-125 337z" />
    <glyph glyph-name="Aring" unicode="&#xc5;" horiz-adv-x="515" 
d="M393 187h-276l-70 -187h-49l222 590q-25 9 -40 31.5t-15 50.5q0 37 25 62t63 25t63 -24.5t25 -62.5q0 -28 -14.5 -49.5t-38.5 -31.5l229 -591h-52zM210.5 634q13.5 -16 33.5 -19h18q20 3 33.5 19t13.5 38q0 25 -16 41.5t-40 16.5t-40 -16.5t-16 -41.5q0 -22 13.5 -38z
M253 563l-121 -337h246z" />
    <glyph glyph-name="Atilde" unicode="&#xc3;" horiz-adv-x="515" 
d="M393 187h-276l-70 -187h-49l232 615h49l238 -615h-52zM132 226h246l-125 337zM392 725q-19 -23 -38.5 -35.5t-43.5 -12.5q-18 0 -30.5 4.5t-31.5 14.5q-15 8 -24 12t-22 4q-18 0 -30 -8.5t-30 -26.5l-23 22q20 24 39.5 36.5t44.5 12.5q18 0 31.5 -5t29.5 -14
q3 -2 12.5 -6t17.5 -6.5t17 -2.5q17 0 28.5 8t30.5 25z" />
    <glyph glyph-name="AE" unicode="&#xc6;" horiz-adv-x="734" 
d="M694 40v-40h-346v188h-231l-69 -188h-50l232 615h452v-40h-287v-239h258v-39h-258v-257h299zM348 227v348h-89l-128 -348h217z" />
    <glyph glyph-name="B" unicode="B" horiz-adv-x="533" 
d="M448.5 275q33.5 -40 33.5 -103q0 -172 -220 -172h-156v615h157q90 0 137 -37.5t47 -109.5q0 -51 -25 -86.5t-72 -52.5q65 -14 98.5 -54zM154 342h104q66 0 102.5 31.5t36.5 89.5q0 55 -34.5 83.5t-99.5 28.5h-109v-233zM432 171q0 65 -44 99t-129 34h-105v-265h109
q169 0 169 132z" />
    <glyph glyph-name="C" unicode="C" horiz-adv-x="478" 
d="M468 598l-12 -39q-80 25 -145 25q-110 0 -162 -68t-52 -212q0 -141 50.5 -207.5t158.5 -66.5q37 0 73 8t78 25l13 -38q-45 -18 -84 -26.5t-83 -8.5q-130 0 -192.5 76t-62.5 236q0 164 65 243.5t199 79.5q83 0 156 -27z" />
    <glyph glyph-name="Cacute" unicode="&#x106;" horiz-adv-x="478" 
d="M468 598l-12 -39q-80 25 -145 25q-110 0 -162 -68t-52 -212q0 -141 50.5 -207.5t158.5 -66.5q37 0 73 8t78 25l13 -38q-45 -18 -84 -26.5t-83 -8.5q-130 0 -192.5 76t-62.5 236q0 164 65 243.5t199 79.5q83 0 156 -27zM400 765l-115 -102l-24 23l103 110z" />
    <glyph glyph-name="Ccaron" unicode="&#x10c;" horiz-adv-x="478" 
d="M468 598l-12 -39q-80 25 -145 25q-110 0 -162 -68t-52 -212q0 -141 50.5 -207.5t158.5 -66.5q37 0 73 8t78 25l13 -38q-45 -18 -84 -26.5t-83 -8.5q-130 0 -192.5 76t-62.5 236q0 164 65 243.5t199 79.5q83 0 156 -27zM193 765l102 -62l99 62l19 -25l-100 -69h-39l-99 69
z" />
    <glyph glyph-name="Ccedilla" unicode="&#xc7;" horiz-adv-x="478" 
d="M377 -79.5q27 -19.5 27 -54.5q0 -38 -29 -55.5t-73 -17.5q-41 0 -74 13l7 27q36 -12 64 -12q33 0 50 12t17 34q0 54 -100 48l12 76q-117 7 -173.5 82.5t-56.5 228.5q0 164 65 243.5t199 79.5q83 0 156 -27l-12 -39q-80 25 -145 25q-110 0 -162 -68t-52 -212
q0 -141 50.5 -207.5t158.5 -66.5q37 0 73 8t78 25l13 -38q-42 -17 -80 -25.5t-79 -9.5l-10 -47q49 -3 76 -22.5z" />
    <glyph glyph-name="Cdotaccent" unicode="&#x10a;" horiz-adv-x="478" 
d="M468 598l-12 -39q-80 25 -145 25q-110 0 -162 -68t-52 -212q0 -141 50.5 -207.5t158.5 -66.5q37 0 73 8t78 25l13 -38q-45 -18 -84 -26.5t-83 -8.5q-130 0 -192.5 76t-62.5 236q0 164 65 243.5t199 79.5q83 0 156 -27zM266.5 681q-10.5 10 -10.5 26t10.5 26.5t26.5 10.5
t26.5 -10.5t10.5 -26.5t-10.5 -26t-26.5 -10t-26.5 10z" />
    <glyph glyph-name="D" unicode="D" horiz-adv-x="610" 
d="M106 0v615h165q148 0 219.5 -74t71.5 -228q0 -160 -71.5 -236.5t-220.5 -76.5h-164zM154 575v-535h119q122 0 181 66t59 204q0 135 -60 200t-184 65h-115z" />
    <glyph glyph-name="Eth" unicode="&#xd0;" horiz-adv-x="610" 
d="M490.5 541q71.5 -74 71.5 -228q0 -160 -71.5 -236.5t-220.5 -76.5h-164v301h-89v34h89v280h165q148 0 219.5 -74zM454 106q59 66 59 204q0 135 -60 200t-184 65h-115v-240h119v-34h-119v-261h119q122 0 181 66z" />
    <glyph glyph-name="Dcaron" unicode="&#x10e;" horiz-adv-x="610" 
d="M106 0v615h165q148 0 219.5 -74t71.5 -228q0 -160 -71.5 -236.5t-220.5 -76.5h-164zM154 575v-535h119q122 0 181 66t59 204q0 135 -60 200t-184 65h-115zM185 765l102 -62l99 62l19 -25l-100 -69h-39l-99 69z" />
    <glyph glyph-name="Dcroat" unicode="&#x110;" horiz-adv-x="610" 
d="M490.5 541q71.5 -74 71.5 -228q0 -160 -71.5 -236.5t-220.5 -76.5h-164v301h-89v34h89v280h165q148 0 219.5 -74zM454 106q59 66 59 204q0 135 -60 200t-184 65h-115v-240h119v-34h-119v-261h119q122 0 181 66z" />
    <glyph glyph-name="E" unicode="E" horiz-adv-x="521" 
d="M106 615h364v-40h-316v-239h287v-39h-287v-257h328v-40h-376v615z" />
    <glyph glyph-name="Eacute" unicode="&#xc9;" horiz-adv-x="521" 
d="M106 615h364v-40h-316v-239h287v-39h-287v-257h328v-40h-376v615zM395 765l-115 -102l-24 23l103 110z" />
    <glyph glyph-name="Ecaron" unicode="&#x11a;" horiz-adv-x="521" 
d="M106 615h364v-40h-316v-239h287v-39h-287v-257h328v-40h-376v615zM188 765l102 -62l99 62l19 -25l-100 -69h-39l-99 69z" />
    <glyph glyph-name="Ecircumflex" unicode="&#xca;" horiz-adv-x="521" 
d="M106 615h364v-40h-316v-239h287v-39h-287v-257h328v-40h-376v615zM409 687l-19 -25l-101 57l-100 -57l-18 25l119 78z" />
    <glyph glyph-name="Edieresis" unicode="&#xcb;" horiz-adv-x="521" 
d="M106 615h364v-40h-316v-239h287v-39h-287v-257h328v-40h-376v615zM222 687q-10 -10 -26 -10t-25.5 10t-9.5 26q0 15 9.5 24.5t25.5 9.5t26 -9.5t10 -24.5q0 -16 -10 -26zM407.5 687q-9.5 -10 -25.5 -10t-25.5 10t-9.5 26q0 15 9.5 24.5t25.5 9.5t25.5 -9.5t9.5 -24.5
q0 -16 -9.5 -26z" />
    <glyph glyph-name="Edotaccent" unicode="&#x116;" horiz-adv-x="521" 
d="M106 615h364v-40h-316v-239h287v-39h-287v-257h328v-40h-376v615zM261.5 681q-10.5 10 -10.5 26t10.5 26.5t26.5 10.5t26.5 -10.5t10.5 -26.5t-10.5 -26t-26.5 -10t-26.5 10z" />
    <glyph glyph-name="Egrave" unicode="&#xc8;" horiz-adv-x="521" 
d="M106 615h364v-40h-316v-239h287v-39h-287v-257h328v-40h-376v615zM322 690l-26 -26l-115 103l38 33z" />
    <glyph glyph-name="Emacron" unicode="&#x112;" horiz-adv-x="521" 
d="M106 615h364v-40h-316v-239h287v-39h-287v-257h328v-40h-376v615zM171 713h234v-34h-234v34z" />
    <glyph glyph-name="Eogonek" unicode="&#x118;" horiz-adv-x="521" 
d="M497 -167q-40 -20 -80 -20q-44 0 -65 20.5t-21 57.5q0 29 18 57t59 52h-302v615h364v-40h-316v-239h287v-39h-287v-257h328v-40q-54 -20 -82 -49.5t-28 -56.5q0 -23 14 -35t37 -12q26 0 63 16z" />
    <glyph glyph-name="F" unicode="F" horiz-adv-x="468" 
d="M154 327h246v-39h-246v-288h-48v615h333v-40h-285v-248z" />
    <glyph glyph-name="G" unicode="G" horiz-adv-x="603" 
d="M526 304v-268q-92 -46 -199 -46q-138 0 -208.5 78t-70.5 233q0 159 73.5 241.5t215.5 82.5q93 0 182 -38l-14 -38q-87 36 -169 36q-117 0 -178 -71.5t-61 -210.5q0 -136 58.5 -205t172.5 -69q76 0 151 30v207h-177v38h224z" />
    <glyph glyph-name="Gbreve" unicode="&#x11e;" horiz-adv-x="603" 
d="M526 304v-268q-92 -46 -199 -46q-138 0 -208.5 78t-70.5 233q0 159 73.5 241.5t215.5 82.5q93 0 182 -38l-14 -38q-87 36 -169 36q-117 0 -178 -71.5t-61 -210.5q0 -136 58.5 -205t172.5 -69q76 0 151 30v207h-177v38h224zM458 767q-8 -47 -39 -73t-83 -26
q-51 0 -81.5 26t-39.5 73l36 4q17 -70 87 -70q37 0 56.5 18.5t27.5 51.5z" />
    <glyph glyph-name="Gcommaaccent" unicode="&#x122;" horiz-adv-x="593" 
d="M526 304v-268q-92 -46 -199 -46q-138 0 -208.5 78t-70.5 233q0 159 73.5 241.5t215.5 82.5q93 0 182 -38l-14 -38q-87 36 -169 36q-117 0 -178 -71.5t-61 -210.5q0 -136 58.5 -205t172.5 -69q76 0 151 30v207h-177v38h224zM341 -86q12 -17 12 -44q0 -30 -16.5 -62
t-43.5 -59l-28 24q19 18 29 39.5t10 40.5q0 17 -10 31q-8 12 -8 23t7 17.5t20 6.5q16 0 28 -17z" />
    <glyph glyph-name="Gdotaccent" unicode="&#x120;" horiz-adv-x="603" 
d="M526 304v-268q-92 -46 -199 -46q-138 0 -208.5 78t-70.5 233q0 159 73.5 241.5t215.5 82.5q93 0 182 -38l-14 -38q-87 36 -169 36q-117 0 -178 -71.5t-61 -210.5q0 -136 58.5 -205t172.5 -69q76 0 151 30v207h-177v38h224zM308.5 681q-10.5 10 -10.5 26t10.5 26.5
t26.5 10.5t26.5 -10.5t10.5 -26.5t-10.5 -26t-26.5 -10t-26.5 10z" />
    <glyph glyph-name="H" unicode="H" horiz-adv-x="646" 
d="M540 0h-48v297h-338v-297h-48v615h48v-279h338v279h48v-615z" />
    <glyph glyph-name="Hbar" unicode="&#x126;" horiz-adv-x="655" 
d="M614 461h-69v-461h-48v297h-338v-297h-48v461h-72v36h72v118h48v-118h338v118h48v-118h69v-36zM497 461h-338v-125h338v125z" />
    <glyph glyph-name="I" unicode="I" horiz-adv-x="260" 
d="M106 615h47v-615h-47v615z" />
    <glyph glyph-name="IJ" unicode="&#x132;" horiz-adv-x="518" 
d="M106 615h47v-615h-47v615zM390.5 -23.5q-21.5 -49.5 -61.5 -73.5t-114 -45l-10 42q60 17 93 38t50 62.5t17 117.5v497h47v-499q0 -90 -21.5 -139.5z" />
    <glyph glyph-name="Iacute" unicode="&#xcd;" horiz-adv-x="260" 
d="M106 615h47v-615h-47v615zM236 765l-115 -102l-24 23l103 110z" />
    <glyph glyph-name="Icircumflex" unicode="&#xce;" horiz-adv-x="260" 
d="M106 615h47v-615h-47v615zM250 687l-19 -25l-101 57l-100 -57l-18 25l119 78z" />
    <glyph glyph-name="Idieresis" unicode="&#xcf;" horiz-adv-x="260" 
d="M106 615h47v-615h-47v615zM63 687q-10 -10 -26 -10t-25.5 10t-9.5 26q0 15 9.5 24.5t25.5 9.5t26 -9.5t10 -24.5q0 -16 -10 -26zM248.5 687q-9.5 -10 -25.5 -10t-25.5 10t-9.5 26q0 15 9.5 24.5t25.5 9.5t25.5 -9.5t9.5 -24.5q0 -16 -9.5 -26z" />
    <glyph glyph-name="Idotaccent" unicode="&#x130;" horiz-adv-x="260" 
d="M106 615h47v-615h-47v615zM102.5 681q-10.5 10 -10.5 26t10.5 26.5t26.5 10.5t26.5 -10.5t10.5 -26.5t-10.5 -26t-26.5 -10t-26.5 10z" />
    <glyph glyph-name="Igrave" unicode="&#xcc;" horiz-adv-x="260" 
d="M106 615h47v-615h-47v615zM163 690l-26 -26l-115 103l38 33z" />
    <glyph glyph-name="Imacron" unicode="&#x12a;" horiz-adv-x="260" 
d="M106 615h47v-615h-47v615zM12 713h234v-34h-234v34z" />
    <glyph glyph-name="Iogonek" unicode="&#x12e;" horiz-adv-x="260" 
d="M168 -167q-40 -20 -80 -20q-44 0 -65 20.5t-21 57.5q0 33 24 65t80 58v601h47v-615q-54 -20 -82 -49.5t-28 -56.5q0 -23 14 -35t37 -12q26 0 63 16z" />
    <glyph glyph-name="J" unicode="J" horiz-adv-x="311" 
d="M191 97q-20 -49 -59.5 -74.5t-113.5 -45.5l-11 41q60 18 92.5 39.5t48.5 63t16 116.5v378h47v-380q0 -89 -20 -138z" />
    <glyph glyph-name="K" unicode="K" horiz-adv-x="531" 
d="M470 0l-213 324l-103 -119v-205h-48v615h48v-350l295 350h60l-220 -256l241 -359h-60z" />
    <glyph glyph-name="Kcommaaccent" unicode="&#x136;" horiz-adv-x="531" 
d="M530 0h-60l-213 324l-103 -119v-205h-48v615h48v-350l295 350h60l-220 -256zM315.5 -85.5q11.5 -16.5 11.5 -44.5q0 -30 -16 -61.5t-43 -59.5l-29 24q19 18 29 39.5t10 40.5q0 17 -10 31q-8 12 -8 23t7 17.5t20 6.5q17 0 28.5 -16.5z" />
    <glyph glyph-name="L" unicode="L" horiz-adv-x="470" 
d="M106 615h48v-575h305v-40h-353v615z" />
    <glyph glyph-name="Lacute" unicode="&#x139;" horiz-adv-x="470" 
d="M106 615h48v-575h305v-40h-353v615zM236 765l-115 -102l-24 23l103 110z" />
    <glyph glyph-name="Lcaron" unicode="&#x13d;" horiz-adv-x="470" 
d="M374 601l-103 -137l-30 20l90 143zM106 615h48v-575h305v-40h-353v615z" />
    <glyph glyph-name="Lcommaaccent" unicode="&#x13b;" horiz-adv-x="470" 
d="M106 615h48v-575h305v-40h-353v615zM236 -187.5q10 21.5 10 40.5q0 15 -9 31q-8 12 -8 23q0 24 26 24q17 0 28.5 -16.5t11.5 -44.5q0 -30 -16 -61.5t-43 -59.5l-29 24q19 18 29 39.5z" />
    <glyph glyph-name="Ldot" unicode="&#x13f;" horiz-adv-x="470" 
d="M106 615h48v-575h305v-40h-353v615zM337 301.5q-10 10.5 -10 26.5q0 17 10 27t27 10q16 0 26.5 -10t10.5 -27q0 -16 -10.5 -26.5t-26.5 -10.5q-17 0 -27 10.5z" />
    <glyph glyph-name="Lslash" unicode="&#x141;" horiz-adv-x="479" 
d="M469 40v-40h-353v255l-71 -54l-18 34l89 66v314h48v-283l107 79l16 -36l-123 -90v-245h305z" />
    <glyph glyph-name="M" unicode="M" horiz-adv-x="762" 
d="M640 0l-33 528l-211 -528h-35l-208 528l-34 -528h-44l41 615h51l213 -544l218 544h48l41 -615h-47z" />
    <glyph glyph-name="N" unicode="N" horiz-adv-x="656" 
d="M550 615v-615h-41l-358 528v-528h-45v615h41l358 -526v526h45z" />
    <glyph glyph-name="Nacute" unicode="&#x143;" horiz-adv-x="656" 
d="M550 615v-615h-41l-358 528v-528h-45v615h41l358 -526v526h45zM440 765l-115 -102l-24 23l103 110z" />
    <glyph glyph-name="Ncaron" unicode="&#x147;" horiz-adv-x="656" 
d="M550 615v-615h-41l-358 528v-528h-45v615h41l358 -526v526h45zM234 765l102 -62l99 62l19 -25l-100 -69h-39l-99 69z" />
    <glyph glyph-name="Ncommaaccent" unicode="&#x145;" horiz-adv-x="656" 
d="M550 615v-615h-41l-358 528v-528h-45v615h41l358 -526v526h45zM361 -86q12 -17 12 -44q0 -30 -16.5 -62t-43.5 -59l-28 24q19 18 29 39.5t10 40.5q0 17 -10 31q-8 12 -8 23t7 17.5t20 6.5q16 0 28 -17z" />
    <glyph glyph-name="Eng" unicode="&#x14a;" horiz-adv-x="656" 
d="M550 615v-616q0 -81 -35.5 -123.5t-126.5 -59.5l-8 38q70 13 97 46.5t27 100.5v7l-353 520v-528h-45v615h41l358 -526v526h45z" />
    <glyph glyph-name="Ntilde" unicode="&#xd1;" horiz-adv-x="656" 
d="M550 615v-615h-41l-358 528v-528h-45v615h41l358 -526v526h45zM472 725q-19 -23 -38.5 -35.5t-43.5 -12.5q-18 0 -30.5 4.5t-31.5 14.5q-15 8 -24 12t-22 4q-18 0 -30 -8.5t-30 -26.5l-23 22q20 24 39.5 36.5t44.5 12.5q18 0 31.5 -5t29.5 -14q3 -2 12.5 -6t17.5 -6.5
t17 -2.5q17 0 28.5 8t30.5 25z" />
    <glyph glyph-name="O" unicode="O" horiz-adv-x="629" 
d="M116 71.5q-68 81.5 -68 229.5q0 155 71.5 239.5t201.5 84.5q124 0 192 -82t68 -230q0 -154 -71.5 -238.5t-202.5 -84.5q-123 0 -191 81.5zM154.5 511q-57.5 -73 -57.5 -207q0 -131 55.5 -202.5t156.5 -71.5q106 0 164.5 73t58.5 207q0 131 -55.5 202.5t-158.5 71.5
q-106 0 -163.5 -73z" />
    <glyph glyph-name="Oacute" unicode="&#xd3;" horiz-adv-x="629" 
d="M116 71.5q-68 81.5 -68 229.5q0 155 71.5 239.5t201.5 84.5q124 0 192 -82t68 -230q0 -154 -71.5 -238.5t-202.5 -84.5q-123 0 -191 81.5zM154.5 511q-57.5 -73 -57.5 -207q0 -131 55.5 -202.5t156.5 -71.5q106 0 164.5 73t58.5 207q0 131 -55.5 202.5t-158.5 71.5
q-106 0 -163.5 -73zM425 765l-115 -102l-24 23l103 110z" />
    <glyph glyph-name="Ocircumflex" unicode="&#xd4;" horiz-adv-x="629" 
d="M116 71.5q-68 81.5 -68 229.5q0 155 71.5 239.5t201.5 84.5q124 0 192 -82t68 -230q0 -154 -71.5 -238.5t-202.5 -84.5q-123 0 -191 81.5zM154.5 511q-57.5 -73 -57.5 -207q0 -131 55.5 -202.5t156.5 -71.5q106 0 164.5 73t58.5 207q0 131 -55.5 202.5t-158.5 71.5
q-106 0 -163.5 -73zM439 687l-19 -25l-101 57l-100 -57l-18 25l119 78z" />
    <glyph glyph-name="Odieresis" unicode="&#xd6;" horiz-adv-x="629" 
d="M116 71.5q-68 81.5 -68 229.5q0 155 71.5 239.5t201.5 84.5q124 0 192 -82t68 -230q0 -154 -71.5 -238.5t-202.5 -84.5q-123 0 -191 81.5zM154.5 511q-57.5 -73 -57.5 -207q0 -131 55.5 -202.5t156.5 -71.5q106 0 164.5 73t58.5 207q0 131 -55.5 202.5t-158.5 71.5
q-106 0 -163.5 -73zM251 687q-10 -10 -26 -10t-25.5 10t-9.5 26q0 15 9.5 24.5t25.5 9.5t26 -9.5t10 -24.5q0 -16 -10 -26zM436.5 687q-9.5 -10 -25.5 -10t-25.5 10t-9.5 26q0 15 9.5 24.5t25.5 9.5t25.5 -9.5t9.5 -24.5q0 -16 -9.5 -26z" />
    <glyph glyph-name="Ograve" unicode="&#xd2;" horiz-adv-x="629" 
d="M116 71.5q-68 81.5 -68 229.5q0 155 71.5 239.5t201.5 84.5q124 0 192 -82t68 -230q0 -154 -71.5 -238.5t-202.5 -84.5q-123 0 -191 81.5zM154.5 511q-57.5 -73 -57.5 -207q0 -131 55.5 -202.5t156.5 -71.5q106 0 164.5 73t58.5 207q0 131 -55.5 202.5t-158.5 71.5
q-106 0 -163.5 -73zM352 690l-26 -26l-115 103l38 33z" />
    <glyph glyph-name="Ohungarumlaut" unicode="&#x150;" horiz-adv-x="629" 
d="M116 71.5q-68 81.5 -68 229.5q0 155 71.5 239.5t201.5 84.5q124 0 192 -82t68 -230q0 -154 -71.5 -238.5t-202.5 -84.5q-123 0 -191 81.5zM154.5 511q-57.5 -73 -57.5 -207q0 -131 55.5 -202.5t156.5 -71.5q106 0 164.5 73t58.5 207q0 131 -55.5 202.5t-158.5 71.5
q-106 0 -163.5 -73zM188 680l67 108h70l-100 -113zM360 680l68 108h71l-102 -113z" />
    <glyph glyph-name="Omacron" unicode="&#x14c;" horiz-adv-x="629" 
d="M116 71.5q-68 81.5 -68 229.5q0 155 71.5 239.5t201.5 84.5q124 0 192 -82t68 -230q0 -154 -71.5 -238.5t-202.5 -84.5q-123 0 -191 81.5zM154.5 511q-57.5 -73 -57.5 -207q0 -131 55.5 -202.5t156.5 -71.5q106 0 164.5 73t58.5 207q0 131 -55.5 202.5t-158.5 71.5
q-106 0 -163.5 -73zM201 713h234v-34h-234v34z" />
    <glyph glyph-name="Oslash" unicode="&#xd8;" horiz-adv-x="629" 
d="M523 530q58 -81 58 -217q0 -154 -71.5 -238.5t-202.5 -84.5q-104 0 -167 57l-63 -80l-33 28l66 83q-62 82 -62 223q0 155 71.5 239.5t201.5 84.5q108 0 174 -63l69 86l33 -27zM154.5 511q-57.5 -73 -57.5 -207q0 -118 45 -188l324 409q-54 59 -148 59q-106 0 -163.5 -73z
M473.5 103q58.5 73 58.5 207q0 113 -41 181l-322 -408q55 -53 140 -53q106 0 164.5 73z" />
    <glyph glyph-name="Otilde" unicode="&#xd5;" horiz-adv-x="629" 
d="M116 71.5q-68 81.5 -68 229.5q0 155 71.5 239.5t201.5 84.5q124 0 192 -82t68 -230q0 -154 -71.5 -238.5t-202.5 -84.5q-123 0 -191 81.5zM154.5 511q-57.5 -73 -57.5 -207q0 -131 55.5 -202.5t156.5 -71.5q106 0 164.5 73t58.5 207q0 131 -55.5 202.5t-158.5 71.5
q-106 0 -163.5 -73zM456 725q-19 -23 -38.5 -35.5t-43.5 -12.5q-18 0 -30.5 4.5t-31.5 14.5q-15 8 -24 12t-22 4q-18 0 -30 -8.5t-30 -26.5l-23 22q20 24 39.5 36.5t44.5 12.5q18 0 31.5 -5t29.5 -14q3 -2 12.5 -6t17.5 -6.5t17 -2.5q17 0 28.5 8t30.5 25z" />
    <glyph glyph-name="OE" unicode="&#x152;" horiz-adv-x="827" 
d="M428.5 -1q-19.5 -1 -29.5 -2q-44 -4 -70 -4q-139 0 -210 79t-71 235q0 155 72 234.5t212 79.5q15 0 35 -1t31 -2q33 -3 65 -3h316v-40h-297v-239h267v-39h-267v-257h308v-40h-326q-16 0 -35.5 -1zM331 582q-116 0 -175 -69t-59 -206q0 -136 58.5 -205t174.5 -69
q32 0 64 4l40 5v532q-48 8 -103 8z" />
    <glyph glyph-name="P" unicode="P" horiz-adv-x="488" 
d="M234 615q113 0 169 -45t56 -136t-55 -138t-163 -47q-54 0 -87 9v-258h-48v615h128zM241 289q83 0 125 36.5t42 107.5q0 72 -43.5 107t-132.5 35h-78v-278q34 -8 87 -8z" />
    <glyph glyph-name="Thorn" unicode="&#xde;" horiz-adv-x="488" 
d="M153 490h79q223 0 223 -181q0 -180 -214 -180q-57 0 -88 8v-137h-47v615h47v-125zM153 450v-274q52 -8 87 -8q164 0 164 142q0 140 -180 140h-71z" />
    <glyph glyph-name="Q" unicode="Q" horiz-adv-x="629" 
d="M528 99.5q-53 -81.5 -151 -102.5l195 -83l-19 -40l-243 116h-3q-123 0 -191 81.5t-68 229.5q0 155 71.5 239.5t201.5 84.5q124 0 192 -82t68 -230q0 -132 -53 -213.5zM152.5 101.5q55.5 -71.5 156.5 -71.5q106 0 164.5 73t58.5 207q0 131 -55.5 202.5t-158.5 71.5
q-106 0 -163.5 -73t-57.5 -207q0 -131 55.5 -202.5z" />
    <glyph glyph-name="R" unicode="R" horiz-adv-x="525" 
d="M432 0l-143 267q-51 -7 -98 -7l-37 1v-261h-48v615h143q226 0 226 -166q0 -132 -141 -172l157 -277h-59zM195 299q231 0 231 148q0 128 -180 128h-92v-275q14 -1 41 -1z" />
    <glyph glyph-name="Racute" unicode="&#x154;" horiz-adv-x="525" 
d="M432 0l-143 267q-51 -7 -98 -7l-37 1v-261h-48v615h143q226 0 226 -166q0 -132 -141 -172l157 -277h-59zM195 299q231 0 231 148q0 128 -180 128h-92v-275q14 -1 41 -1zM366 765l-115 -102l-24 23l103 110z" />
    <glyph glyph-name="Rcaron" unicode="&#x158;" horiz-adv-x="525" 
d="M432 0l-143 267q-51 -7 -98 -7l-37 1v-261h-48v615h143q226 0 226 -166q0 -132 -141 -172l157 -277h-59zM195 299q231 0 231 148q0 128 -180 128h-92v-275q14 -1 41 -1zM160 765l102 -62l99 62l19 -25l-100 -69h-39l-99 69z" />
    <glyph glyph-name="Rcommaaccent" unicode="&#x156;" horiz-adv-x="525" 
d="M491 0h-59l-143 267q-51 -7 -98 -7l-37 1v-261h-48v615h143q226 0 226 -166q0 -132 -141 -172zM195 299q231 0 231 148q0 128 -180 128h-92v-275q14 -1 41 -1zM300.5 -85.5q11.5 -16.5 11.5 -44.5q0 -30 -16 -61.5t-43 -59.5l-29 24q19 18 29 39.5t10 40.5q0 17 -10 31
q-8 12 -8 23t7 17.5t20 6.5q17 0 28.5 -16.5z" />
    <glyph glyph-name="S" unicode="S" horiz-adv-x="438" 
d="M374 554q-75 31 -144 31q-63 0 -97.5 -27.5t-34.5 -74.5q0 -51 34.5 -81t100.5 -61q56 -25 91 -47t60 -58t25 -89q0 -75 -51 -115.5t-144 -40.5q-89 0 -179 38l16 41q47 -19 84.5 -29t78.5 -10q69 0 107.5 29.5t38.5 83.5q0 40 -20 68t-50.5 46.5t-79.5 41.5
q-53 24 -85.5 45.5t-54 54t-21.5 79.5q0 70 46.5 108t131.5 38q43 0 84.5 -9t75.5 -23z" />
    <glyph glyph-name="Sacute" unicode="&#x15a;" horiz-adv-x="438" 
d="M374 554q-75 31 -144 31q-63 0 -97.5 -27.5t-34.5 -74.5q0 -51 34.5 -81t100.5 -61q56 -25 91 -47t60 -58t25 -89q0 -75 -51 -115.5t-144 -40.5q-89 0 -179 38l16 41q47 -19 84.5 -29t78.5 -10q69 0 107.5 29.5t38.5 83.5q0 40 -20 68t-50.5 46.5t-79.5 41.5
q-53 24 -85.5 45.5t-54 54t-21.5 79.5q0 70 46.5 108t131.5 38q43 0 84.5 -9t75.5 -23zM335 765l-115 -102l-24 23l103 110z" />
    <glyph glyph-name="Scaron" unicode="&#x160;" horiz-adv-x="438" 
d="M374 554q-75 31 -144 31q-63 0 -97.5 -27.5t-34.5 -74.5q0 -51 34.5 -81t100.5 -61q56 -25 91 -47t60 -58t25 -89q0 -75 -51 -115.5t-144 -40.5q-89 0 -179 38l16 41q47 -19 84.5 -29t78.5 -10q69 0 107.5 29.5t38.5 83.5q0 40 -20 68t-50.5 46.5t-79.5 41.5
q-53 24 -85.5 45.5t-54 54t-21.5 79.5q0 70 46.5 108t131.5 38q43 0 84.5 -9t75.5 -23zM128 765l102 -62l99 62l19 -25l-100 -69h-39l-99 69z" />
    <glyph glyph-name="Scedilla" unicode="&#x15e;" horiz-adv-x="438" 
d="M362 35.5q-47 -40.5 -131 -44.5l-10 -48q49 -3 76 -22.5t27 -54.5q0 -38 -29 -55.5t-73 -17.5q-42 0 -74 13l7 27q36 -12 64 -12q33 0 50 12t17 34q0 54 -100 48l12 76q-85 4 -163 38l16 41q47 -19 84.5 -29t78.5 -10q69 0 107.5 29.5t38.5 83.5q0 40 -20 68t-50.5 46.5
t-79.5 41.5q-53 24 -85.5 45.5t-54 54t-21.5 79.5q0 70 46.5 108t131.5 38q43 0 84.5 -9t75.5 -23l-13 -39q-75 31 -144 31q-63 0 -97.5 -27.5t-34.5 -74.5q0 -51 34.5 -81t100.5 -61q56 -25 91 -47t60 -58t25 -89q0 -71 -47 -111.5z" />
    <glyph glyph-name="Scommaaccent" unicode="&#x218;" horiz-adv-x="438" 
d="M374 554q-75 31 -144 31q-63 0 -97.5 -27.5t-34.5 -74.5q0 -51 34.5 -81t100.5 -61q56 -25 91 -47t60 -58t25 -89q0 -75 -51 -115.5t-144 -40.5q-89 0 -179 38l16 41q47 -19 84.5 -29t78.5 -10q69 0 107.5 29.5t38.5 83.5q0 40 -20 68t-50.5 46.5t-79.5 41.5
q-53 24 -85.5 45.5t-54 54t-21.5 79.5q0 70 46.5 108t131.5 38q43 0 84.5 -9t75.5 -23zM195 -187.5q10 21.5 10 40.5q0 17 -10 31q-8 12 -8 23t7 17.5t20 6.5q17 0 28.5 -16.5t11.5 -44.5q0 -30 -16.5 -62t-43.5 -59l-28 24q19 18 29 39.5z" />
    <glyph glyph-name="T" unicode="T" horiz-adv-x="483" 
d="M265 0h-47v575h-213v40h473v-40h-213v-575z" />
    <glyph glyph-name="Tbar" unicode="&#x166;" horiz-adv-x="483" 
d="M265 575v-255h94v-34h-94v-286h-47v286h-93v34h93v255h-213v40h473v-40h-213z" />
    <glyph glyph-name="Tcaron" unicode="&#x164;" horiz-adv-x="483" 
d="M265 0h-47v575h-213v40h473v-40h-213v-575zM141 765l102 -62l99 62l19 -25l-100 -69h-39l-99 69z" />
    <glyph glyph-name="uni0162" unicode="&#x162;" horiz-adv-x="483" 
d="M259 0l-12 -57q49 -3 76 -22.5t27 -54.5q0 -38 -29 -55.5t-73 -17.5q-41 0 -74 13l7 27q36 -12 64 -12q33 0 50 12t17 34q0 54 -100 48l14 85h-8v575h-213v40h473v-40h-213v-575h-6z" />
    <glyph glyph-name="uni021A" unicode="&#x21a;" horiz-adv-x="483" 
d="M265 0h-47v575h-213v40h473v-40h-213v-575zM221 -187.5q10 21.5 10 40.5q0 17 -10 31q-8 12 -8 23t7 17.5t20 6.5q17 0 28.5 -16.5t11.5 -44.5q0 -30 -16 -61.5t-43 -59.5l-29 24q19 18 29 39.5z" />
    <glyph glyph-name="U" unicode="U" horiz-adv-x="634" 
d="M481 46.5q-57 -56.5 -166 -56.5q-107 0 -162.5 55.5t-55.5 162.5v407h48v-406q0 -87 44 -133t129 -46t128.5 45t43.5 132v408h48v-403q0 -109 -57 -165.5z" />
    <glyph glyph-name="Uacute" unicode="&#xda;" horiz-adv-x="634" 
d="M481 46.5q-57 -56.5 -166 -56.5q-107 0 -162.5 55.5t-55.5 162.5v407h48v-406q0 -87 44 -133t129 -46t128.5 45t43.5 132v408h48v-403q0 -109 -57 -165.5zM423 765l-115 -102l-24 23l103 110z" />
    <glyph glyph-name="Ucircumflex" unicode="&#xdb;" horiz-adv-x="634" 
d="M481 46.5q-57 -56.5 -166 -56.5q-107 0 -162.5 55.5t-55.5 162.5v407h48v-406q0 -87 44 -133t129 -46t128.5 45t43.5 132v408h48v-403q0 -109 -57 -165.5zM437 687l-19 -25l-101 57l-100 -57l-18 25l119 78z" />
    <glyph glyph-name="Udieresis" unicode="&#xdc;" horiz-adv-x="634" 
d="M481 46.5q-57 -56.5 -166 -56.5q-107 0 -162.5 55.5t-55.5 162.5v407h48v-406q0 -87 44 -133t129 -46t128.5 45t43.5 132v408h48v-403q0 -109 -57 -165.5zM250 687q-10 -10 -26 -10t-25.5 10t-9.5 26q0 15 9.5 24.5t25.5 9.5t26 -9.5t10 -24.5q0 -16 -10 -26zM435.5 687
q-9.5 -10 -25.5 -10t-25.5 10t-9.5 26q0 15 9.5 24.5t25.5 9.5t25.5 -9.5t9.5 -24.5q0 -16 -9.5 -26z" />
    <glyph glyph-name="Ugrave" unicode="&#xd9;" horiz-adv-x="634" 
d="M481 46.5q-57 -56.5 -166 -56.5q-107 0 -162.5 55.5t-55.5 162.5v407h48v-406q0 -87 44 -133t129 -46t128.5 45t43.5 132v408h48v-403q0 -109 -57 -165.5zM350 690l-26 -26l-115 103l38 33z" />
    <glyph glyph-name="Uhungarumlaut" unicode="&#x170;" horiz-adv-x="634" 
d="M481 46.5q-57 -56.5 -166 -56.5q-107 0 -162.5 55.5t-55.5 162.5v407h48v-406q0 -87 44 -133t129 -46t128.5 45t43.5 132v408h48v-403q0 -109 -57 -165.5zM186 680l67 108h70l-100 -113zM358 680l68 108h71l-102 -113z" />
    <glyph glyph-name="Umacron" unicode="&#x16a;" horiz-adv-x="634" 
d="M481 46.5q-57 -56.5 -166 -56.5q-107 0 -162.5 55.5t-55.5 162.5v407h48v-406q0 -87 44 -133t129 -46t128.5 45t43.5 132v408h48v-403q0 -109 -57 -165.5zM199 713h234v-34h-234v34z" />
    <glyph glyph-name="Uogonek" unicode="&#x172;" horiz-adv-x="634" 
d="M538 615v-403q0 -81 -33 -134t-96 -74q-47 -21 -70.5 -48t-23.5 -52q0 -23 14 -35t37 -12q26 0 63 16l11 -30q-40 -20 -80 -20q-44 0 -65 20.5t-21 57.5q0 50 48 89h-7q-107 0 -162.5 55.5t-55.5 162.5v407h48v-406q0 -87 44 -133t129 -46t128.5 45t43.5 132v408h48z" />
    <glyph glyph-name="Uring" unicode="&#x16e;" horiz-adv-x="634" 
d="M481 46.5q-57 -56.5 -166 -56.5q-107 0 -162.5 55.5t-55.5 162.5v407h48v-406q0 -87 44 -133t129 -46t128.5 45t43.5 132v408h48v-403q0 -109 -57 -165.5zM254 696.5q-25 25.5 -25 62.5t25 62t63 25t63 -24.5t25 -62.5t-25 -63t-63 -25t-63 25.5zM277 800.5
q-16 -16.5 -16 -41.5t16 -41.5t40 -16.5t40 16.5t16 41.5t-16 41.5t-40 16.5t-40 -16.5z" />
    <glyph glyph-name="V" unicode="V" horiz-adv-x="515" 
d="M513 615l-231 -615h-49l-231 615h52l205 -556l204 556h50z" />
    <glyph glyph-name="W" unicode="W" horiz-adv-x="765" 
d="M742 615l-132 -615h-51l-176 543l-179 -543h-51l-130 615h50l111 -550l179 550h44l176 -548l112 548h47z" />
    <glyph glyph-name="Wacute" unicode="&#x1e82;" horiz-adv-x="765" 
d="M742 615l-132 -615h-51l-176 543l-179 -543h-51l-130 615h50l111 -550l179 550h44l176 -548l112 548h47zM492 765l-115 -102l-24 23l103 110z" />
    <glyph glyph-name="Wcircumflex" unicode="&#x174;" horiz-adv-x="765" 
d="M742 615l-132 -615h-51l-176 543l-179 -543h-51l-130 615h50l111 -550l179 550h44l176 -548l112 548h47zM506 687l-19 -25l-101 57l-100 -57l-18 25l119 78z" />
    <glyph glyph-name="Wdieresis" unicode="&#x1e84;" horiz-adv-x="765" 
d="M742 615l-132 -615h-51l-176 543l-179 -543h-51l-130 615h50l111 -550l179 550h44l176 -548l112 548h47zM318 687q-10 -10 -26 -10t-25.5 10t-9.5 26q0 15 9.5 24.5t25.5 9.5t26 -9.5t10 -24.5q0 -16 -10 -26zM503.5 687q-9.5 -10 -25.5 -10t-25.5 10t-9.5 26
q0 15 9.5 24.5t25.5 9.5t25.5 -9.5t9.5 -24.5q0 -16 -9.5 -26z" />
    <glyph glyph-name="Wgrave" unicode="&#x1e80;" horiz-adv-x="765" 
d="M742 615l-132 -615h-51l-176 543l-179 -543h-51l-130 615h50l111 -550l179 550h44l176 -548l112 548h47zM419 690l-26 -26l-115 103l38 33z" />
    <glyph glyph-name="X" unicode="X" horiz-adv-x="470" 
d="M416 0l-184 288l-180 -288h-55l206 324l-190 291h58l168 -261l162 261h56l-191 -296l207 -319h-57z" />
    <glyph glyph-name="Y" unicode="Y" horiz-adv-x="462" 
d="M464 615l-209 -393v-222h-48v222l-210 393h55l180 -342l181 342h51z" />
    <glyph glyph-name="Yacute" unicode="&#xdd;" horiz-adv-x="462" 
d="M464 615l-209 -393v-222h-48v222l-210 393h55l180 -342l181 342h51zM337 765l-115 -102l-24 23l103 110z" />
    <glyph glyph-name="Ycircumflex" unicode="&#x176;" horiz-adv-x="462" 
d="M464 615l-209 -393v-222h-48v222l-210 393h55l180 -342l181 342h51zM351 687l-19 -25l-101 57l-100 -57l-18 25l119 78z" />
    <glyph glyph-name="Ydieresis" unicode="&#x178;" horiz-adv-x="462" 
d="M464 615l-209 -393v-222h-48v222l-210 393h55l180 -342l181 342h51zM164 687q-10 -10 -26 -10t-25.5 10t-9.5 26q0 15 9.5 24.5t25.5 9.5t26 -9.5t10 -24.5q0 -16 -10 -26zM349.5 687q-9.5 -10 -25.5 -10t-25.5 10t-9.5 26q0 15 9.5 24.5t25.5 9.5t25.5 -9.5t9.5 -24.5
q0 -16 -9.5 -26z" />
    <glyph glyph-name="Ygrave" unicode="&#x1ef2;" horiz-adv-x="462" 
d="M464 615l-209 -393v-222h-48v222l-210 393h55l180 -342l181 342h51zM264 690l-26 -26l-115 103l38 33z" />
    <glyph glyph-name="Z" unicode="Z" horiz-adv-x="467" 
d="M15 35l369 540h-351v40h405l4 -34l-369 -541h384v-40h-438z" />
    <glyph glyph-name="Zacute" unicode="&#x179;" horiz-adv-x="467" 
d="M15 35l369 540h-351v40h405l4 -34l-369 -541h384v-40h-438zM342 765l-115 -102l-24 23l103 110z" />
    <glyph glyph-name="Zcaron" unicode="&#x17d;" horiz-adv-x="467" 
d="M15 35l369 540h-351v40h405l4 -34l-369 -541h384v-40h-438zM136 765l102 -62l99 62l19 -25l-100 -69h-39l-99 69z" />
    <glyph glyph-name="Zdotaccent" unicode="&#x17b;" horiz-adv-x="467" 
d="M15 35l369 540h-351v40h405l4 -34l-369 -541h384v-40h-438zM208.5 681q-10.5 10 -10.5 26t10.5 26.5t26.5 10.5t26.5 -10.5t10.5 -26.5t-10.5 -26t-26.5 -10t-26.5 10z" />
    <glyph glyph-name="a" unicode="a" horiz-adv-x="460" 
d="M332 0q-7 40 -8 55q-40 -31 -75.5 -49t-77.5 -18q-55 0 -86.5 32.5t-31.5 87.5q0 79 67 114t201 35v61q0 99 -96 99q-31 0 -62 -7.5t-70 -23.5l-12 36q85 34 148 34q68 0 103 -34.5t35 -101.5v-192q0 -54 8 -128h-43zM123 50.5q21 -23.5 57 -23.5q59 0 141 70v123
q-112 0 -165.5 -25t-53.5 -83q0 -38 21 -61.5z" />
    <glyph glyph-name="aacute" unicode="&#xe1;" horiz-adv-x="460" 
d="M332 0q-7 40 -8 55q-40 -31 -75.5 -49t-77.5 -18q-55 0 -86.5 32.5t-31.5 87.5q0 79 67 114t201 35v61q0 99 -96 99q-31 0 -62 -7.5t-70 -23.5l-12 36q85 34 148 34q68 0 103 -34.5t35 -101.5v-192q0 -54 8 -128h-43zM123 50.5q21 -23.5 57 -23.5q59 0 141 70v123
q-112 0 -165.5 -25t-53.5 -83q0 -38 21 -61.5zM311 624l-97 -119l-28 20l84 125z" />
    <glyph glyph-name="abreve" unicode="&#x103;" horiz-adv-x="460" 
d="M332 0q-7 40 -8 55q-40 -31 -75.5 -49t-77.5 -18q-55 0 -86.5 32.5t-31.5 87.5q0 79 67 114t201 35v61q0 99 -96 99q-31 0 -62 -7.5t-70 -23.5l-12 36q85 34 148 34q68 0 103 -34.5t35 -101.5v-192q0 -54 8 -128h-43zM123 50.5q21 -23.5 57 -23.5q59 0 141 70v123
q-112 0 -165.5 -25t-53.5 -83q0 -38 21 -61.5zM306 540q-32 -28 -86 -28q-53 0 -84 28t-39 80l39 4q9 -39 28.5 -59t57.5 -20t59 20.5t29 58.5l37 -4q-9 -52 -41 -80z" />
    <glyph glyph-name="acircumflex" unicode="&#xe2;" horiz-adv-x="460" 
d="M332 0q-7 40 -8 55q-40 -31 -75.5 -49t-77.5 -18q-55 0 -86.5 32.5t-31.5 87.5q0 79 67 114t201 35v61q0 99 -96 99q-31 0 -62 -7.5t-70 -23.5l-12 36q85 34 148 34q68 0 103 -34.5t35 -101.5v-192q0 -54 8 -128h-43zM123 50.5q21 -23.5 57 -23.5q59 0 141 70v123
q-112 0 -165.5 -25t-53.5 -83q0 -38 21 -61.5zM321 507l-101 68l-99 -68l-20 25l120 90l120 -90z" />
    <glyph glyph-name="adieresis" unicode="&#xe4;" horiz-adv-x="460" 
d="M332 0q-7 40 -8 55q-40 -31 -75.5 -49t-77.5 -18q-55 0 -86.5 32.5t-31.5 87.5q0 79 67 114t201 35v61q0 99 -96 99q-31 0 -62 -7.5t-70 -23.5l-12 36q85 34 148 34q68 0 103 -34.5t35 -101.5v-192q0 -54 8 -128h-43zM123 50.5q21 -23.5 57 -23.5q59 0 141 70v123
q-112 0 -165.5 -25t-53.5 -83q0 -38 21 -61.5zM151.5 553.5q-9.5 -9.5 -25.5 -9.5t-25.5 9.5t-9.5 25.5t9.5 25.5t25.5 9.5t25.5 -9.5t9.5 -25.5t-9.5 -25.5zM341.5 553.5q-9.5 -9.5 -25.5 -9.5t-25.5 9.5t-9.5 25.5t9.5 25.5t25.5 9.5t25.5 -9.5t9.5 -25.5t-9.5 -25.5z" />
    <glyph glyph-name="agrave" unicode="&#xe0;" horiz-adv-x="460" 
d="M332 0q-7 40 -8 55q-40 -31 -75.5 -49t-77.5 -18q-55 0 -86.5 32.5t-31.5 87.5q0 79 67 114t201 35v61q0 99 -96 99q-31 0 -62 -7.5t-70 -23.5l-12 36q85 34 148 34q68 0 103 -34.5t35 -101.5v-192q0 -54 8 -128h-43zM123 50.5q21 -23.5 57 -23.5q59 0 141 70v123
q-112 0 -165.5 -25t-53.5 -83q0 -38 21 -61.5zM259 525l-30 -21l-97 119l42 27z" />
    <glyph glyph-name="amacron" unicode="&#x101;" horiz-adv-x="460" 
d="M332 0q-7 40 -8 55q-40 -31 -75.5 -49t-77.5 -18q-55 0 -86.5 32.5t-31.5 87.5q0 79 67 114t201 35v61q0 99 -96 99q-31 0 -62 -7.5t-70 -23.5l-12 36q85 34 148 34q68 0 103 -34.5t35 -101.5v-192q0 -54 8 -128h-43zM123 50.5q21 -23.5 57 -23.5q59 0 141 70v123
q-112 0 -165.5 -25t-53.5 -83q0 -38 21 -61.5zM95 564h253v-34h-253v34z" />
    <glyph glyph-name="aogonek" unicode="&#x105;" horiz-adv-x="460" 
d="M391 -167q-40 -20 -80 -20q-44 0 -65 20.5t-21 57.5q0 34 24 66t81 57l-6 41q-40 -31 -75.5 -49t-77.5 -18q-55 0 -86.5 32.5t-31.5 87.5q0 79 67 114t201 35v61q0 99 -96 99q-31 0 -62 -7.5t-70 -23.5l-12 36q85 34 148 34q68 0 103 -34.5t35 -101.5v-192q0 -54 8 -128
h1q-54 -20 -82 -49.5t-28 -56.5q0 -23 14 -35t37 -12q26 0 63 16zM123 50.5q21 -23.5 57 -23.5q59 0 141 70v123q-112 0 -165.5 -25t-53.5 -83q0 -38 21 -61.5z" />
    <glyph glyph-name="aring" unicode="&#xe5;" horiz-adv-x="460" 
d="M332 0q-7 40 -8 55q-40 -31 -75.5 -49t-77.5 -18q-55 0 -86.5 32.5t-31.5 87.5q0 79 67 114t201 35v61q0 99 -96 99q-31 0 -62 -7.5t-70 -23.5l-12 36q85 34 148 34q68 0 103 -34.5t35 -101.5v-192q0 -54 8 -128h-43zM123 50.5q21 -23.5 57 -23.5q59 0 141 70v123
q-112 0 -165.5 -25t-53.5 -83q0 -38 21 -61.5zM159 529.5q-25 25.5 -25 62.5t25 62t63 25t63 -24.5t25 -62.5t-25 -63t-63 -25t-63 25.5zM182 633.5q-16 -16.5 -16 -41.5t16 -41.5t40 -16.5t40 16.5t16 41.5t-16 41.5t-40 16.5t-40 -16.5z" />
    <glyph glyph-name="atilde" unicode="&#xe3;" horiz-adv-x="460" 
d="M332 0q-7 40 -8 55q-40 -31 -75.5 -49t-77.5 -18q-55 0 -86.5 32.5t-31.5 87.5q0 79 67 114t201 35v61q0 99 -96 99q-31 0 -62 -7.5t-70 -23.5l-12 36q85 34 148 34q68 0 103 -34.5t35 -101.5v-192q0 -54 8 -128h-43zM123 50.5q21 -23.5 57 -23.5q59 0 141 70v123
q-112 0 -165.5 -25t-53.5 -83q0 -38 21 -61.5zM355 571q-18 -28 -37.5 -42.5t-43.5 -14.5q-18 0 -31 6t-28 17q-25 20 -46 20q-15 0 -26 -8.5t-19.5 -19.5t-11.5 -14l-22 20q37 57 80 57q18 0 30.5 -6t29.5 -17q13 -10 23 -14.5t23 -4.5q16 0 27 9t30 32z" />
    <glyph glyph-name="ae" unicode="&#xe6;" horiz-adv-x="712" 
d="M353 229v-1q0 -98 39 -149.5t113 -51.5q36 0 65.5 8t59.5 22l12 -35q-64 -34 -140 -34q-110 0 -156 82q-95 -82 -186 -82q-55 0 -87 32t-32 88q0 79 67.5 113.5t200.5 34.5v64q0 99 -93 99q-59 0 -134 -31l-12 37q86 32 150 32q55 0 84.5 -22.5t38.5 -67.5q47 91 151 91
q76 0 117.5 -50t41.5 -138q0 -8 -3 -38zM396 379.5q-35 -40.5 -42 -114.5l255 3v1q0 72 -30.5 111.5t-87.5 39.5q-60 0 -95 -40.5zM330 102q-19 53 -20 120q-112 -1 -166 -27t-54 -84q0 -38 21.5 -61.5t56.5 -23.5q72 0 162 76z" />
    <glyph glyph-name="b" unicode="b" horiz-adv-x="506" 
d="M397.5 400.5q48.5 -57.5 48.5 -168.5q0 -120 -53 -182t-155 -62q-73 0 -141 34v655h46v-247q32 16 56.5 22t55.5 6q94 0 142.5 -57.5zM356.5 78.5q40.5 51.5 40.5 150.5q0 93 -38 141.5t-110 48.5q-59 0 -106 -32v-338q47 -22 96 -22q77 0 117.5 51.5z" />
    <glyph glyph-name="c" unicode="c" horiz-adv-x="420" 
d="M254 -8q-95 0 -144 60.5t-49 170.5q0 112 51 172.5t147 60.5q57 0 116 -23l-11 -38q-53 22 -103 22q-75 0 -113.5 -49t-38.5 -142q0 -94 38.5 -144.5t109.5 -50.5q29 0 54 5.5t56 15.5l10 -35q-58 -25 -123 -25z" />
    <glyph glyph-name="cacute" unicode="&#x107;" horiz-adv-x="420" 
d="M254 -8q-95 0 -144 60.5t-49 170.5q0 112 51 172.5t147 60.5q57 0 116 -23l-11 -38q-53 22 -103 22q-75 0 -113.5 -49t-38.5 -142q0 -94 38.5 -144.5t109.5 -50.5q29 0 54 5.5t56 15.5l10 -35q-58 -25 -123 -25zM339 624l-97 -119l-28 20l84 125z" />
    <glyph glyph-name="ccaron" unicode="&#x10d;" horiz-adv-x="420" 
d="M254 -8q-95 0 -144 60.5t-49 170.5q0 112 51 172.5t147 60.5q57 0 116 -23l-11 -38q-53 22 -103 22q-75 0 -113.5 -49t-38.5 -142q0 -94 38.5 -144.5t109.5 -50.5q29 0 54 5.5t56 15.5l10 -35q-58 -25 -123 -25zM150 613l101 -68l99 68l18 -26l-99 -75h-39l-98 75z" />
    <glyph glyph-name="ccedilla" unicode="&#xe7;" horiz-adv-x="420" 
d="M323 -79.5q27 -19.5 27 -54.5q0 -38 -29 -55.5t-73 -17.5q-41 0 -74 13l7 27q36 -12 64 -12q33 0 50 12t17 34q0 54 -100 48l13 79q-81 9 -122.5 68.5t-41.5 160.5q0 112 51 172.5t147 60.5q57 0 116 -23l-11 -38q-53 22 -103 22q-75 0 -113.5 -49t-38.5 -142
q0 -94 38.5 -144.5t109.5 -50.5q29 0 54 5.5t56 15.5l10 -35q-56 -25 -120 -25l-10 -49q49 -3 76 -22.5z" />
    <glyph glyph-name="cdotaccent" unicode="&#x10b;" horiz-adv-x="420" 
d="M254 -8q-95 0 -144 60.5t-49 170.5q0 112 51 172.5t147 60.5q57 0 116 -23l-11 -38q-53 22 -103 22q-75 0 -113.5 -49t-38.5 -142q0 -94 38.5 -144.5t109.5 -50.5q29 0 54 5.5t56 15.5l10 -35q-58 -25 -123 -25zM222.5 514q-10.5 10 -10.5 26t10.5 26.5t26.5 10.5
t26.5 -10.5t10.5 -26.5t-10.5 -26t-26.5 -10t-26.5 10z" />
    <glyph glyph-name="d" unicode="d" horiz-adv-x="507" 
d="M409 677v-663q-80 -26 -143 -26q-100 0 -153 59t-53 173q0 113 54 176t151 63q30 0 52.5 -5t44.5 -15v238h47zM149.5 77.5q40.5 -49.5 119.5 -49.5q48 0 93 16v351q-43 25 -97 25q-75 0 -115.5 -52t-40.5 -146q0 -95 40.5 -144.5z" />
    <glyph glyph-name="eth" unicode="&#xf0;" horiz-adv-x="494" 
d="M324 537q53 -74 77.5 -147.5t24.5 -151.5q0 -120 -42 -184t-138 -64q-89 0 -139 52.5t-50 150.5q0 97 48.5 153t137.5 56q34 0 60 -6.5t52 -18.5q-23 73 -73 143l-127 -50l-13 33l119 46q-42 55 -100 112l32 26q62 -60 110 -121l115 45l12 -32zM350 83q27 53 27 151
q0 49 -9 97q-31 16 -58.5 24.5t-62.5 8.5q-67 0 -104 -45t-37 -122q0 -82 36.5 -124.5t103.5 -42.5q77 0 104 53z" />
    <glyph glyph-name="dcaron" unicode="&#x10f;" horiz-adv-x="510" 
d="M591 663l-103 -137l-30 20l89 143zM362 677h47v-663q-80 -26 -143 -26q-100 0 -153 59t-53 173q0 113 54 176t151 63q30 0 52.5 -5t44.5 -15v238zM149.5 77.5q40.5 -49.5 119.5 -49.5q48 0 93 16v351q-43 25 -97 25q-75 0 -115.5 -52t-40.5 -146q0 -95 40.5 -144.5z" />
    <glyph glyph-name="dcroat" unicode="&#x111;" horiz-adv-x="521" 
d="M498 533h-89v-519q-80 -26 -143 -26q-100 0 -153 59t-53 173q0 113 54 176t151 63q30 0 52.5 -5t44.5 -15v94h-154v35h154v109h47v-109h89v-35zM149.5 77.5q40.5 -49.5 119.5 -49.5q48 0 93 16v351q-43 25 -97 25q-75 0 -115.5 -52t-40.5 -146q0 -95 40.5 -144.5z" />
    <glyph glyph-name="e" unicode="e" horiz-adv-x="469" 
d="M105 232v-2q0 -99 40 -151t116 -52q60 0 126 30l12 -35q-66 -34 -141 -34q-96 0 -147.5 62t-51.5 177q0 109 50 170t141 61q75 0 116.5 -50t41.5 -139q0 -7 -3 -37h-300zM151 380q-36 -39 -44 -111h257q-1 72 -31 111t-85 39q-61 0 -97 -39z" />
    <glyph glyph-name="eacute" unicode="&#xe9;" horiz-adv-x="469" 
d="M105 232v-2q0 -99 40 -151t116 -52q60 0 126 30l12 -35q-66 -34 -141 -34q-96 0 -147.5 62t-51.5 177q0 109 50 170t141 61q75 0 116.5 -50t41.5 -139q0 -7 -3 -37h-300zM151 380q-36 -39 -44 -111h257q-1 72 -31 111t-85 39q-61 0 -97 -39zM337 624l-97 -119l-28 20
l84 125z" />
    <glyph glyph-name="ecaron" unicode="&#x11b;" horiz-adv-x="469" 
d="M105 232v-2q0 -99 40 -151t116 -52q60 0 126 30l12 -35q-66 -34 -141 -34q-96 0 -147.5 62t-51.5 177q0 109 50 170t141 61q75 0 116.5 -50t41.5 -139q0 -7 -3 -37h-300zM151 380q-36 -39 -44 -111h257q-1 72 -31 111t-85 39q-61 0 -97 -39zM148 613l101 -68l99 68
l18 -26l-99 -75h-39l-98 75z" />
    <glyph glyph-name="ecircumflex" unicode="&#xea;" horiz-adv-x="469" 
d="M105 232v-2q0 -99 40 -151t116 -52q60 0 126 30l12 -35q-66 -34 -141 -34q-96 0 -147.5 62t-51.5 177q0 109 50 170t141 61q75 0 116.5 -50t41.5 -139q0 -7 -3 -37h-300zM151 380q-36 -39 -44 -111h257q-1 72 -31 111t-85 39q-61 0 -97 -39zM347 507l-101 68l-99 -68
l-20 25l120 90l120 -90z" />
    <glyph glyph-name="edieresis" unicode="&#xeb;" horiz-adv-x="469" 
d="M105 232v-2q0 -99 40 -151t116 -52q60 0 126 30l12 -35q-66 -34 -141 -34q-96 0 -147.5 62t-51.5 177q0 109 50 170t141 61q75 0 116.5 -50t41.5 -139q0 -7 -3 -37h-300zM151 380q-36 -39 -44 -111h257q-1 72 -31 111t-85 39q-61 0 -97 -39zM177.5 553.5
q-9.5 -9.5 -25.5 -9.5t-25.5 9.5t-9.5 25.5t9.5 25.5t25.5 9.5t25.5 -9.5t9.5 -25.5t-9.5 -25.5zM367.5 553.5q-9.5 -9.5 -25.5 -9.5t-25.5 9.5t-9.5 25.5t9.5 25.5t25.5 9.5t25.5 -9.5t9.5 -25.5t-9.5 -25.5z" />
    <glyph glyph-name="edotaccent" unicode="&#x117;" horiz-adv-x="469" 
d="M105 232v-2q0 -99 40 -151t116 -52q60 0 126 30l12 -35q-66 -34 -141 -34q-96 0 -147.5 62t-51.5 177q0 109 50 170t141 61q75 0 116.5 -50t41.5 -139q0 -7 -3 -37h-300zM151 380q-36 -39 -44 -111h257q-1 72 -31 111t-85 39q-61 0 -97 -39zM220.5 514q-10.5 10 -10.5 26
t10.5 26.5t26.5 10.5t26.5 -10.5t10.5 -26.5t-10.5 -26t-26.5 -10t-26.5 10z" />
    <glyph glyph-name="egrave" unicode="&#xe8;" horiz-adv-x="469" 
d="M105 232v-2q0 -99 40 -151t116 -52q60 0 126 30l12 -35q-66 -34 -141 -34q-96 0 -147.5 62t-51.5 177q0 109 50 170t141 61q75 0 116.5 -50t41.5 -139q0 -7 -3 -37h-300zM151 380q-36 -39 -44 -111h257q-1 72 -31 111t-85 39q-61 0 -97 -39zM285 525l-30 -21l-97 119
l42 27z" />
    <glyph glyph-name="emacron" unicode="&#x113;" horiz-adv-x="469" 
d="M105 232v-2q0 -99 40 -151t116 -52q60 0 126 30l12 -35q-66 -34 -141 -34q-96 0 -147.5 62t-51.5 177q0 109 50 170t141 61q75 0 116.5 -50t41.5 -139q0 -7 -3 -37h-300zM151 380q-36 -39 -44 -111h257q-1 72 -31 111t-85 39q-61 0 -97 -39zM121 564h253v-34h-253v34z
" />
    <glyph glyph-name="eogonek" unicode="&#x119;" horiz-adv-x="469" 
d="M105 232v-2q0 -99 40 -151t116 -52q60 0 126 30l12 -35q-19 -10 -44 -19q-40 -20 -60.5 -45t-20.5 -48t14 -35t37 -12q26 0 63 16l11 -30q-40 -20 -80 -20q-44 0 -65 20.5t-21 57.5q0 45 39 81h-14q-96 0 -147.5 62t-51.5 177q0 109 50 170t141 61q75 0 116.5 -50
t41.5 -139q0 -7 -3 -37h-300zM151 380q-36 -39 -44 -111h257q-1 72 -31 111t-85 39q-61 0 -97 -39z" />
    <glyph glyph-name="f" unicode="f" horiz-adv-x="278" 
d="M176.5 621.5q-21.5 -28.5 -21.5 -81.5v-93h130v-37h-130v-410h-47v410h-77v37h77v91q0 150 145 150q53 0 101 -16l-9 -37q-48 15 -92 15q-55 0 -76.5 -28.5z" />
    <glyph glyph-name="g" unicode="g" horiz-adv-x="501" 
d="M409 424v-503q0 -77 -43.5 -118t-126.5 -41q-46 0 -80.5 10t-76.5 30l16 37q37 -19 70 -28.5t71 -9.5q61 0 92 30.5t31 90.5v96q-31 -17 -55.5 -23.5t-53.5 -6.5q-95 0 -144 63.5t-49 165.5q0 64 21.5 118.5t68 88.5t118.5 34q73 0 141 -34zM146 360q-37 -59 -37 -140
q0 -84 37.5 -138t111.5 -54q60 0 104 32v337q-42 22 -95 22q-84 0 -121 -59z" />
    <glyph glyph-name="gbreve" unicode="&#x11f;" horiz-adv-x="501" 
d="M409 424v-503q0 -77 -43.5 -118t-126.5 -41q-46 0 -80.5 10t-76.5 30l16 37q37 -19 70 -28.5t71 -9.5q61 0 92 30.5t31 90.5v96q-31 -17 -55.5 -23.5t-53.5 -6.5q-95 0 -144 63.5t-49 165.5q0 64 21.5 118.5t68 88.5t118.5 34q73 0 141 -34zM146 360q-37 -59 -37 -140
q0 -84 37.5 -138t111.5 -54q60 0 104 32v337q-42 22 -95 22q-84 0 -121 -59zM339 540q-32 -28 -86 -28q-53 0 -84 28t-39 80l39 4q9 -39 28.5 -59t57.5 -20t59 20.5t29 58.5l37 -4q-9 -52 -41 -80z" />
    <glyph glyph-name="gcommaaccent" unicode="&#x123;" horiz-adv-x="455" 
d="M242 635q-10 -21 -10 -40q0 -18 10 -32q8 -12 8 -23t-7 -17.5t-20 -6.5q-17 0 -28.5 17t-11.5 45q0 30 16 61.5t43 59.5l29 -25q-19 -18 -29 -39zM409 424v-503q0 -77 -43.5 -118t-126.5 -41q-46 0 -80.5 10t-76.5 30l16 37q37 -19 70 -28.5t71 -9.5q61 0 92 30.5
t31 90.5v96q-31 -17 -55.5 -23.5t-53.5 -6.5q-95 0 -144 63.5t-49 165.5q0 64 21.5 118.5t68 88.5t118.5 34q73 0 141 -34zM146 360q-37 -59 -37 -140q0 -84 37.5 -138t111.5 -54q60 0 104 32v337q-42 22 -95 22q-84 0 -121 -59z" />
    <glyph glyph-name="gdotaccent" unicode="&#x121;" horiz-adv-x="501" 
d="M409 424v-503q0 -77 -43.5 -118t-126.5 -41q-46 0 -80.5 10t-76.5 30l16 37q37 -19 70 -28.5t71 -9.5q61 0 92 30.5t31 90.5v96q-31 -17 -55.5 -23.5t-53.5 -6.5q-95 0 -144 63.5t-49 165.5q0 64 21.5 118.5t68 88.5t118.5 34q73 0 141 -34zM146 360q-37 -59 -37 -140
q0 -84 37.5 -138t111.5 -54q60 0 104 32v337q-42 22 -95 22q-84 0 -121 -59zM227 565.5q-10 10.5 -10 26.5q0 17 10 27t27 10q16 0 26.5 -10t10.5 -27q0 -16 -10.5 -26.5t-26.5 -10.5q-17 0 -27 10.5z" />
    <glyph glyph-name="h" unicode="h" horiz-adv-x="538" 
d="M446 313v-313h-47v309q0 106 -91 106q-35 0 -73 -17.5t-90 -57.5v-340h-47v677h46v-294q51 38 92 55.5t83 17.5q127 0 127 -143z" />
    <glyph glyph-name="hbar" unicode="&#x127;" horiz-adv-x="550" 
d="M454 313v-313h-47v309q0 106 -91 106q-35 0 -73 -17.5t-90 -57.5v-340h-47v533h-88v35h88v109h46v-109h156v-35h-156v-151q49 38 91 56t84 18q127 0 127 -143z" />
    <glyph glyph-name="i" unicode="i" horiz-adv-x="242" 
d="M98 447h46v-447h-46v447zM94 565.5q-10 10.5 -10 26.5q0 17 10 27t27 10q16 0 26.5 -10t10.5 -27q0 -16 -10.5 -26.5t-26.5 -10.5q-17 0 -27 10.5z" />
    <glyph glyph-name="dotlessi" unicode="&#x131;" horiz-adv-x="242" 
d="M98 447h46v-447h-46v447z" />
    <glyph glyph-name="iacute" unicode="&#xed;" horiz-adv-x="242" 
d="M98 447h46v-447h-46v447zM210 624l-97 -119l-28 20l84 125z" />
    <glyph glyph-name="icircumflex" unicode="&#xee;" horiz-adv-x="242" 
d="M98 447h46v-447h-46v447zM221 507l-101 68l-99 -68l-20 25l120 90l120 -90z" />
    <glyph glyph-name="idieresis" unicode="&#xef;" horiz-adv-x="242" 
d="M66 544.5q-10 -9.5 -26 -9.5t-25.5 9.5t-9.5 25.5t9.5 25.5t25.5 9.5t26 -9.5t10 -25.5t-10 -25.5zM226.5 544.5q-9.5 -9.5 -25.5 -9.5t-25.5 9.5t-9.5 25.5t9.5 25.5t25.5 9.5t25.5 -9.5t9.5 -25.5t-9.5 -25.5zM98 447h46v-447h-46v447z" />
    <glyph glyph-name="i.loclTRK" horiz-adv-x="242" 
d="M98 447h46v-447h-46v447zM94 565.5q-10 10.5 -10 26.5q0 17 10 27t27 10q16 0 26.5 -10t10.5 -27q0 -16 -10.5 -26.5t-26.5 -10.5q-17 0 -27 10.5z" />
    <glyph glyph-name="igrave" unicode="&#xec;" horiz-adv-x="242" 
d="M98 447h46v-447h-46v447zM158 525l-30 -21l-97 119l42 27z" />
    <glyph glyph-name="ij" unicode="&#x133;" horiz-adv-x="484" 
d="M94.5 565.5q-10.5 10.5 -10.5 26.5q0 17 10.5 27t26.5 10q17 0 27 -10t10 -27t-10 -27t-27 -10q-16 0 -26.5 10.5zM336.5 565.5q-10.5 10.5 -10.5 26.5q0 17 10.5 27t26.5 10q17 0 27 -10t10 -27q0 -16 -10 -26.5t-27 -10.5q-16 0 -26.5 10.5zM98 447h46v-447h-46v447z
M387 3q0 -59 -13.5 -94.5t-48.5 -57.5t-100 -35l-9 39q46 10 72 24.5t39 43t13 79.5v445h47v-444z" />
    <glyph glyph-name="imacron" unicode="&#x12b;" horiz-adv-x="242" 
d="M98 447h46v-447h-46v447zM-6 564h253v-34h-253v34z" />
    <glyph glyph-name="iogonek" unicode="&#x12f;" horiz-adv-x="242" 
d="M94.5 565.5q-10.5 10.5 -10.5 26.5q0 17 10.5 27t26.5 10q17 0 27 -10t10 -27q0 -16 -10 -26.5t-27 -10.5q-16 0 -26.5 10.5zM160 -167q-40 -20 -80 -20q-44 0 -65 20.5t-21 57.5q0 33 24 65t80 58v433h46v-447h1q-54 -20 -82 -49.5t-28 -56.5q0 -23 14 -35t37 -12
q26 0 63 16z" />
    <glyph glyph-name="j" unicode="j" horiz-adv-x="242" 
d="M94.5 565.5q-10.5 10.5 -10.5 26.5q0 17 10.5 27t26.5 10q17 0 27 -10t10 -27q0 -16 -10 -26.5t-27 -10.5q-16 0 -26.5 10.5zM144 3q0 -59 -13.5 -94.5t-48 -57.5t-99.5 -35l-9 39q46 10 72 24.5t39 43t13 79.5v445h46v-444z" />
    <glyph glyph-name="k" unicode="k" horiz-adv-x="434" 
d="M382 0l-166 224l-72 -79v-145h-46v677h46v-471l217 241h59l-174 -190l194 -257h-58z" />
    <glyph glyph-name="kcommaaccent" unicode="&#x137;" horiz-adv-x="434" 
d="M440 0h-58l-166 224l-72 -79v-145h-46v677h46v-471l217 241h59l-174 -190zM275.5 -85.5q11.5 -16.5 11.5 -44.5q0 -30 -16 -61.5t-43 -59.5l-29 24q19 18 29 39.5t10 40.5q0 17 -10 31q-8 12 -8 23t7 17.5t20 6.5q17 0 28.5 -16.5z" />
    <glyph glyph-name="l" unicode="l" horiz-adv-x="242" 
d="M98 677h46v-677h-46v677z" />
    <glyph glyph-name="lacute" unicode="&#x13a;" horiz-adv-x="242" 
d="M98 677h46v-677h-46v677zM211 854l-97 -119l-28 20l84 125z" />
    <glyph glyph-name="lcaron" unicode="&#x13e;" horiz-adv-x="249" 
d="M326 663l-103 -137l-30 20l90 143zM98 677h46v-677h-46v677z" />
    <glyph glyph-name="lcommaaccent" unicode="&#x13c;" horiz-adv-x="242" 
d="M98 677h46v-677h-46v677zM100.5 -188q9.5 21 9.5 41q0 15 -9 31q-8 12 -8 23q0 24 27 24q16 0 27.5 -16.5t11.5 -44.5q0 -31 -16 -62.5t-43 -58.5l-28 24q19 18 28.5 39z" />
    <glyph glyph-name="ldot" unicode="&#x140;" horiz-adv-x="267" 
d="M98 677h46v-677h-46v677zM232 291q-11 11 -11 28t11 27.5t27 10.5q17 0 27.5 -10.5t10.5 -27.5t-11 -28t-27 -11t-27 11z" />
    <glyph glyph-name="lslash" unicode="&#x142;" horiz-adv-x="252" 
d="M147 320v-320h-46v288l-65 -51l-20 32l85 65v343h46v-310l70 56l20 -31z" />
    <glyph glyph-name="m" unicode="m" horiz-adv-x="827" 
d="M703.5 421q31.5 -34 31.5 -114v-307h-46v303q0 56 -21.5 83.5t-68.5 27.5q-70 0 -160 -77l1 -30v-307h-47v303q0 56 -21.5 83.5t-69.5 27.5q-34 0 -74.5 -19.5t-83.5 -55.5v-339h-46v447h45l-1 -66q50 39 91.5 57t82.5 18q92 0 115 -80q53 42 96 60.5t85 18.5
q60 0 91.5 -34z" />
    <glyph glyph-name="n" unicode="n" horiz-adv-x="537" 
d="M445 313v-313h-47v309q0 106 -91 106q-35 0 -72.5 -17.5t-90.5 -57.5v-340h-46v447h45v-65q50 38 91 56t84 18q127 0 127 -143z" />
    <glyph glyph-name="nacute" unicode="&#x144;" horiz-adv-x="537" 
d="M445 313v-313h-47v309q0 106 -91 106q-35 0 -72.5 -17.5t-90.5 -57.5v-340h-46v447h45v-65q50 38 91 56t84 18q127 0 127 -143zM361 624l-97 -119l-28 20l84 125z" />
    <glyph glyph-name="ncaron" unicode="&#x148;" horiz-adv-x="537" 
d="M445 313v-313h-47v309q0 106 -91 106q-35 0 -72.5 -17.5t-90.5 -57.5v-340h-46v447h45v-65q50 38 91 56t84 18q127 0 127 -143zM173 613l101 -68l99 68l18 -26l-99 -75h-39l-98 75z" />
    <glyph glyph-name="ncommaaccent" unicode="&#x146;" horiz-adv-x="537" 
d="M445 313v-313h-47v309q0 106 -91 106q-35 0 -72.5 -17.5t-90.5 -57.5v-340h-46v447h45v-65q50 38 91 56t84 18q127 0 127 -143zM306.5 -85.5q11.5 -16.5 11.5 -44.5q0 -30 -16.5 -62t-43.5 -59l-28 24q19 18 29 39.5t10 40.5q0 17 -10 31q-8 12 -8 23t7 17.5t20 6.5
q17 0 28.5 -16.5z" />
    <glyph glyph-name="eng" unicode="&#x14b;" horiz-adv-x="542" 
d="M447 313v-310q0 -59 -13.5 -94.5t-48.5 -57.5t-100 -35l-9 39q46 10 72 24.5t39 43t13 79.5v307q0 106 -91 106q-36 0 -73.5 -18t-89.5 -58v-339h-46v447h44l1 -65q50 38 91 56t84 18q127 0 127 -143z" />
    <glyph glyph-name="ntilde" unicode="&#xf1;" horiz-adv-x="537" 
d="M445 313v-313h-47v309q0 106 -91 106q-35 0 -72.5 -17.5t-90.5 -57.5v-340h-46v447h45v-65q50 38 91 56t84 18q127 0 127 -143zM406 571q-18 -28 -37.5 -42.5t-43.5 -14.5q-18 0 -31 6t-28 17q-25 20 -46 20q-15 0 -26 -8.5t-19.5 -19.5t-11.5 -14l-22 20q37 57 80 57
q18 0 30.5 -6t29.5 -17q13 -10 23 -14.5t23 -4.5q16 0 27 9t30 32z" />
    <glyph glyph-name="o" unicode="o" horiz-adv-x="509" 
d="M398.5 396.5q50.5 -61.5 50.5 -170.5q0 -112 -51 -174t-142 -62q-92 0 -144 62t-52 173q0 110 52 171.5t146 61.5q90 0 140.5 -61.5zM147 368q-39 -51 -39 -142q0 -93 39.5 -145t110.5 -52q68 0 105.5 51.5t37.5 144.5q0 91 -38 142.5t-106 51.5q-71 0 -110 -51z" />
    <glyph glyph-name="oacute" unicode="&#xf3;" horiz-adv-x="509" 
d="M398.5 396.5q50.5 -61.5 50.5 -170.5q0 -112 -51 -174t-142 -62q-92 0 -144 62t-52 173q0 110 52 171.5t146 61.5q90 0 140.5 -61.5zM147 368q-39 -51 -39 -142q0 -93 39.5 -145t110.5 -52q68 0 105.5 51.5t37.5 144.5q0 91 -38 142.5t-106 51.5q-71 0 -110 -51zM344 624
l-97 -119l-28 20l84 125z" />
    <glyph glyph-name="ocircumflex" unicode="&#xf4;" horiz-adv-x="509" 
d="M398.5 396.5q50.5 -61.5 50.5 -170.5q0 -112 -51 -174t-142 -62q-92 0 -144 62t-52 173q0 110 52 171.5t146 61.5q90 0 140.5 -61.5zM147 368q-39 -51 -39 -142q0 -93 39.5 -145t110.5 -52q68 0 105.5 51.5t37.5 144.5q0 91 -38 142.5t-106 51.5q-71 0 -110 -51zM355 507
l-101 68l-99 -68l-20 25l120 90l120 -90z" />
    <glyph glyph-name="odieresis" unicode="&#xf6;" horiz-adv-x="509" 
d="M398.5 396.5q50.5 -61.5 50.5 -170.5q0 -112 -51 -174t-142 -62q-92 0 -144 62t-52 173q0 110 52 171.5t146 61.5q90 0 140.5 -61.5zM147 368q-39 -51 -39 -142q0 -93 39.5 -145t110.5 -52q68 0 105.5 51.5t37.5 144.5q0 91 -38 142.5t-106 51.5q-71 0 -110 -51z
M185.5 553.5q-9.5 -9.5 -25.5 -9.5t-25.5 9.5t-9.5 25.5t9.5 25.5t25.5 9.5t25.5 -9.5t9.5 -25.5t-9.5 -25.5zM375.5 553.5q-9.5 -9.5 -25.5 -9.5t-25.5 9.5t-9.5 25.5t9.5 25.5t25.5 9.5t25.5 -9.5t9.5 -25.5t-9.5 -25.5z" />
    <glyph glyph-name="ograve" unicode="&#xf2;" horiz-adv-x="509" 
d="M398.5 396.5q50.5 -61.5 50.5 -170.5q0 -112 -51 -174t-142 -62q-92 0 -144 62t-52 173q0 110 52 171.5t146 61.5q90 0 140.5 -61.5zM147 368q-39 -51 -39 -142q0 -93 39.5 -145t110.5 -52q68 0 105.5 51.5t37.5 144.5q0 91 -38 142.5t-106 51.5q-71 0 -110 -51zM292 525
l-30 -21l-97 119l42 27z" />
    <glyph glyph-name="ohungarumlaut" unicode="&#x151;" horiz-adv-x="509" 
d="M398.5 396.5q50.5 -61.5 50.5 -170.5q0 -112 -51 -174t-142 -62q-92 0 -144 62t-52 173q0 110 52 171.5t146 61.5q90 0 140.5 -61.5zM147 368q-39 -51 -39 -142q0 -93 39.5 -145t110.5 -52q68 0 105.5 51.5t37.5 144.5q0 91 -38 142.5t-106 51.5q-71 0 -110 -51zM124 513
l67 108h70l-100 -113zM296 513l68 108h71l-102 -113z" />
    <glyph glyph-name="omacron" unicode="&#x14d;" horiz-adv-x="509" 
d="M398.5 396.5q50.5 -61.5 50.5 -170.5q0 -112 -51 -174t-142 -62q-92 0 -144 62t-52 173q0 110 52 171.5t146 61.5q90 0 140.5 -61.5zM147 368q-39 -51 -39 -142q0 -93 39.5 -145t110.5 -52q68 0 105.5 51.5t37.5 144.5q0 91 -38 142.5t-106 51.5q-71 0 -110 -51zM128 564
h253v-34h-253v34z" />
    <glyph glyph-name="oslash" unicode="&#xf8;" horiz-adv-x="509" 
d="M406 386q43 -60 43 -160q0 -112 -51 -174t-142 -62q-75 0 -125 42l-60 -75l-36 26l66 83q-41 61 -41 159q0 110 52 171.5t146 61.5q70 0 118 -39l60 77l36 -25zM147 368q-39 -51 -39 -142q0 -75 26 -124l216 280q-37 37 -93 37q-71 0 -110 -51zM363.5 80.5
q37.5 51.5 37.5 144.5q0 75 -27 126l-218 -280q38 -42 102 -42q68 0 105.5 51.5z" />
    <glyph glyph-name="otilde" unicode="&#xf5;" horiz-adv-x="509" 
d="M398.5 396.5q50.5 -61.5 50.5 -170.5q0 -112 -51 -174t-142 -62q-92 0 -144 62t-52 173q0 110 52 171.5t146 61.5q90 0 140.5 -61.5zM147 368q-39 -51 -39 -142q0 -93 39.5 -145t110.5 -52q68 0 105.5 51.5t37.5 144.5q0 91 -38 142.5t-106 51.5q-71 0 -110 -51zM389 571
q-18 -28 -37.5 -42.5t-43.5 -14.5q-18 0 -31 6t-28 17q-25 20 -46 20q-15 0 -26 -8.5t-19.5 -19.5t-11.5 -14l-22 20q37 57 80 57q18 0 30.5 -6t29.5 -17q13 -10 23 -14.5t23 -4.5q16 0 27 9t30 32z" />
    <glyph glyph-name="oe" unicode="&#x153;" horiz-adv-x="735" 
d="M640 406.5q35 -51.5 35 -140.5q0 -22 -1 -34h-271q-1 -3 -1 -9q1 -95 35 -145t100 -50q55 0 115 34l13 -36q-62 -36 -130 -36q-59 0 -97 28t-54 79q-17 -50 -53.5 -79.5t-94.5 -29.5q-86 0 -132.5 61.5t-46.5 176.5q0 112 47.5 172.5t134.5 60.5q111 0 146 -106
q20 51 56.5 78t84.5 27q79 0 114 -51.5zM525 420q-52 0 -82.5 -38.5t-38.5 -113.5h226q2 152 -105 152zM329 78.5q31 50.5 31 146.5q0 94 -32 144.5t-91 50.5q-63 0 -96.5 -49.5t-33.5 -141.5q0 -98 34 -149.5t98 -51.5q59 0 90 50.5z" />
    <glyph glyph-name="p" unicode="p" horiz-adv-x="507" 
d="M394 400q53 -59 53 -173q0 -113 -54 -176t-152 -63q-29 0 -51.5 5t-45.5 15v-238h-46v664q81 25 143 25q100 0 153 -59zM357 80q41 52 41 145q0 95 -40.5 145t-119.5 50q-46 0 -94 -17v-350q44 -25 98 -25q74 0 115 52z" />
    <glyph glyph-name="thorn" unicode="&#xfe;" horiz-adv-x="506" 
d="M400.5 400.5q48.5 -57.5 48.5 -168.5q0 -120 -53 -182t-155 -62q-47 0 -95 15v-233h-46v907h46v-247q32 16 57 22t55 6q94 0 142.5 -57.5zM359.5 78.5q40.5 51.5 40.5 150.5q0 93 -38 141.5t-111 48.5q-58 0 -105 -32v-338q47 -22 96 -22q77 0 117.5 51.5z" />
    <glyph glyph-name="q" unicode="q" horiz-adv-x="503" 
d="M411 425v-655h-47v248q-31 -16 -56 -22.5t-55 -6.5q-93 0 -142 59.5t-49 171.5q0 119 52.5 179t155.5 60q73 0 141 -34zM364 60v339q-47 21 -95 21q-78 0 -118 -49.5t-40 -147.5q0 -94 38 -144.5t110 -50.5q59 0 105 32z" />
    <glyph glyph-name="r" unicode="r" horiz-adv-x="353" 
d="M306 410q-47 0 -84.5 -34.5t-77.5 -96.5v-279h-46v447h46v-108q74 116 158 116q19 0 40 -6l-7 -43q-20 4 -29 4z" />
    <glyph glyph-name="racute" unicode="&#x155;" horiz-adv-x="353" 
d="M306 410q-47 0 -84.5 -34.5t-77.5 -96.5v-279h-46v447h46v-108q74 116 158 116q19 0 40 -6l-7 -43q-20 4 -29 4zM275 624l-97 -119l-28 20l84 125z" />
    <glyph glyph-name="rcaron" unicode="&#x159;" horiz-adv-x="353" 
d="M306 410q-47 0 -84.5 -34.5t-77.5 -96.5v-279h-46v447h46v-108q74 116 158 116q19 0 40 -6l-7 -43q-20 4 -29 4zM86 613l101 -68l99 68l18 -26l-99 -75h-39l-98 75z" />
    <glyph glyph-name="rcommaaccent" unicode="&#x157;" horiz-adv-x="353" 
d="M306 410q-47 0 -84.5 -34.5t-77.5 -96.5v-279h-46v447h46v-108q74 116 158 116q19 0 40 -6l-7 -43q-20 4 -29 4zM123.5 -188q9.5 21 9.5 41q0 15 -9 31q-8 12 -8 23q0 24 26 24q17 0 28.5 -16.5t11.5 -44.5q0 -30 -16 -61.5t-43 -59.5l-28 24q19 18 28.5 39z" />
    <glyph glyph-name="s" unicode="s" horiz-adv-x="384" 
d="M309 399q-53 21 -99 21q-47 0 -74 -18.5t-27 -53.5q0 -25 13.5 -43t33.5 -29.5t56 -27.5q42 -19 67.5 -34.5t43.5 -41.5t18 -65q0 -61 -43 -89t-112 -28q-35 0 -73 7.5t-67 20.5l13 38q72 -28 128 -28q49 0 78.5 19.5t29.5 57.5q0 27 -14.5 46t-35.5 31.5t-58 29.5
q-41 18 -65.5 33t-42 40t-17.5 61q0 56 41 83.5t106 27.5q55 0 112 -19z" />
    <glyph glyph-name="sacute" unicode="&#x15b;" horiz-adv-x="384" 
d="M309 399q-53 21 -99 21q-47 0 -74 -18.5t-27 -53.5q0 -25 13.5 -43t33.5 -29.5t56 -27.5q42 -19 67.5 -34.5t43.5 -41.5t18 -65q0 -61 -43 -89t-112 -28q-35 0 -73 7.5t-67 20.5l13 38q72 -28 128 -28q49 0 78.5 19.5t29.5 57.5q0 27 -14.5 46t-35.5 31.5t-58 29.5
q-41 18 -65.5 33t-42 40t-17.5 61q0 56 41 83.5t106 27.5q55 0 112 -19zM292 624l-97 -119l-28 20l84 125z" />
    <glyph glyph-name="scaron" unicode="&#x161;" horiz-adv-x="384" 
d="M309 399q-53 21 -99 21q-47 0 -74 -18.5t-27 -53.5q0 -25 13.5 -43t33.5 -29.5t56 -27.5q42 -19 67.5 -34.5t43.5 -41.5t18 -65q0 -61 -43 -89t-112 -28q-35 0 -73 7.5t-67 20.5l13 38q72 -28 128 -28q49 0 78.5 19.5t29.5 57.5q0 27 -14.5 46t-35.5 31.5t-58 29.5
q-41 18 -65.5 33t-42 40t-17.5 61q0 56 41 83.5t106 27.5q55 0 112 -19zM103 613l101 -68l99 68l18 -26l-99 -75h-39l-98 75z" />
    <glyph glyph-name="scedilla" unicode="&#x15f;" horiz-adv-x="384" 
d="M302.5 21.5q-38.5 -28.5 -101.5 -31.5l-10 -47q49 -3 76 -22.5t27 -54.5q0 -38 -29 -55.5t-73 -17.5q-42 0 -74 13l7 27q36 -12 64 -12q33 0 50 12t17 34q0 54 -100 48l12 75q-70 5 -122 28l13 38q72 -28 128 -28q49 0 78.5 19.5t29.5 57.5q0 27 -14.5 46t-35.5 31.5
t-58 29.5q-41 18 -65.5 33t-42 40t-17.5 61q0 56 41 83.5t106 27.5q55 0 112 -19l-12 -39q-53 21 -99 21q-47 0 -74 -18.5t-27 -53.5q0 -25 13.5 -43t33.5 -29.5t56 -27.5q42 -19 67.5 -34.5t43.5 -41.5t18 -65q0 -57 -38.5 -85.5z" />
    <glyph glyph-name="scommaaccent" unicode="&#x219;" horiz-adv-x="383" 
d="M309 399q-53 21 -99 21q-47 0 -74 -18.5t-27 -53.5q0 -25 13.5 -43t33.5 -29.5t56 -27.5q42 -19 67.5 -34.5t43.5 -41.5t18 -65q0 -61 -43 -89t-112 -28q-35 0 -73 7.5t-67 20.5l13 38q72 -28 128 -28q49 0 78.5 19.5t29.5 57.5q0 27 -14.5 46t-35.5 31.5t-58 29.5
q-41 18 -65.5 33t-42 40t-17.5 61q0 56 41 83.5t106 27.5q55 0 112 -19zM164.5 -188q9.5 21 9.5 41q0 15 -9 31q-8 12 -8 23q0 24 27 24q16 0 27.5 -16.5t11.5 -44.5q0 -31 -16 -62.5t-43 -58.5l-28 24q19 18 28.5 39z" />
    <glyph glyph-name="germandbls" unicode="&#xdf;" horiz-adv-x="492" 
d="M393.5 152q-15.5 23 -48.5 56q-35 34 -52 59t-17 60q0 34 15 62.5t43 64.5q27 37 38.5 58.5t11.5 47.5q0 35 -25 59.5t-77 24.5q-64 0 -97.5 -40t-33.5 -103v-501h-46v497q0 83 46.5 134.5t131.5 51.5q70 0 110 -33.5t40 -84.5q0 -34 -14.5 -61.5t-43.5 -67.5
q-24 -31 -37 -54.5t-13 -49.5q0 -29 14.5 -49.5t45.5 -50.5q36 -34 54.5 -62t18.5 -70q0 -61 -41.5 -86.5t-92.5 -25.5q-28 0 -55.5 8t-61.5 23l15 42q32 -17 55.5 -25.5t47.5 -8.5q40 0 62 18.5t22 52.5q0 31 -15.5 54z" />
    <glyph glyph-name="t" unicode="t" horiz-adv-x="324" 
d="M230 -11q-64 0 -93 34t-29 101v286h-70v37h70v152l47 12v-164h135v-37h-135v-283q0 -48 19 -73t62 -25q36 0 74 14l10 -38q-42 -16 -90 -16z" />
    <glyph glyph-name="tbar" unicode="&#x167;" horiz-adv-x="316" 
d="M320 5q-42 -16 -90 -16q-64 0 -93 34t-29 101v162h-74v36h74v88h-70v37h70v152l47 12v-164h135v-37h-135v-88h131v-36h-131v-159q0 -48 19 -73t62 -25q36 0 74 14z" />
    <glyph glyph-name="tcaron" unicode="&#x165;" horiz-adv-x="316" 
d="M323 663l-94 -128l-30 20l80 134zM230 -11q-64 0 -93 34t-29 101v286h-70v37h70v152l47 12v-164h135v-37h-135v-283q0 -48 19 -73t62 -25q36 0 74 14l10 -38q-42 -16 -90 -16z" />
    <glyph glyph-name="uni0163" unicode="&#x163;" horiz-adv-x="324" 
d="M287 -79.5q27 -19.5 27 -54.5q0 -38 -29 -55.5t-73 -17.5q-42 0 -74 13l7 27q36 -12 64 -12q33 0 50 12t17 34q0 54 -100 48l13 78q-42 10 -61.5 43t-19.5 88v286h-70v37h70v152l47 12v-164h135v-37h-135v-283q0 -48 19 -73t62 -25q36 0 74 14l10 -38q-42 -16 -90 -16h-9
l-10 -46q49 -3 76 -22.5z" />
    <glyph glyph-name="uni021B" unicode="&#x21b;" horiz-adv-x="324" 
d="M230 -11q-64 0 -93 34t-29 101v286h-70v37h70v152l47 12v-164h135v-37h-135v-283q0 -48 19 -73t62 -25q36 0 74 14l10 -38q-42 -16 -90 -16zM185 -187.5q10 21.5 10 40.5q0 17 -10 31q-8 12 -8 23t7 17.5t20 6.5q17 0 28.5 -16.5t11.5 -44.5q0 -30 -16 -61.5t-43 -59.5
l-29 24q19 18 29 39.5z" />
    <glyph glyph-name="u" unicode="u" horiz-adv-x="537" 
d="M439 447v-447h-45v65q-49 -38 -91 -56t-84 -18q-127 0 -127 143v313h47v-309q0 -106 91 -106q36 0 73.5 18t89.5 58v339h46z" />
    <glyph glyph-name="uacute" unicode="&#xfa;" horiz-adv-x="537" 
d="M439 447v-447h-45v65q-49 -38 -91 -56t-84 -18q-127 0 -127 143v313h47v-309q0 -106 91 -106q36 0 73.5 18t89.5 58v339h46zM355 624l-97 -119l-28 20l84 125z" />
    <glyph glyph-name="ucircumflex" unicode="&#xfb;" horiz-adv-x="537" 
d="M439 447v-447h-45v65q-49 -38 -91 -56t-84 -18q-127 0 -127 143v313h47v-309q0 -106 91 -106q36 0 73.5 18t89.5 58v339h46zM366 507l-101 68l-99 -68l-20 25l120 90l120 -90z" />
    <glyph glyph-name="udieresis" unicode="&#xfc;" horiz-adv-x="537" 
d="M439 447v-447h-45v65q-49 -38 -91 -56t-84 -18q-127 0 -127 143v313h47v-309q0 -106 91 -106q36 0 73.5 18t89.5 58v339h46zM196.5 553.5q-9.5 -9.5 -25.5 -9.5t-25.5 9.5t-9.5 25.5t9.5 25.5t25.5 9.5t25.5 -9.5t9.5 -25.5t-9.5 -25.5zM386.5 553.5
q-9.5 -9.5 -25.5 -9.5t-25.5 9.5t-9.5 25.5t9.5 25.5t25.5 9.5t25.5 -9.5t9.5 -25.5t-9.5 -25.5z" />
    <glyph glyph-name="ugrave" unicode="&#xf9;" horiz-adv-x="537" 
d="M439 447v-447h-45v65q-49 -38 -91 -56t-84 -18q-127 0 -127 143v313h47v-309q0 -106 91 -106q36 0 73.5 18t89.5 58v339h46zM304 525l-30 -21l-97 119l42 27z" />
    <glyph glyph-name="uhungarumlaut" unicode="&#x171;" horiz-adv-x="537" 
d="M439 447v-447h-45v65q-49 -38 -91 -56t-84 -18q-127 0 -127 143v313h47v-309q0 -106 91 -106q36 0 73.5 18t89.5 58v339h46zM136 513l67 108h70l-100 -113zM308 513l68 108h71l-102 -113z" />
    <glyph glyph-name="umacron" unicode="&#x16b;" horiz-adv-x="537" 
d="M439 447v-447h-45v65q-49 -38 -91 -56t-84 -18q-127 0 -127 143v313h47v-309q0 -106 91 -106q36 0 73.5 18t89.5 58v339h46zM140 564h253v-34h-253v34z" />
    <glyph glyph-name="uogonek" unicode="&#x173;" horiz-adv-x="537" 
d="M454 -167q-40 -20 -80 -20q-44 0 -65 20.5t-21 57.5q0 33 24.5 65.5t81.5 58.5v50q-49 -38 -91 -56t-84 -18q-127 0 -127 143v313h47v-309q0 -106 91 -106q36 0 73.5 18t89.5 58v339h46v-447q-54 -20 -82 -49.5t-28 -56.5q0 -23 14 -35t37 -12q26 0 63 16z" />
    <glyph glyph-name="uring" unicode="&#x16f;" horiz-adv-x="537" 
d="M439 447v-447h-45v65q-49 -38 -91 -56t-84 -18q-127 0 -127 143v313h47v-309q0 -106 91 -106q36 0 73.5 18t89.5 58v339h46zM204 529.5q-25 25.5 -25 62.5t25 62t63 25t63 -24.5t25 -62.5t-25 -63t-63 -25t-63 25.5zM227 633.5q-16 -16.5 -16 -41.5t16 -41.5t40 -16.5
t40 16.5t16 41.5t-16 41.5t-40 16.5t-40 -16.5z" />
    <glyph glyph-name="v" unicode="v" horiz-adv-x="441" 
d="M423 447l-179 -447h-47l-179 447h52l152 -397l149 397h52z" />
    <glyph glyph-name="w" unicode="w" horiz-adv-x="677" 
d="M646 447l-127 -447h-40l-140 387l-140 -387h-40l-128 447h47l105 -386l137 386h39l139 -385l101 385h47z" />
    <glyph glyph-name="wacute" unicode="&#x1e83;" horiz-adv-x="677" 
d="M646 447l-127 -447h-40l-140 387l-140 -387h-40l-128 447h47l105 -386l137 386h39l139 -385l101 385h47zM429 624l-97 -119l-28 20l84 125z" />
    <glyph glyph-name="wcircumflex" unicode="&#x175;" horiz-adv-x="677" 
d="M646 447l-127 -447h-40l-140 387l-140 -387h-40l-128 447h47l105 -386l137 386h39l139 -385l101 385h47zM440 507l-101 68l-99 -68l-20 25l120 90l120 -90z" />
    <glyph glyph-name="wdieresis" unicode="&#x1e85;" horiz-adv-x="677" 
d="M646 447l-127 -447h-40l-140 387l-140 -387h-40l-128 447h47l105 -386l137 386h39l139 -385l101 385h47zM270.5 553.5q-9.5 -9.5 -25.5 -9.5t-25.5 9.5t-9.5 25.5t9.5 25.5t25.5 9.5t25.5 -9.5t9.5 -25.5t-9.5 -25.5zM460.5 553.5q-9.5 -9.5 -25.5 -9.5t-25.5 9.5
t-9.5 25.5t9.5 25.5t25.5 9.5t25.5 -9.5t9.5 -25.5t-9.5 -25.5z" />
    <glyph glyph-name="wgrave" unicode="&#x1e81;" horiz-adv-x="677" 
d="M646 447l-127 -447h-40l-140 387l-140 -387h-40l-128 447h47l105 -386l137 386h39l139 -385l101 385h47zM378 525l-30 -21l-97 119l42 27z" />
    <glyph glyph-name="x" unicode="x" horiz-adv-x="392" 
d="M325 0l-130 195l-132 -195h-53l156 225l-149 221h56l123 -188l125 188h53l-151 -220l159 -226h-57z" />
    <glyph glyph-name="y" unicode="y" horiz-adv-x="422" 
d="M414 447l-180 -498q-29 -81 -81.5 -120.5t-146.5 -38.5l-4 39q74 1 117.5 29.5t72.5 102.5l9 22l-190 464h54l158 -405l143 405h48z" />
    <glyph glyph-name="yacute" unicode="&#xfd;" horiz-adv-x="422" 
d="M414 447l-180 -498q-29 -81 -81.5 -120.5t-146.5 -38.5l-4 39q74 1 117.5 29.5t72.5 102.5l9 22l-190 464h54l158 -405l143 405h48zM306 624l-97 -119l-28 20l84 125z" />
    <glyph glyph-name="ycircumflex" unicode="&#x177;" horiz-adv-x="422" 
d="M414 447l-180 -498q-29 -81 -81.5 -120.5t-146.5 -38.5l-4 39q74 1 117.5 29.5t72.5 102.5l9 22l-190 464h54l158 -405l143 405h48zM317 507l-101 68l-99 -68l-20 25l120 90l120 -90z" />
    <glyph glyph-name="ydieresis" unicode="&#xff;" horiz-adv-x="422" 
d="M414 447l-180 -498q-29 -81 -81.5 -120.5t-146.5 -38.5l-4 39q74 1 117.5 29.5t72.5 102.5l9 22l-190 464h54l158 -405l143 405h48zM147.5 553.5q-9.5 -9.5 -25.5 -9.5t-25.5 9.5t-9.5 25.5t9.5 25.5t25.5 9.5t25.5 -9.5t9.5 -25.5t-9.5 -25.5zM337.5 553.5
q-9.5 -9.5 -25.5 -9.5t-25.5 9.5t-9.5 25.5t9.5 25.5t25.5 9.5t25.5 -9.5t9.5 -25.5t-9.5 -25.5z" />
    <glyph glyph-name="ygrave" unicode="&#x1ef3;" horiz-adv-x="422" 
d="M414 447l-180 -498q-29 -81 -81.5 -120.5t-146.5 -38.5l-4 39q74 1 117.5 29.5t72.5 102.5l9 22l-190 464h54l158 -405l143 405h48zM255 525l-30 -21l-97 119l42 27z" />
    <glyph glyph-name="z" unicode="z" horiz-adv-x="408" 
d="M30 30l280 379h-263v38h320l3 -31l-279 -378h286v-38h-344z" />
    <glyph glyph-name="zacute" unicode="&#x17a;" horiz-adv-x="408" 
d="M30 30l280 379h-263v38h320l3 -31l-279 -378h286v-38h-344zM301 624l-97 -119l-28 20l84 125z" />
    <glyph glyph-name="zcaron" unicode="&#x17e;" horiz-adv-x="408" 
d="M30 30l280 379h-263v38h320l3 -31l-279 -378h286v-38h-344zM113 613l101 -68l99 68l18 -26l-99 -75h-39l-98 75z" />
    <glyph glyph-name="zdotaccent" unicode="&#x17c;" horiz-adv-x="408" 
d="M30 30l280 379h-263v38h320l3 -31l-279 -378h286v-38h-344zM184.5 514q-10.5 10 -10.5 26t10.5 26.5t26.5 10.5t26.5 -10.5t10.5 -26.5t-10.5 -26t-26.5 -10t-26.5 10z" />
    <glyph glyph-name="f.calt" horiz-adv-x="277" 
d="M242 646q-47 0 -67 -26t-20 -77v-96h129v-37h-129v-410h-47v410l-77 -1v38h77v96q0 142 132 142q36 0 73 -10l-9 -37q-25 8 -62 8z" />
    <glyph glyph-name="ordfeminine" unicode="&#xaa;" horiz-adv-x="345" 
d="M235 341q-35 -24 -56 -35t-49 -11q-42 0 -65.5 23t-23.5 62q0 56 46 78t144 23v42q0 29 -13.5 49t-48.5 20q-23 0 -50.5 -7t-51.5 -17l-9 33q31 11 59 18t58 7q54 0 75.5 -28.5t21.5 -71.5v-147q0 -18 5 -76h-38zM118 436q-36 -16 -36 -54q0 -25 14 -38.5t40 -13.5
q21 0 47 13t48 32v78q-77 -1 -113 -17zM51 244h236v-39h-236v39z" />
    <glyph glyph-name="ordmasculine" unicode="&#xba;" horiz-adv-x="392" 
d="M296 582.5q36 -41.5 36 -117.5q0 -80 -38 -124t-108 -44q-67 0 -102.5 42.5t-35.5 121.5q0 78 37.5 120.5t107.5 42.5q67 0 103 -41.5zM262 366q26 34 26 97q0 61 -25 93.5t-72 32.5t-73 -33t-26 -94q0 -62 25.5 -96t71.5 -34q47 0 73 34zM60 244h277v-39h-277v39z" />
    <glyph glyph-name="pi" unicode="&#x3c0;" horiz-adv-x="516" 
d="M481 -1q-9 -2 -31 -2q-40 0 -61 14.5t-28 41.5t-7 71v285h-190q0 -181 -5 -258.5t-28 -150.5h-45q22 71 27.5 145.5t5.5 230.5v33q-55 -3 -93 -14l-8 36q44 16 124 16h338v-38h-80v-285q0 -49 12.5 -68.5t44.5 -19.5q15 0 23 1z" />
    <glyph glyph-name="zero" unicode="0" horiz-adv-x="525" 
d="M106.5 71q-52.5 81 -52.5 238t53 237t156 80t155.5 -79t52.5 -233q0 -160 -53 -242t-157 -82q-102 0 -154.5 81zM143 517.5q-40 -69.5 -40 -206.5q0 -140 40 -211t119 -71t119.5 71t40.5 211q0 137 -40.5 206.5t-119.5 69.5t-119 -69.5z" />
    <glyph glyph-name="one" unicode="1" horiz-adv-x="348" 
d="M198 553l-149 -79l-16 36l173 105h39v-615h-47v553z" />
    <glyph glyph-name="two" unicode="2" horiz-adv-x="417" 
d="M393 40v-40h-368l-4 34q85 95 79 88q81 90 123.5 142.5t71.5 107t29 104.5q0 52 -31.5 80t-88.5 28q-36 0 -76.5 -11t-77.5 -31l-13 38q93 44 170 44q78 0 122 -38t44 -107q0 -58 -30.5 -118t-77.5 -117.5t-135 -153.5l-46 -50h309z" />
    <glyph glyph-name="three" unicode="3" horiz-adv-x="423" 
d="M344 285q31 -44 31 -106q0 -88 -56 -139.5t-160 -51.5q-31 0 -69 5.5t-65 14.5l10 38q22 -7 58.5 -12.5t68.5 -5.5q80 0 122.5 41t42.5 109q0 146 -206 139l-32 -1l-1 38l40 2q84 4 127 37t43 89q0 49 -30 75t-84 26q-69 0 -131 -26l-12 38q37 13 69 20.5t78 7.5
q76 0 117.5 -35t41.5 -100q0 -51 -26.5 -88.5t-78.5 -55.5q71 -15 102 -59z" />
    <glyph glyph-name="four" unicode="4" horiz-adv-x="435" 
d="M77 186h217l4 227h43v-227h88v-40h-88v-146h-46v146h-263l-8 33l187 436h48z" />
    <glyph glyph-name="five" unicode="5" horiz-adv-x="442" 
d="M335.5 335.5q56.5 -47.5 56.5 -136.5q0 -101 -55 -155t-157 -54q-73 0 -133 16l9 40q59 -16 125 -16q77 0 119 43.5t42 124.5q0 70 -45.5 108t-128.5 38q-37 0 -104 -6l14 277h283l1 -39h-243l-10 -197q27 4 66 4q104 0 160.5 -47.5z" />
    <glyph glyph-name="six" unicode="6" horiz-adv-x="473" 
d="M378.5 314q46.5 -45 46.5 -133q0 -93 -49 -143t-140 -50q-103 0 -145.5 74t-42.5 224q0 166 54 250.5t170 84.5q66 0 121 -23l-12 -39q-53 23 -110 23q-90 0 -131 -67.5t-43 -205.5q68 50 149 50q86 0 132.5 -45zM340 66.5q36 38.5 36 111.5q0 70 -34 106t-99 36
q-37 0 -75 -14t-71 -41q3 -124 35.5 -180.5t104.5 -56.5q67 0 103 38.5z" />
    <glyph glyph-name="seven" unicode="7" horiz-adv-x="361" 
d="M11 615h336l3 -35l-237 -580h-50l235 575h-287v40z" />
    <glyph glyph-name="eight" unicode="8" horiz-adv-x="480" 
d="M400 249.5q37 -39.5 37 -103.5q0 -74 -52 -116t-145 -42q-92 0 -143 40.5t-51 112.5q0 65 40 108.5t103 79.5q-55 32 -84.5 67t-29.5 88q0 67 44 104t125 37q80 0 124 -35t44 -99q0 -98 -117 -167q68 -35 105 -74.5zM156 407.5q33 -30.5 99 -63.5q44 24 76 61t32 82
q0 47 -32 73t-90 26q-56 0 -87 -26.5t-31 -73.5q0 -48 33 -78.5zM350 58q38 31 38 86q0 40 -22 69t-52 47.5t-88 48.5q-60 -34 -95.5 -73.5t-35.5 -90.5q0 -56 39 -87t109 -31q69 0 107 31z" />
    <glyph glyph-name="nine" unicode="9" horiz-adv-x="473" 
d="M382 551q43 -74 43 -224q0 -165 -54 -250t-171 -85q-66 0 -120 23l12 39q53 -23 110 -23q90 0 131 67.5t43 205.5q-68 -50 -150 -50q-86 0 -132 45t-46 133q0 93 48.5 143t139.5 50q103 0 146 -74zM131 329q34 -36 99 -36q37 0 74.5 14.5t71.5 41.5q-3 124 -35.5 180
t-105.5 56q-67 0 -102.5 -38.5t-35.5 -111.5q0 -70 34 -106z" />
    <glyph glyph-name="fraction" unicode="&#x2044;" horiz-adv-x="110" 
d="M-190 56l450 544l32 -26l-450 -546z" />
    <glyph glyph-name="onehalf" unicode="&#xbd;" horiz-adv-x="609" 
d="M122 568l-97 -43l-13 31l116 63h36v-343h-42v292zM520 574l-450 -546l-32 28l450 544zM594 33v-33h-238l-1 25l46 41q67 58 101 98.5t34 83.5q0 30 -18.5 46.5t-53.5 16.5q-45 0 -91 -22l-11 34q53 24 109 24q52 0 80.5 -25.5t28.5 -68.5q0 -37 -20.5 -71.5t-49 -63
t-75.5 -69.5l-18 -16h177z" />
    <glyph glyph-name="onequarter" unicode="&#xbc;" horiz-adv-x="563" 
d="M122 568l-97 -43l-13 31l116 63h36v-343h-42v292zM38 56l450 544l32 -26l-450 -546zM345 112h109l5 119h36v-119h51v-35h-51v-77h-42v77h-148l-5 30l106 234h43z" />
    <glyph glyph-name="threequarters" unicode="&#xbe;" horiz-adv-x="591" 
d="M198 297q-35 -27 -99 -27q-33 0 -56 5.5t-26 6.5l9 33q33 -11 73 -11q44 0 67.5 18.5t23.5 51.5q0 69 -105 69h-29l-1 31h21q44 0 70.5 18.5t26.5 47.5q0 22 -17 35t-48 13q-33 0 -72 -13l-9 31q46 16 86 16q50 0 76.5 -20.5t26.5 -56.5q0 -28 -15 -49t-40 -31
q72 -20 72 -91q0 -50 -35 -77zM548 574l-450 -546l-32 28l450 544zM574 112v-35h-51v-77h-42v77h-148l-5 30l107 234h42l-104 -229h109l6 119h35v-119h51z" />
    <glyph glyph-name="asterisk" unicode="*" horiz-adv-x="423" 
d="M242 414l102 -130l-38 -28l-95 136l-92 -136l-38 27l100 131l-158 46l14 45l155 -54l-4 164h46l-3 -165l154 56l15 -44z" />
    <glyph glyph-name="backslash" unicode="\" horiz-adv-x="286" 
d="M26 681l246 -757l-41 -14l-247 758z" />
    <glyph glyph-name="periodcentered" unicode="&#xb7;" horiz-adv-x="244" 
d="M95 249q-11 11 -11 28t11 27.5t27 10.5q17 0 27.5 -10.5t10.5 -27.5t-11 -28t-27 -11t-27 11z" />
    <glyph glyph-name="bullet" unicode="&#x2022;" horiz-adv-x="315" 
d="M195.5 316q15.5 -15 15.5 -41t-15.5 -41t-41.5 -15q-25 0 -40.5 15.5t-15.5 40.5t15.5 40.5t40.5 15.5q26 0 41.5 -15z" />
    <glyph glyph-name="colon" unicode=":" horiz-adv-x="220" 
d="M96 4q-11 11 -11 28t11 27.5t27 10.5q17 0 27.5 -10.5t10.5 -27.5t-11 -28t-27 -11t-27 11zM96 388q-11 11 -11 28t11 27.5t27 10.5q17 0 27.5 -10.5t10.5 -27.5t-11 -28t-27 -11t-27 11z" />
    <glyph glyph-name="comma" unicode="," horiz-adv-x="213" 
d="M109 -9q0 18 -10 32q-9 13 -9 27q0 12 7.5 19.5t21.5 7.5q18 0 30.5 -19t12.5 -49q0 -33 -18 -68t-48 -66l-29 28q42 43 42 88z" />
    <glyph glyph-name="ellipsis" unicode="&#x2026;" horiz-adv-x="635" 
d="M89 4q-11 11 -11 28t11 27.5t27 10.5q17 0 27.5 -10.5t10.5 -27.5t-11 -28t-27 -11t-27 11zM300 4q-11 11 -11 28t11 27.5t27 10.5q17 0 27.5 -10.5t10.5 -27.5t-11 -28t-27 -11t-27 11zM511 4q-11 11 -11 28t11 27.5t27 10.5q17 0 27.5 -10.5t10.5 -27.5t-11 -28
t-27 -11t-27 11z" />
    <glyph glyph-name="exclam" unicode="!" horiz-adv-x="266" 
d="M141 174l-7 441h56l-6 -441h-43zM136 4q-11 11 -11 28t11 27.5t27 10.5q17 0 27.5 -10.5t10.5 -27.5t-11 -28t-27 -11t-27 11z" />
    <glyph glyph-name="exclamdown" unicode="&#xa1;" horiz-adv-x="266" 
d="M130 443q11 -11 11 -28q0 -16 -10.5 -27t-27.5 -11q-16 0 -27 11t-11 27q0 17 11 28t27 11t27 -11zM125 274l7 -441h-56l6 441h43z" />
    <glyph glyph-name="numbersign" unicode="#" horiz-adv-x="544" 
d="M390 -81h-46v217h-147v-217h-45v217h-111v40h111v194h-112v40h112v208h45v-208h147v208h46v-208h110v-40h-110v-194h111v-40h-111v-217zM197 370v-194h147v194h-147z" />
    <glyph glyph-name="period" unicode="." horiz-adv-x="213" 
d="M89 4q-11 11 -11 28t11 27.5t27 10.5q17 0 27.5 -10.5t10.5 -27.5t-11 -28t-27 -11t-27 11z" />
    <glyph glyph-name="question" unicode="?" horiz-adv-x="384" 
d="M187.5 295q20.5 37 58.5 80q32 38 46.5 62.5t14.5 55.5q0 42 -29.5 65.5t-80.5 23.5q-53 0 -125 -29l-11 37q73 31 139 31q72 0 113.5 -32.5t41.5 -89.5q0 -39 -16.5 -68.5t-51.5 -72.5q-36 -43 -54.5 -76t-18.5 -77v-38h-47v40q0 51 20.5 88zM164 4q-11 11 -11 28
t11 27.5t27 10.5q17 0 27.5 -10.5t10.5 -27.5t-11 -28t-27 -11t-27 11z" />
    <glyph glyph-name="questiondown" unicode="&#xbf;" horiz-adv-x="385" 
d="M221 446q11 -11 11 -28q0 -16 -10.5 -27t-27.5 -11q-16 0 -27 11t-11 27q0 17 11 28t27 11t27 -11zM197.5 155q-20.5 -37 -58.5 -80q-32 -38 -46.5 -62.5t-14.5 -55.5q0 -42 29 -65.5t80 -23.5q52 0 126 29l11 -37q-73 -31 -140 -31q-72 0 -113 32t-41 90q0 39 16.5 68.5
t51.5 72.5q36 43 54.5 76t18.5 77v38h47v-40q0 -51 -20.5 -88z" />
    <glyph glyph-name="quotedbl" unicode="&#x22;" horiz-adv-x="319" 
d="M65 497l-7 131v79h54v-79l-10 -131h-37zM215 497l-8 131v79h54v-79l-9 -131h-37z" />
    <glyph glyph-name="quotesingle" unicode="'" horiz-adv-x="169" 
d="M65 497l-7 131v79h54v-79l-10 -131h-37z" />
    <glyph glyph-name="semicolon" unicode=";" horiz-adv-x="220" 
d="M116 -9q0 18 -10 32q-9 13 -9 27q0 12 7.5 19.5t21.5 7.5q18 0 30.5 -19t12.5 -49q0 -33 -18 -68t-48 -66l-29 28q42 43 42 88zM96 388q-11 11 -11 28t11 27.5t27 10.5q17 0 27.5 -10.5t10.5 -27.5t-11 -28t-27 -11t-27 11z" />
    <glyph glyph-name="slash" unicode="/" horiz-adv-x="365" 
d="M39 -76l246 753l41 -13l-246 -754z" />
    <glyph glyph-name="underscore" unicode="_" horiz-adv-x="381" 
d="M-6 -11h392v-37h-392v37z" />
    <glyph glyph-name="underscoredbl" unicode="&#x2017;" horiz-adv-x="381" 
d="M-6 -11h392v-36h-392v36zM-6 -106h392v-35h-392v35z" />
    <glyph glyph-name="braceleft" unicode="{" horiz-adv-x="277" 
d="M238 685q-40 -12 -57.5 -34t-17.5 -70v-122q0 -55 -19.5 -91t-53.5 -52q34 -15 53.5 -51t19.5 -90v-138q0 -47 17 -69t58 -35l-8 -36q-55 13 -83.5 42.5t-28.5 95.5v135q0 116 -90 132v28q90 17 90 133v119q0 66 29 96t84 42z" />
    <glyph glyph-name="braceright" unicode="}" horiz-adv-x="277" 
d="M39 -67q40 11 58 33.5t18 70.5v137q0 56 19 91.5t53 50.5q-33 15 -52.5 51t-19.5 91v122q0 47 -17.5 69t-58.5 35l8 36q55 -13 83.5 -42.5t28.5 -95.5v-119q0 -63 24.5 -94t66.5 -39v-28q-41 -7 -66 -38.5t-25 -93.5v-135q0 -66 -29 -96t-83 -42z" />
    <glyph glyph-name="bracketleft" unicode="[" horiz-adv-x="256" 
d="M55 721h172v-39h-127v-749h127v-39h-172v827z" />
    <glyph glyph-name="bracketright" unicode="]" horiz-adv-x="256" 
d="M201 -107h-172v39h127v750h-127v39h172v-828z" />
    <glyph glyph-name="parenleft" unicode="(" horiz-adv-x="261" 
d="M250 691q-64 -81 -105.5 -179.5t-41.5 -238.5t41.5 -238t106.5 -181l-33 -26q-46 57 -80 115t-57.5 141t-23.5 189q0 105 23.5 188t57.5 141t79 115z" />
    <glyph glyph-name="parenright" unicode=")" horiz-adv-x="261" 
d="M11 -145q64 82 105.5 180t41.5 238t-41.5 238t-106.5 182l33 25q72 -89 116.5 -191t44.5 -254q0 -151 -44.5 -253t-115.5 -191z" />
    <glyph glyph-name="emdash" unicode="&#x2014;" horiz-adv-x="862" 
d="M70 295h722v-42h-722v42z" />
    <glyph glyph-name="endash" unicode="&#x2013;" horiz-adv-x="598" 
d="M70 295h458v-42h-458v42z" />
    <glyph glyph-name="hyphen" unicode="-" horiz-adv-x="354" 
d="M305 253h-256v42h256v-42z" />
    <glyph glyph-name="uni00AD" unicode="&#xad;" horiz-adv-x="355" 
d="M305 253h-256v42h256v-42z" />
    <glyph glyph-name="guilsinglleft" unicode="&#x2039;" horiz-adv-x="274" 
d="M194 50l-150 186l151 185l27 -19l-116 -165l116 -167z" />
    <glyph glyph-name="guilsinglright" unicode="&#x203a;" horiz-adv-x="274" 
d="M77 421l150 -186l-151 -185l-28 20l116 164l-116 167z" />
    <glyph glyph-name="quotedblbase" unicode="&#x201e;" horiz-adv-x="289" 
d="M72 -9q0 18 -10 32q-8 14 -8 27q0 12 7 19.5t21 7.5q18 0 30.5 -19t12.5 -49q0 -33 -17.5 -68t-47.5 -66l-30 28q42 43 42 88zM206 -9q0 18 -10 32q-8 14 -8 27q0 12 7 19.5t21 7.5q18 0 30.5 -19t12.5 -49q0 -33 -17.5 -68t-47.5 -66l-30 28q42 43 42 88z" />
    <glyph glyph-name="quotedblleft" unicode="&#x201c;" horiz-adv-x="289" 
d="M83 589q0 -18 10 -32q9 -13 9 -27q0 -12 -7.5 -19.5t-21.5 -7.5q-18 0 -30.5 19t-12.5 49q0 33 17.5 68t47.5 66l30 -28q-42 -43 -42 -88zM217 589q0 -18 10 -32q9 -13 9 -27q0 -12 -7.5 -19.5t-21.5 -7.5q-18 0 -30.5 19t-12.5 49q0 33 17.5 68t47.5 66l30 -28
q-42 -43 -42 -88z" />
    <glyph glyph-name="quotedblright" unicode="&#x201d;" horiz-adv-x="289" 
d="M72 604q0 18 -10 32q-8 14 -8 27q0 12 7 19.5t21 7.5q18 0 30.5 -19t12.5 -49q0 -33 -17.5 -68t-47.5 -66l-30 28q42 43 42 88zM206 604q0 18 -10 32q-8 14 -8 27q0 12 7 19.5t21 7.5q18 0 30.5 -19t12.5 -49q0 -33 -17.5 -68t-47.5 -66l-30 28q42 43 42 88z" />
    <glyph glyph-name="quoteleft" unicode="&#x2018;" horiz-adv-x="155" 
d="M83 589q0 -18 10 -32q9 -13 9 -27q0 -12 -7.5 -19.5t-21.5 -7.5q-18 0 -30.5 19t-12.5 49q0 33 17.5 68t47.5 66l30 -28q-42 -43 -42 -88z" />
    <glyph glyph-name="quoteright" unicode="&#x2019;" horiz-adv-x="155" 
d="M72 604q0 18 -10 32q-8 14 -8 27q0 12 7 19.5t21 7.5q18 0 30.5 -19t12.5 -49q0 -33 -17.5 -68t-47.5 -66l-30 28q42 43 42 88z" />
    <glyph glyph-name="quotesinglbase" unicode="&#x201a;" horiz-adv-x="155" 
d="M72 -9q0 18 -10 32q-8 14 -8 27q0 12 7 19.5t21 7.5q18 0 30.5 -19t12.5 -49q0 -33 -17.5 -68t-47.5 -66l-30 28q42 43 42 88z" />
    <glyph glyph-name="uni00A0" unicode="&#xa0;" horiz-adv-x="253" 
 />
    <glyph glyph-name="cent" unicode="&#xa2;" horiz-adv-x="420" 
d="M260 -8v-105h-43v108q-77 11 -116.5 70t-39.5 158t40 158t116 71v110h43v-106q61 -1 115 -23l-11 -38q-53 22 -103 22q-75 0 -113.5 -49t-38.5 -142q0 -94 38.5 -144.5t109.5 -50.5q29 0 54 5.5t56 15.5l10 -35q-53 -24 -117 -25z" />
    <glyph glyph-name="currency" unicode="&#xa4;" horiz-adv-x="475" 
d="M420 50l-71 71q-48 -39 -112 -39t-112 39l-69 -70l-26 26l69 69q-40 50 -40 112q0 65 41 112l-71 71l26 25l71 -71q48 39 111 39t112 -38l70 70l26 -26l-70 -70q41 -49 41 -112t-41 -112l71 -71zM307.5 137q32.5 19 51 51t18.5 70t-18.5 70t-51 51t-70.5 19
q-37 0 -69 -19t-51 -51t-19 -70t19 -70t51 -51t69 -19q38 0 70.5 19z" />
    <glyph glyph-name="dollar" unicode="$" horiz-adv-x="438" 
d="M366 39q-43 -40 -121 -47v-104h-41v103q-84 3 -169 38l16 41q44 -18 79.5 -27.5t73.5 -10.5v271q-50 23 -82 44.5t-52.5 53.5t-20.5 78q0 64 40.5 102t114.5 43v92h41v-91q76 -4 142 -32l-13 -39q-63 27 -129 30v-248q51 -24 84.5 -46t56.5 -57t23 -86q0 -68 -43 -108z
M126 408.5q28 -29.5 78 -53.5v229q-51 -6 -78.5 -32.5t-27.5 -68.5q0 -45 28 -74.5zM330 67.5q30 28.5 30 76.5q0 49 -30 80t-85 59v-250q55 6 85 34.5z" />
    <glyph glyph-name="Euro" unicode="&#x20ac;" horiz-adv-x="527" 
d="M490 15q-61 -27 -127 -27q-106 0 -164 62.5t-70 190.5h-82v36h80q-1 12 -1 37q0 31 1 45h-80v36h83q14 116 72 173t161 57q65 0 119 -25l-12 -41q-48 26 -109 26q-79 0 -123.5 -47t-56.5 -143h225v-36h-229q-1 -14 -1 -44q0 -26 1 -38h229v-36h-227q11 -109 56.5 -161.5
t127.5 -52.5q59 0 113 27z" />
    <glyph glyph-name="florin" unicode="&#x192;" horiz-adv-x="351" 
d="M169 437l-11 -73h168l-2 -38h-172l-48 -297q-11 -70 -37.5 -107t-64 -51t-97.5 -20l-5 35q70 5 109 35.5t52 109.5l48 295h-88l2 38h92l12 77q15 92 58.5 138t112.5 46q52 0 100 -15l-11 -37q-41 14 -91 14q-103 0 -127 -150z" />
    <glyph glyph-name="sterling" unicode="&#xa3;" horiz-adv-x="436" 
d="M410 39v-39h-378l-2 31q40 23 58 47.5t23 53.5t5 79v105h-90v39h90v103q0 72 41.5 118.5t129.5 46.5q65 0 121 -27l-15 -35q-22 11 -50.5 17t-55.5 6q-64 0 -94.5 -34t-30.5 -92v-103h153v-39h-153v-106q0 -73 -11 -110t-49 -61h308z" />
    <glyph glyph-name="yen" unicode="&#xa5;" horiz-adv-x="436" 
d="M290 339h108v-36h-127l-36 -69h163v-37h-161v-197h-47v197h-161v37h162l-35 69h-127v36h109l-140 276h51l163 -340l171 340h51z" />
    <glyph glyph-name="uni2126" unicode="&#x2126;" horiz-adv-x="692" 
d="M627 38v-38h-203l-3 32q47 50 75.5 88.5t49.5 96.5t21 134q0 114 -57.5 174.5t-164.5 60.5q-105 0 -163 -60t-58 -176q0 -101 38.5 -177.5t108.5 -140.5l-3 -32h-202v38h143q-59 54 -96 131t-37 180q0 134 70 205.5t201 71.5q127 0 198 -69t71 -202q0 -78 -20 -135.5
t-45 -92t-73 -89.5h149z" />
    <glyph glyph-name="approxequal" unicode="&#x2248;" horiz-adv-x="510" 
d="M223 370q19 -10 42 -30q22 -18 36.5 -26t35.5 -8q24 0 44.5 15t46.5 51l28 -20q-49 -87 -123 -87q-30 0 -49 10t-43 30q-19 17 -34 25.5t-36 8.5q-25 0 -45 -14.5t-45 -50.5l-30 19q50 87 124 87q29 0 48 -10zM448 142h-386v41h386v-41z" />
    <glyph glyph-name="asciitilde" unicode="~" horiz-adv-x="510" 
d="M223.5 288.5q19.5 -10.5 41.5 -30.5q22 -18 36.5 -26t35.5 -8q24 0 45 15.5t46 51.5l29 -20q-50 -87 -124 -87q-30 0 -49 10t-42 30q-20 17 -35.5 25.5t-36.5 8.5q-24 0 -44 -14.5t-46 -50.5l-30 18q51 88 124 88q30 0 49.5 -10.5z" />
    <glyph glyph-name="divide" unicode="&#xf7;" horiz-adv-x="510" 
d="M184 405q-11 11 -11 28t11 28t27 11t26.5 -11t10.5 -28t-10.5 -28t-26.5 -11t-27 11zM65 192l365 133l14 -40l-364 -133zM269 4q-11 11 -11 28t11 27.5t27 10.5q17 0 27.5 -10.5t10.5 -27.5t-11 -28t-27 -11t-27 11z" />
    <glyph glyph-name="equal" unicode="=" horiz-adv-x="510" 
d="M62 337h387v-41h-387v41zM62 185h387v-41h-387v41z" />
    <glyph glyph-name="greater" unicode="&#x3e;" horiz-adv-x="510" 
d="M408 241l-263 -229l-26 33l225 195l-225 197l27 33z" />
    <glyph glyph-name="greaterequal" unicode="&#x2265;" horiz-adv-x="510" 
d="M104 92l-18 37l259 141l-261 141l20 36l324 -177zM83 37h342v-41h-342v41z" />
    <glyph glyph-name="uni2206" unicode="&#x2206;" horiz-adv-x="499" 
d="M23 0l-7 34l223 586h40l204 -586l-6 -34h-454zM71 39h360l-174 513z" />
    <glyph glyph-name="infinity" unicode="&#x221e;" horiz-adv-x="805" 
d="M705.5 339q43.5 -51 43.5 -136q0 -83 -43 -133t-119 -50q-119 0 -185 138q-36 -64 -80.5 -100.5t-104.5 -36.5q-73 0 -117 50.5t-44 133.5q0 84 44 134.5t120 50.5q70 0 113.5 -39t72.5 -100q36 64 80.5 101.5t104.5 37.5q71 0 114.5 -51zM310.5 95q35.5 35 71.5 109
q-30 67 -66 106.5t-94 39.5q-57 0 -89 -39.5t-32 -106.5q0 -66 31.5 -105t89.5 -39q53 0 88.5 35zM673 98q31 38 31 105t-31 106.5t-86 39.5q-53 0 -89 -36t-71 -108q20 -46 39 -76t48 -49.5t71 -19.5q57 0 88 38z" />
    <glyph glyph-name="integral" unicode="&#x222b;" horiz-adv-x="298" 
d="M248 699q-49 0 -75.5 -30t-26.5 -98q0 -43 6.5 -115t14.5 -148q13 -137 19.5 -214.5t6.5 -147.5q0 -88 -34 -133.5t-117 -45.5q-37 0 -69 9l9 41q31 -9 61 -9q58 0 80 33t22 101q0 56 -6 134t-18 195q-23 220 -23 297q0 87 37 129t114 42q42 0 70 -8l-8 -40q-30 8 -63 8z
" />
    <glyph glyph-name="less" unicode="&#x3c;" horiz-adv-x="510" 
d="M391 442l-225 -196l225 -197l-27 -32l-262 228l263 229z" />
    <glyph glyph-name="lessequal" unicode="&#x2264;" horiz-adv-x="501" 
d="M423 410l-257 -141l259 -141l-21 -36l-323 177l324 178zM426 -4h-342v41h342v-41z" />
    <glyph glyph-name="logicalnot" unicode="&#xac;" horiz-adv-x="588" 
d="M68 301h448v-212h-42l-1 173h-405v39z" />
    <glyph glyph-name="uni00B5" unicode="&#xb5;" horiz-adv-x="540" 
d="M406 0q-3 28 -5 65q-18 -34 -51.5 -55.5t-75.5 -21.5q-43 0 -73.5 18t-54.5 50v-285h-46v676h46v-330q24 -40 57.5 -64.5t71.5 -24.5q32 0 59.5 18.5t43.5 51.5t16 74v275h47v-317q0 -46 7 -130h-42z" />
    <glyph glyph-name="minus" unicode="&#x2212;" horiz-adv-x="510" 
d="M62 266h387v-42h-387v42z" />
    <glyph glyph-name="multiply" unicode="&#xd7;" horiz-adv-x="510" 
d="M434 98l-32 -31l-146 147l-146 -146l-30 30l144 146l-148 148l31 32l149 -150l144 148l32 -31l-146 -146z" />
    <glyph glyph-name="notequal" unicode="&#x2260;" horiz-adv-x="510" 
d="M350 337h99v-41h-129l-92 -111h221v-41h-252l-157 -191l-32 28l134 163h-80v41h111l92 111h-203v41h233l157 190l30 -30z" />
    <glyph glyph-name="partialdiff" unicode="&#x2202;" horiz-adv-x="498" 
d="M387 556.5q57 -90.5 57 -235.5q0 -152 -51.5 -241.5t-161.5 -89.5q-81 0 -127.5 49.5t-46.5 130.5q0 88 56 141t156 53q67 0 126 -29q0 108 -41.5 190t-165.5 82q-26 0 -61 -5l-5 39q36 6 70 6q138 0 195 -90.5zM395 294q-62 31 -127 31q-75 0 -119 -40.5t-44 -111.5
q0 -64 35 -104t95 -40q150 0 160 265z" />
    <glyph glyph-name="percent" unicode="%" horiz-adv-x="629" 
d="M79.5 419.5q-32.5 32.5 -32.5 85.5t32.5 85t86.5 32t87.5 -32.5t33.5 -84.5q0 -53 -33.5 -85.5t-87.5 -32.5t-86.5 32.5zM75 56l450 544l32 -26l-450 -546zM112 562.5q-20 -21.5 -20 -57.5q0 -37 20 -58.5t54 -21.5t54.5 21.5t20.5 58.5q0 36 -20.5 57.5t-54.5 21.5
t-54 -21.5zM373 20.5q-33 32.5 -33 85.5q0 52 33 84.5t86 32.5q55 0 88 -32t33 -85t-33 -85.5t-88 -32.5q-53 0 -86 32.5zM405.5 163.5q-20.5 -21.5 -20.5 -57.5t20.5 -58t53.5 -22q35 0 55.5 21.5t20.5 58.5q0 36 -20.5 57.5t-55.5 21.5q-33 0 -53.5 -21.5z" />
    <glyph glyph-name="perthousand" unicode="&#x2030;" horiz-adv-x="935" 
d="M253.5 589.5q33.5 -32.5 33.5 -84.5q0 -53 -33.5 -85.5t-87.5 -32.5t-86.5 32.5t-32.5 85.5t32.5 85t86.5 32t87.5 -32.5zM75 56l450 544l32 -26l-450 -546zM112 562.5q-20 -21.5 -20 -57.5q0 -37 20 -58.5t54 -21.5t54.5 21.5t20.5 58.5q0 36 -20.5 57.5t-54.5 21.5
t-54 -21.5zM547 191q33 -32 33 -85t-33 -85.5t-88 -32.5q-53 0 -86 32.5t-33 85.5q0 52 33 84.5t86 32.5q55 0 88 -32zM853.5 190.5q33.5 -32.5 33.5 -84.5q0 -53 -33.5 -85.5t-87.5 -32.5t-86.5 32.5t-32.5 85.5t32.5 85t86.5 32t87.5 -32.5zM405.5 163.5
q-20.5 -21.5 -20.5 -57.5t20.5 -58t53.5 -22q35 0 55.5 21.5t20.5 58.5q0 36 -20.5 57.5t-55.5 21.5q-33 0 -53.5 -21.5zM712 163.5q-20 -21.5 -20 -57.5q0 -37 20 -58.5t54 -21.5t54.5 21.5t20.5 58.5q0 36 -20.5 57.5t-54.5 21.5t-54 -21.5z" />
    <glyph glyph-name="plus" unicode="+" horiz-adv-x="510" 
d="M277 49h-45v177h-171v41h171v175h45v-175h171v-41h-171v-177z" />
    <glyph glyph-name="plusminus" unicode="&#xb1;" horiz-adv-x="510" 
d="M277 89h-45v168h-171v40h171v172h45v-172h171v-40h-171v-168zM61 41h387v-41h-387v41z" />
    <glyph glyph-name="product" unicode="&#x220f;" horiz-adv-x="615" 
d="M487 -113h-46v686h-268v-686h-46v686h-118v42h596v-42h-118v-686z" />
    <glyph glyph-name="radical" unicode="&#x221a;" horiz-adv-x="296" 
d="M472 713v-39l-202 -1l-122 -543l-51 -1l-69 279h-79v39h117l56 -248l110 514h240z" />
    <glyph glyph-name="summation" unicode="&#x2211;" horiz-adv-x="510" 
d="M488 -75v-39h-442l-5 33l238 334l-216 326l5 35h388v-40h-335l213 -321l-235 -328h389z" />
    <glyph glyph-name="lozenge" unicode="&#x25ca;" horiz-adv-x="373" 
d="M217 615l119 -308l-121 -307h-58l-120 307l122 308h58zM292 307l-105 271l-106 -271l106 -271z" />
    <glyph glyph-name="bar" unicode="|" horiz-adv-x="245" 
d="M100 676h45v-762h-45v762z" />
    <glyph glyph-name="brokenbar" unicode="&#xa6;" horiz-adv-x="262" 
d="M109 677h46v-314h-46v314zM155 -87h-46v335h46v-335z" />
    <glyph glyph-name="at" unicode="@" horiz-adv-x="847" 
d="M274.5 304q26.5 58 74 92.5t106.5 34.5q26 0 52.5 -9t61.5 -29v-257q0 -109 55 -109q53 0 79.5 58t26.5 163q0 78 -30.5 145.5t-96 109t-165.5 41.5q-94 0 -167.5 -44t-114.5 -123.5t-41 -180.5q0 -87 33 -161.5t104 -121t181 -46.5q98 0 168 28l13 -37q-86 -30 -181 -30
q-122 0 -203 51t-120 134t-39 181q0 113 46 201.5t129.5 138t192.5 49.5q112 0 187.5 -46t111.5 -121.5t36 -163.5q0 -121 -38.5 -191t-118.5 -70q-34 0 -56 21t-27 56q-17 -32 -54 -54.5t-79 -22.5q-74 0 -113.5 55t-39.5 133q0 67 26.5 125zM454 393q-45 0 -81 -28
t-57 -76t-21 -105q0 -38 13.5 -73.5t38.5 -58.5t59 -23q40 0 74 29t45 69v246q-31 20 -71 20z" />
    <glyph glyph-name="ampersand" unicode="&#x26;" horiz-adv-x="630" 
d="M561 -10l-122 115q-94 -116 -202 -116q-70 0 -114.5 41.5t-44.5 110.5q0 60 33.5 103t92.5 82q-43 44 -63.5 81.5t-20.5 76.5q0 62 45 101t123 39q69 0 111.5 -33.5t42.5 -90.5q0 -39 -23 -69.5t-53 -51.5t-93 -58l163 -154q50 74 98 184l40 -15q-53 -117 -108 -197
l122 -115zM184.5 421q17.5 -31 57.5 -71q19 11 22 13q67 39 99 67t32 67q0 41 -31.5 65t-81.5 24q-53 0 -84 -26.5t-31 -74.5q0 -33 17.5 -64zM410 132l-176 165q-52 -34 -80.5 -69.5t-28.5 -83.5q0 -52 33 -84t83 -32q86 0 169 104z" />
    <glyph glyph-name="paragraph" unicode="&#xb6;" horiz-adv-x="557" 
d="M320 677q-107 0 -168.5 -39.5t-61.5 -119.5q0 -53 37 -86t90 -46.5t104 -13.5v-431h-45v393q-77 7 -130 33.5t-78.5 65.5t-25.5 83q0 92 69 145.5t205 53.5h141v-774h-45v736h-92z" />
    <glyph glyph-name="copyright" unicode="&#xa9;" horiz-adv-x="888" 
d="M250.5 -27.5q-87.5 50.5 -137.5 139t-50 196.5t50 196t137 138t195 50q107 0 193.5 -50t136.5 -138t50 -196t-50 -196.5t-136.5 -139t-193.5 -50.5t-194.5 50.5zM271.5 607.5q-77.5 -45.5 -121.5 -124.5t-44 -176t44 -176t121.5 -124.5t172.5 -45.5t172.5 45.5
t121.5 124.5t44 176t-44 176t-121.5 124.5t-172.5 45.5t-172.5 -45.5zM456 72q-61 0 -110.5 27.5t-78.5 82t-29 131.5q0 69 29.5 119.5t79.5 76.5t109 26q39 0 68.5 -6.5t64.5 -22.5l-14 -39q-31 14 -58 21.5t-59 7.5q-44 0 -83 -21t-63.5 -62t-24.5 -100q0 -67 25 -112
t64.5 -67t84.5 -22q32 0 59 6.5t58 19.5l15 -36q-56 -30 -137 -30z" />
    <glyph glyph-name="registered" unicode="&#xae;" horiz-adv-x="529" 
d="M370 663.5q48 -28.5 76 -77t28 -105.5t-28 -105.5t-76 -77t-105 -28.5t-105.5 28t-77 76.5t-28.5 106.5q0 57 28.5 105.5t77 77t105.5 28.5t105 -28.5zM352.5 327q40.5 24 64 64.5t23.5 88.5q0 49 -23.5 90t-64 65t-88.5 24q-47 0 -87.5 -24t-64 -65t-23.5 -90t24 -89.5
t64 -64t87 -23.5q48 0 88.5 24zM301 468l53 -104h-39l-45 95q-14 -2 -42 -2v-93h-35v233h59q52 0 74 -20.5t22 -47.5q0 -43 -47 -61zM310 528q0 40 -65 40h-17v-84q82 -1 82 44z" />
    <glyph glyph-name="section" unicode="&#xa7;" horiz-adv-x="477" 
d="M359 75q22 -30 22 -73q0 -63 -45.5 -91.5t-117.5 -28.5q-74 0 -140 24l13 39q71 -25 128 -25q47 0 81 18t34 61q0 30 -16 52.5t-39 37.5t-63 36q-42 21 -67.5 38t-43 42t-17.5 60q0 39 23 71t66 60q-37 22 -57.5 49.5t-20.5 66.5q0 55 44 82t107 27q33 0 67 -6.5
t60 -17.5l-10 -41q-27 12 -58.5 18.5t-59.5 6.5q-43 0 -73 -17t-30 -53q0 -35 27 -58t82 -50q45 -22 72.5 -40t47 -46.5t19.5 -69.5q0 -34 -20.5 -61t-75.5 -57q39 -24 61 -54zM148.5 224q14.5 -19 35 -32t58.5 -33l20 -10q44 28 64 47.5t20 50.5q0 29 -15.5 50t-38 35.5
t-61.5 34.5l-18 9q-37 -27 -58 -52t-21 -56q0 -25 14.5 -44z" />
    <glyph glyph-name="trademark" unicode="&#x2122;" horiz-adv-x="704" 
d="M172 335h-39v309h-117v32h270v-32h-114v-309zM603 614l-113 -279h-27l-114 278l-17 -278h-37l23 341h44l115 -283l117 283h43l22 -341h-40z" />
    <glyph glyph-name="degree" unicode="&#xb0;" horiz-adv-x="406" 
d="M109 462.5q-36 35.5 -36 86.5q0 52 36 87t88 35q53 0 89 -35t36 -87q0 -51 -36.5 -86.5t-88.5 -35.5t-88 35.5zM138 610.5q-25 -25.5 -25 -61.5t25 -62t59 -26q35 0 60 26t25 62t-25 61.5t-60 25.5q-34 0 -59 -25.5z" />
    <glyph glyph-name="asciicircum" unicode="^" horiz-adv-x="480" 
d="M238 579l-158 -313h-56l185 361h58l185 -361h-56z" />
    <glyph glyph-name="dagger" unicode="&#x2020;" horiz-adv-x="464" 
d="M255 0h-46v408h-161v39h161v167h46v-167h161v-39h-161v-408z" />
    <glyph glyph-name="daggerdbl" unicode="&#x2021;" horiz-adv-x="464" 
d="M255 0h-46v183h-161v41h161v186h-161v40h161v165h46v-165h161v-40h-161v-186h161v-41h-161v-183z" />
    <glyph glyph-name="acutecomb" unicode="&#x301;" 
d="M-19 624l-97 -119l-28 20l84 125z" />
    <glyph glyph-name="uni0306" unicode="&#x306;" 
d="M-77 540q-32 -28 -86 -28q-53 0 -84 28t-39 80l39 4q9 -39 28.5 -59t57.5 -20t59 20.5t29 58.5l37 -4q-9 -52 -41 -80z" />
    <glyph glyph-name="uni030C" unicode="&#x30c;" 
d="M-238 613l101 -68l99 68l18 -26l-99 -75h-39l-98 75z" />
    <glyph glyph-name="uni0327" unicode="&#x327;" 
d="M-47.5 -79.5q26.5 -19.5 26.5 -54.5q0 -38 -29 -55.5t-73 -17.5q-42 0 -74 13l7 27q36 -12 64 -12q33 0 50 12t17 34q0 54 -100 48l14 86h33l-11 -58q49 -3 75.5 -22.5z" />
    <glyph glyph-name="uni0302" unicode="&#x302;" 
d="M-26 507l-101 68l-99 -68l-20 25l120 90l120 -90z" />
    <glyph glyph-name="uni0308" unicode="&#x308;" 
d="M-221.5 553.5q-9.5 -9.5 -25.5 -9.5t-25.5 9.5t-9.5 25.5t9.5 25.5t25.5 9.5t25.5 -9.5t9.5 -25.5t-9.5 -25.5zM-31.5 553.5q-9.5 -9.5 -25.5 -9.5t-25.5 9.5t-9.5 25.5t9.5 25.5t25.5 9.5t25.5 -9.5t9.5 -25.5t-9.5 -25.5z" />
    <glyph glyph-name="uni0307" unicode="&#x307;" 
d="M-84 565.5q-10 10.5 -10 26.5q0 17 10 27t27 10q16 0 26.5 -10t10.5 -27q0 -16 -10.5 -26.5t-26.5 -10.5q-17 0 -27 10.5z" />
    <glyph glyph-name="dotbelowcomb" unicode="&#x323;" 
d="M-88 -151q-10 10 -10 27q0 16 10.5 26.5t26.5 10.5t26.5 -10.5t10.5 -26.5q0 -17 -10.5 -27t-26.5 -10q-17 0 -27 10z" />
    <glyph glyph-name="gravecomb" unicode="&#x300;" 
d="M-29 525l-30 -21l-97 119l42 27z" />
    <glyph glyph-name="hookabovecomb" unicode="&#x309;" 
d="M-291.5 714q12.5 16 36.5 34q15 10 22 17.5t7 16.5q0 28 -44 28q-28 0 -64 -10l-7 29q22 4 41 7t38 3q39 0 57.5 -13t18.5 -40q0 -18 -10 -29.5t-31 -26.5t-31.5 -27t-11.5 -31h-34q0 26 12.5 42z" />
    <glyph glyph-name="uni030B" unicode="&#x30b;" 
d="M-344 513l67 108h70l-100 -113zM-172 513l68 108h71l-102 -113z" />
    <glyph glyph-name="uni0304" unicode="&#x304;" 
d="M-254 564h253v-34h-253v34z" />
    <glyph glyph-name="uni0328" unicode="&#x328;" 
d="M-152 -189q-44 0 -65 20.5t-21 57.5q0 35 27.5 69t91.5 60l32 -20q-54 -20 -82 -49.5t-28 -56.5q0 -23 14 -35t37 -12q26 0 63 16l11 -30q-40 -20 -80 -20z" />
    <glyph glyph-name="uni030A" unicode="&#x30a;" 
d="M-181 529.5q-25 25.5 -25 62.5t25 62t63 25t63 -24.5t25 -62.5t-25 -63t-63 -25t-63 25.5zM-158 633.5q-16 -16.5 -16 -41.5t16 -41.5t40 -16.5t40 16.5t16 41.5t-16 41.5t-40 16.5t-40 -16.5z" />
    <glyph glyph-name="tildecomb" unicode="&#x303;" 
d="M-65 571q-18 -28 -37.5 -42.5t-43.5 -14.5q-18 0 -31 6t-28 17q-25 20 -46 20q-15 0 -26 -8.5t-19.5 -19.5t-11.5 -14l-22 20q37 57 80 57q18 0 30.5 -6t29.5 -17q13 -10 23 -14.5t23 -4.5q16 0 27 9t30 32z" />
    <glyph glyph-name="acutecomb.case" 
d="M2 765l-115 -102l-24 23l103 110z" />
    <glyph glyph-name="uni0306.case" 
d="M-22 767q-8 -47 -39 -73t-83 -26q-51 0 -81.5 26t-39.5 73l36 4q17 -70 87 -70q37 0 56.5 18.5t27.5 51.5z" />
    <glyph glyph-name="uni030C.case" 
d="M-241 765l102 -62l99 62l19 -25l-100 -69h-39l-99 69z" />
    <glyph glyph-name="uni0302.case" 
d="M-19 687l-19 -25l-101 57l-100 -57l-18 25l119 78z" />
    <glyph glyph-name="uni0308.case" 
d="M-222 687q-10 -10 -26 -10t-25.5 10t-9.5 26q0 15 9.5 24.5t25.5 9.5t26 -9.5t10 -24.5q0 -16 -10 -26zM-36.5 687q-9.5 -10 -25.5 -10t-25.5 10t-9.5 26q0 15 9.5 24.5t25.5 9.5t25.5 -9.5t9.5 -24.5q0 -16 -9.5 -26z" />
    <glyph glyph-name="uni0307.case" 
d="M-83.5 681q-10.5 10 -10.5 26t10.5 26.5t26.5 10.5t26.5 -10.5t10.5 -26.5t-10.5 -26t-26.5 -10t-26.5 10z" />
    <glyph glyph-name="gravecomb.case" 
d="M-31 690l-26 -26l-115 103l38 33z" />
    <glyph glyph-name="uni0304.case" 
d="M-274 713h234v-34h-234v34z" />
    <glyph glyph-name="tildecomb.case" 
d="M-62 725q-19 -23 -38.5 -35.5t-43.5 -12.5q-18 0 -30.5 4.5t-31.5 14.5q-15 8 -24 12t-22 4q-18 0 -30 -8.5t-30 -26.5l-23 22q20 24 39.5 36.5t44.5 12.5q18 0 31.5 -5t29.5 -14q3 -2 12.5 -6t17.5 -6.5t17 -2.5q17 0 28.5 8t30.5 25z" />
    <glyph glyph-name="acute" unicode="&#xb4;" horiz-adv-x="163" 
d="M144 624l-97 -119l-28 20l84 125z" />
    <glyph glyph-name="grave" unicode="`" horiz-adv-x="163" 
d="M135 525l-30 -21l-97 119l42 27z" />
    <glyph glyph-name="tilde" unicode="&#x2dc;" horiz-adv-x="372" 
d="M302 571q-18 -28 -37.5 -42.5t-43.5 -14.5q-18 0 -31 6t-28 17q-25 20 -46 20q-15 0 -26 -8.5t-19.5 -19.5t-11.5 -14l-22 20q37 57 80 57q18 0 30.5 -6t29.5 -17q13 -10 23 -14.5t23 -4.5q16 0 27 9t30 32z" />
    </font>
</defs>
</svg>
